G75*
%MOIN*%
%OFA0B0*%
%FSLAX25Y25*%
%IPPOS*%
%LPD*%
%AMOC8*
5,1,8,0,0,1.08239X$1,22.5*
%
%ADD10C,0.00000*%
%ADD11C,0.05200*%
%ADD12C,0.07400*%
%ADD13C,0.20000*%
%ADD14OC8,0.05200*%
%ADD15C,0.05150*%
%ADD16C,0.07382*%
%ADD17C,0.01000*%
%ADD18C,0.04000*%
%ADD19C,0.01600*%
D10*
X0025955Y0001800D02*
X0025955Y0148001D01*
X0260876Y0148001D01*
X0260876Y0001800D01*
X0025955Y0001800D01*
X0028199Y0006800D02*
X0028201Y0006905D01*
X0028207Y0007010D01*
X0028217Y0007114D01*
X0028231Y0007218D01*
X0028249Y0007322D01*
X0028271Y0007424D01*
X0028296Y0007526D01*
X0028326Y0007627D01*
X0028359Y0007726D01*
X0028396Y0007824D01*
X0028437Y0007921D01*
X0028482Y0008016D01*
X0028530Y0008109D01*
X0028581Y0008201D01*
X0028637Y0008290D01*
X0028695Y0008377D01*
X0028757Y0008462D01*
X0028821Y0008545D01*
X0028889Y0008625D01*
X0028960Y0008702D01*
X0029034Y0008776D01*
X0029111Y0008848D01*
X0029190Y0008917D01*
X0029272Y0008982D01*
X0029356Y0009045D01*
X0029443Y0009104D01*
X0029532Y0009160D01*
X0029623Y0009213D01*
X0029716Y0009262D01*
X0029810Y0009307D01*
X0029906Y0009349D01*
X0030004Y0009387D01*
X0030103Y0009421D01*
X0030204Y0009452D01*
X0030305Y0009478D01*
X0030408Y0009501D01*
X0030511Y0009520D01*
X0030615Y0009535D01*
X0030719Y0009546D01*
X0030824Y0009553D01*
X0030929Y0009556D01*
X0031034Y0009555D01*
X0031139Y0009550D01*
X0031243Y0009541D01*
X0031347Y0009528D01*
X0031451Y0009511D01*
X0031554Y0009490D01*
X0031656Y0009465D01*
X0031757Y0009437D01*
X0031856Y0009404D01*
X0031955Y0009368D01*
X0032052Y0009328D01*
X0032147Y0009285D01*
X0032241Y0009237D01*
X0032333Y0009187D01*
X0032423Y0009133D01*
X0032511Y0009075D01*
X0032596Y0009014D01*
X0032679Y0008950D01*
X0032760Y0008883D01*
X0032838Y0008813D01*
X0032913Y0008739D01*
X0032985Y0008664D01*
X0033055Y0008585D01*
X0033121Y0008504D01*
X0033185Y0008420D01*
X0033245Y0008334D01*
X0033301Y0008246D01*
X0033355Y0008155D01*
X0033405Y0008063D01*
X0033451Y0007969D01*
X0033494Y0007873D01*
X0033533Y0007775D01*
X0033568Y0007677D01*
X0033599Y0007576D01*
X0033627Y0007475D01*
X0033651Y0007373D01*
X0033671Y0007270D01*
X0033687Y0007166D01*
X0033699Y0007062D01*
X0033707Y0006957D01*
X0033711Y0006852D01*
X0033711Y0006748D01*
X0033707Y0006643D01*
X0033699Y0006538D01*
X0033687Y0006434D01*
X0033671Y0006330D01*
X0033651Y0006227D01*
X0033627Y0006125D01*
X0033599Y0006024D01*
X0033568Y0005923D01*
X0033533Y0005825D01*
X0033494Y0005727D01*
X0033451Y0005631D01*
X0033405Y0005537D01*
X0033355Y0005445D01*
X0033301Y0005354D01*
X0033245Y0005266D01*
X0033185Y0005180D01*
X0033121Y0005096D01*
X0033055Y0005015D01*
X0032985Y0004936D01*
X0032913Y0004861D01*
X0032838Y0004787D01*
X0032760Y0004717D01*
X0032679Y0004650D01*
X0032596Y0004586D01*
X0032511Y0004525D01*
X0032423Y0004467D01*
X0032333Y0004413D01*
X0032241Y0004363D01*
X0032147Y0004315D01*
X0032052Y0004272D01*
X0031955Y0004232D01*
X0031856Y0004196D01*
X0031757Y0004163D01*
X0031656Y0004135D01*
X0031554Y0004110D01*
X0031451Y0004089D01*
X0031347Y0004072D01*
X0031243Y0004059D01*
X0031139Y0004050D01*
X0031034Y0004045D01*
X0030929Y0004044D01*
X0030824Y0004047D01*
X0030719Y0004054D01*
X0030615Y0004065D01*
X0030511Y0004080D01*
X0030408Y0004099D01*
X0030305Y0004122D01*
X0030204Y0004148D01*
X0030103Y0004179D01*
X0030004Y0004213D01*
X0029906Y0004251D01*
X0029810Y0004293D01*
X0029716Y0004338D01*
X0029623Y0004387D01*
X0029532Y0004440D01*
X0029443Y0004496D01*
X0029356Y0004555D01*
X0029272Y0004618D01*
X0029190Y0004683D01*
X0029111Y0004752D01*
X0029034Y0004824D01*
X0028960Y0004898D01*
X0028889Y0004975D01*
X0028821Y0005055D01*
X0028757Y0005138D01*
X0028695Y0005223D01*
X0028637Y0005310D01*
X0028581Y0005399D01*
X0028530Y0005491D01*
X0028482Y0005584D01*
X0028437Y0005679D01*
X0028396Y0005776D01*
X0028359Y0005874D01*
X0028326Y0005973D01*
X0028296Y0006074D01*
X0028271Y0006176D01*
X0028249Y0006278D01*
X0028231Y0006382D01*
X0028217Y0006486D01*
X0028207Y0006590D01*
X0028201Y0006695D01*
X0028199Y0006800D01*
X0253199Y0006800D02*
X0253201Y0006905D01*
X0253207Y0007010D01*
X0253217Y0007114D01*
X0253231Y0007218D01*
X0253249Y0007322D01*
X0253271Y0007424D01*
X0253296Y0007526D01*
X0253326Y0007627D01*
X0253359Y0007726D01*
X0253396Y0007824D01*
X0253437Y0007921D01*
X0253482Y0008016D01*
X0253530Y0008109D01*
X0253581Y0008201D01*
X0253637Y0008290D01*
X0253695Y0008377D01*
X0253757Y0008462D01*
X0253821Y0008545D01*
X0253889Y0008625D01*
X0253960Y0008702D01*
X0254034Y0008776D01*
X0254111Y0008848D01*
X0254190Y0008917D01*
X0254272Y0008982D01*
X0254356Y0009045D01*
X0254443Y0009104D01*
X0254532Y0009160D01*
X0254623Y0009213D01*
X0254716Y0009262D01*
X0254810Y0009307D01*
X0254906Y0009349D01*
X0255004Y0009387D01*
X0255103Y0009421D01*
X0255204Y0009452D01*
X0255305Y0009478D01*
X0255408Y0009501D01*
X0255511Y0009520D01*
X0255615Y0009535D01*
X0255719Y0009546D01*
X0255824Y0009553D01*
X0255929Y0009556D01*
X0256034Y0009555D01*
X0256139Y0009550D01*
X0256243Y0009541D01*
X0256347Y0009528D01*
X0256451Y0009511D01*
X0256554Y0009490D01*
X0256656Y0009465D01*
X0256757Y0009437D01*
X0256856Y0009404D01*
X0256955Y0009368D01*
X0257052Y0009328D01*
X0257147Y0009285D01*
X0257241Y0009237D01*
X0257333Y0009187D01*
X0257423Y0009133D01*
X0257511Y0009075D01*
X0257596Y0009014D01*
X0257679Y0008950D01*
X0257760Y0008883D01*
X0257838Y0008813D01*
X0257913Y0008739D01*
X0257985Y0008664D01*
X0258055Y0008585D01*
X0258121Y0008504D01*
X0258185Y0008420D01*
X0258245Y0008334D01*
X0258301Y0008246D01*
X0258355Y0008155D01*
X0258405Y0008063D01*
X0258451Y0007969D01*
X0258494Y0007873D01*
X0258533Y0007775D01*
X0258568Y0007677D01*
X0258599Y0007576D01*
X0258627Y0007475D01*
X0258651Y0007373D01*
X0258671Y0007270D01*
X0258687Y0007166D01*
X0258699Y0007062D01*
X0258707Y0006957D01*
X0258711Y0006852D01*
X0258711Y0006748D01*
X0258707Y0006643D01*
X0258699Y0006538D01*
X0258687Y0006434D01*
X0258671Y0006330D01*
X0258651Y0006227D01*
X0258627Y0006125D01*
X0258599Y0006024D01*
X0258568Y0005923D01*
X0258533Y0005825D01*
X0258494Y0005727D01*
X0258451Y0005631D01*
X0258405Y0005537D01*
X0258355Y0005445D01*
X0258301Y0005354D01*
X0258245Y0005266D01*
X0258185Y0005180D01*
X0258121Y0005096D01*
X0258055Y0005015D01*
X0257985Y0004936D01*
X0257913Y0004861D01*
X0257838Y0004787D01*
X0257760Y0004717D01*
X0257679Y0004650D01*
X0257596Y0004586D01*
X0257511Y0004525D01*
X0257423Y0004467D01*
X0257333Y0004413D01*
X0257241Y0004363D01*
X0257147Y0004315D01*
X0257052Y0004272D01*
X0256955Y0004232D01*
X0256856Y0004196D01*
X0256757Y0004163D01*
X0256656Y0004135D01*
X0256554Y0004110D01*
X0256451Y0004089D01*
X0256347Y0004072D01*
X0256243Y0004059D01*
X0256139Y0004050D01*
X0256034Y0004045D01*
X0255929Y0004044D01*
X0255824Y0004047D01*
X0255719Y0004054D01*
X0255615Y0004065D01*
X0255511Y0004080D01*
X0255408Y0004099D01*
X0255305Y0004122D01*
X0255204Y0004148D01*
X0255103Y0004179D01*
X0255004Y0004213D01*
X0254906Y0004251D01*
X0254810Y0004293D01*
X0254716Y0004338D01*
X0254623Y0004387D01*
X0254532Y0004440D01*
X0254443Y0004496D01*
X0254356Y0004555D01*
X0254272Y0004618D01*
X0254190Y0004683D01*
X0254111Y0004752D01*
X0254034Y0004824D01*
X0253960Y0004898D01*
X0253889Y0004975D01*
X0253821Y0005055D01*
X0253757Y0005138D01*
X0253695Y0005223D01*
X0253637Y0005310D01*
X0253581Y0005399D01*
X0253530Y0005491D01*
X0253482Y0005584D01*
X0253437Y0005679D01*
X0253396Y0005776D01*
X0253359Y0005874D01*
X0253326Y0005973D01*
X0253296Y0006074D01*
X0253271Y0006176D01*
X0253249Y0006278D01*
X0253231Y0006382D01*
X0253217Y0006486D01*
X0253207Y0006590D01*
X0253201Y0006695D01*
X0253199Y0006800D01*
X0253199Y0141800D02*
X0253201Y0141905D01*
X0253207Y0142010D01*
X0253217Y0142114D01*
X0253231Y0142218D01*
X0253249Y0142322D01*
X0253271Y0142424D01*
X0253296Y0142526D01*
X0253326Y0142627D01*
X0253359Y0142726D01*
X0253396Y0142824D01*
X0253437Y0142921D01*
X0253482Y0143016D01*
X0253530Y0143109D01*
X0253581Y0143201D01*
X0253637Y0143290D01*
X0253695Y0143377D01*
X0253757Y0143462D01*
X0253821Y0143545D01*
X0253889Y0143625D01*
X0253960Y0143702D01*
X0254034Y0143776D01*
X0254111Y0143848D01*
X0254190Y0143917D01*
X0254272Y0143982D01*
X0254356Y0144045D01*
X0254443Y0144104D01*
X0254532Y0144160D01*
X0254623Y0144213D01*
X0254716Y0144262D01*
X0254810Y0144307D01*
X0254906Y0144349D01*
X0255004Y0144387D01*
X0255103Y0144421D01*
X0255204Y0144452D01*
X0255305Y0144478D01*
X0255408Y0144501D01*
X0255511Y0144520D01*
X0255615Y0144535D01*
X0255719Y0144546D01*
X0255824Y0144553D01*
X0255929Y0144556D01*
X0256034Y0144555D01*
X0256139Y0144550D01*
X0256243Y0144541D01*
X0256347Y0144528D01*
X0256451Y0144511D01*
X0256554Y0144490D01*
X0256656Y0144465D01*
X0256757Y0144437D01*
X0256856Y0144404D01*
X0256955Y0144368D01*
X0257052Y0144328D01*
X0257147Y0144285D01*
X0257241Y0144237D01*
X0257333Y0144187D01*
X0257423Y0144133D01*
X0257511Y0144075D01*
X0257596Y0144014D01*
X0257679Y0143950D01*
X0257760Y0143883D01*
X0257838Y0143813D01*
X0257913Y0143739D01*
X0257985Y0143664D01*
X0258055Y0143585D01*
X0258121Y0143504D01*
X0258185Y0143420D01*
X0258245Y0143334D01*
X0258301Y0143246D01*
X0258355Y0143155D01*
X0258405Y0143063D01*
X0258451Y0142969D01*
X0258494Y0142873D01*
X0258533Y0142775D01*
X0258568Y0142677D01*
X0258599Y0142576D01*
X0258627Y0142475D01*
X0258651Y0142373D01*
X0258671Y0142270D01*
X0258687Y0142166D01*
X0258699Y0142062D01*
X0258707Y0141957D01*
X0258711Y0141852D01*
X0258711Y0141748D01*
X0258707Y0141643D01*
X0258699Y0141538D01*
X0258687Y0141434D01*
X0258671Y0141330D01*
X0258651Y0141227D01*
X0258627Y0141125D01*
X0258599Y0141024D01*
X0258568Y0140923D01*
X0258533Y0140825D01*
X0258494Y0140727D01*
X0258451Y0140631D01*
X0258405Y0140537D01*
X0258355Y0140445D01*
X0258301Y0140354D01*
X0258245Y0140266D01*
X0258185Y0140180D01*
X0258121Y0140096D01*
X0258055Y0140015D01*
X0257985Y0139936D01*
X0257913Y0139861D01*
X0257838Y0139787D01*
X0257760Y0139717D01*
X0257679Y0139650D01*
X0257596Y0139586D01*
X0257511Y0139525D01*
X0257423Y0139467D01*
X0257333Y0139413D01*
X0257241Y0139363D01*
X0257147Y0139315D01*
X0257052Y0139272D01*
X0256955Y0139232D01*
X0256856Y0139196D01*
X0256757Y0139163D01*
X0256656Y0139135D01*
X0256554Y0139110D01*
X0256451Y0139089D01*
X0256347Y0139072D01*
X0256243Y0139059D01*
X0256139Y0139050D01*
X0256034Y0139045D01*
X0255929Y0139044D01*
X0255824Y0139047D01*
X0255719Y0139054D01*
X0255615Y0139065D01*
X0255511Y0139080D01*
X0255408Y0139099D01*
X0255305Y0139122D01*
X0255204Y0139148D01*
X0255103Y0139179D01*
X0255004Y0139213D01*
X0254906Y0139251D01*
X0254810Y0139293D01*
X0254716Y0139338D01*
X0254623Y0139387D01*
X0254532Y0139440D01*
X0254443Y0139496D01*
X0254356Y0139555D01*
X0254272Y0139618D01*
X0254190Y0139683D01*
X0254111Y0139752D01*
X0254034Y0139824D01*
X0253960Y0139898D01*
X0253889Y0139975D01*
X0253821Y0140055D01*
X0253757Y0140138D01*
X0253695Y0140223D01*
X0253637Y0140310D01*
X0253581Y0140399D01*
X0253530Y0140491D01*
X0253482Y0140584D01*
X0253437Y0140679D01*
X0253396Y0140776D01*
X0253359Y0140874D01*
X0253326Y0140973D01*
X0253296Y0141074D01*
X0253271Y0141176D01*
X0253249Y0141278D01*
X0253231Y0141382D01*
X0253217Y0141486D01*
X0253207Y0141590D01*
X0253201Y0141695D01*
X0253199Y0141800D01*
X0028199Y0141800D02*
X0028201Y0141905D01*
X0028207Y0142010D01*
X0028217Y0142114D01*
X0028231Y0142218D01*
X0028249Y0142322D01*
X0028271Y0142424D01*
X0028296Y0142526D01*
X0028326Y0142627D01*
X0028359Y0142726D01*
X0028396Y0142824D01*
X0028437Y0142921D01*
X0028482Y0143016D01*
X0028530Y0143109D01*
X0028581Y0143201D01*
X0028637Y0143290D01*
X0028695Y0143377D01*
X0028757Y0143462D01*
X0028821Y0143545D01*
X0028889Y0143625D01*
X0028960Y0143702D01*
X0029034Y0143776D01*
X0029111Y0143848D01*
X0029190Y0143917D01*
X0029272Y0143982D01*
X0029356Y0144045D01*
X0029443Y0144104D01*
X0029532Y0144160D01*
X0029623Y0144213D01*
X0029716Y0144262D01*
X0029810Y0144307D01*
X0029906Y0144349D01*
X0030004Y0144387D01*
X0030103Y0144421D01*
X0030204Y0144452D01*
X0030305Y0144478D01*
X0030408Y0144501D01*
X0030511Y0144520D01*
X0030615Y0144535D01*
X0030719Y0144546D01*
X0030824Y0144553D01*
X0030929Y0144556D01*
X0031034Y0144555D01*
X0031139Y0144550D01*
X0031243Y0144541D01*
X0031347Y0144528D01*
X0031451Y0144511D01*
X0031554Y0144490D01*
X0031656Y0144465D01*
X0031757Y0144437D01*
X0031856Y0144404D01*
X0031955Y0144368D01*
X0032052Y0144328D01*
X0032147Y0144285D01*
X0032241Y0144237D01*
X0032333Y0144187D01*
X0032423Y0144133D01*
X0032511Y0144075D01*
X0032596Y0144014D01*
X0032679Y0143950D01*
X0032760Y0143883D01*
X0032838Y0143813D01*
X0032913Y0143739D01*
X0032985Y0143664D01*
X0033055Y0143585D01*
X0033121Y0143504D01*
X0033185Y0143420D01*
X0033245Y0143334D01*
X0033301Y0143246D01*
X0033355Y0143155D01*
X0033405Y0143063D01*
X0033451Y0142969D01*
X0033494Y0142873D01*
X0033533Y0142775D01*
X0033568Y0142677D01*
X0033599Y0142576D01*
X0033627Y0142475D01*
X0033651Y0142373D01*
X0033671Y0142270D01*
X0033687Y0142166D01*
X0033699Y0142062D01*
X0033707Y0141957D01*
X0033711Y0141852D01*
X0033711Y0141748D01*
X0033707Y0141643D01*
X0033699Y0141538D01*
X0033687Y0141434D01*
X0033671Y0141330D01*
X0033651Y0141227D01*
X0033627Y0141125D01*
X0033599Y0141024D01*
X0033568Y0140923D01*
X0033533Y0140825D01*
X0033494Y0140727D01*
X0033451Y0140631D01*
X0033405Y0140537D01*
X0033355Y0140445D01*
X0033301Y0140354D01*
X0033245Y0140266D01*
X0033185Y0140180D01*
X0033121Y0140096D01*
X0033055Y0140015D01*
X0032985Y0139936D01*
X0032913Y0139861D01*
X0032838Y0139787D01*
X0032760Y0139717D01*
X0032679Y0139650D01*
X0032596Y0139586D01*
X0032511Y0139525D01*
X0032423Y0139467D01*
X0032333Y0139413D01*
X0032241Y0139363D01*
X0032147Y0139315D01*
X0032052Y0139272D01*
X0031955Y0139232D01*
X0031856Y0139196D01*
X0031757Y0139163D01*
X0031656Y0139135D01*
X0031554Y0139110D01*
X0031451Y0139089D01*
X0031347Y0139072D01*
X0031243Y0139059D01*
X0031139Y0139050D01*
X0031034Y0139045D01*
X0030929Y0139044D01*
X0030824Y0139047D01*
X0030719Y0139054D01*
X0030615Y0139065D01*
X0030511Y0139080D01*
X0030408Y0139099D01*
X0030305Y0139122D01*
X0030204Y0139148D01*
X0030103Y0139179D01*
X0030004Y0139213D01*
X0029906Y0139251D01*
X0029810Y0139293D01*
X0029716Y0139338D01*
X0029623Y0139387D01*
X0029532Y0139440D01*
X0029443Y0139496D01*
X0029356Y0139555D01*
X0029272Y0139618D01*
X0029190Y0139683D01*
X0029111Y0139752D01*
X0029034Y0139824D01*
X0028960Y0139898D01*
X0028889Y0139975D01*
X0028821Y0140055D01*
X0028757Y0140138D01*
X0028695Y0140223D01*
X0028637Y0140310D01*
X0028581Y0140399D01*
X0028530Y0140491D01*
X0028482Y0140584D01*
X0028437Y0140679D01*
X0028396Y0140776D01*
X0028359Y0140874D01*
X0028326Y0140973D01*
X0028296Y0141074D01*
X0028271Y0141176D01*
X0028249Y0141278D01*
X0028231Y0141382D01*
X0028217Y0141486D01*
X0028207Y0141590D01*
X0028201Y0141695D01*
X0028199Y0141800D01*
D11*
X0128455Y0091900D02*
X0128455Y0086700D01*
X0138455Y0086700D02*
X0138455Y0091900D01*
X0148455Y0091900D02*
X0148455Y0086700D01*
X0158455Y0086700D02*
X0158455Y0091900D01*
X0158455Y0061900D02*
X0158455Y0056700D01*
X0148455Y0056700D02*
X0148455Y0061900D01*
X0138455Y0061900D02*
X0138455Y0056700D01*
X0128455Y0056700D02*
X0128455Y0061900D01*
D12*
X0080955Y0064261D03*
X0070955Y0068749D03*
X0060955Y0064261D03*
X0070955Y0059733D03*
X0060955Y0055245D03*
X0080955Y0055245D03*
X0080955Y0073276D03*
X0070955Y0077765D03*
X0060955Y0073276D03*
X0060955Y0082292D03*
X0070955Y0086780D03*
X0060955Y0091308D03*
X0070955Y0095796D03*
X0080955Y0091308D03*
X0080955Y0082292D03*
X0205955Y0082292D03*
X0215955Y0086780D03*
X0225955Y0082292D03*
X0215955Y0077765D03*
X0225955Y0073276D03*
X0215955Y0068749D03*
X0225955Y0064261D03*
X0215955Y0059733D03*
X0225955Y0055245D03*
X0205955Y0055245D03*
X0205955Y0064261D03*
X0205955Y0073276D03*
X0205955Y0091308D03*
X0215955Y0095796D03*
X0225955Y0091308D03*
D13*
X0215955Y0123513D03*
X0070955Y0123513D03*
X0070955Y0025087D03*
X0215955Y0025087D03*
D14*
X0195955Y0036800D03*
X0175955Y0036800D03*
X0168455Y0036800D03*
X0148455Y0036800D03*
X0140955Y0036800D03*
X0120955Y0036800D03*
X0113455Y0036800D03*
X0093455Y0036800D03*
X0183455Y0064300D03*
X0183455Y0084300D03*
X0188455Y0104300D03*
X0168455Y0104300D03*
X0153455Y0104300D03*
X0133455Y0104300D03*
X0118455Y0104300D03*
X0098455Y0104300D03*
D15*
X0126270Y0126879D03*
X0134144Y0126879D03*
X0142018Y0126879D03*
X0149892Y0126879D03*
X0157766Y0126879D03*
X0165640Y0126879D03*
X0165640Y0136721D03*
X0157766Y0136721D03*
X0149892Y0136721D03*
X0142018Y0136721D03*
X0134144Y0136721D03*
X0126270Y0136721D03*
D16*
X0119971Y0142824D03*
X0171939Y0120776D03*
D17*
X0157766Y0126879D02*
X0157205Y0126800D01*
X0144705Y0114300D01*
X0102830Y0114300D01*
X0110955Y0121800D02*
X0144705Y0121800D01*
X0149705Y0126800D01*
X0149892Y0126879D01*
X0152205Y0131175D02*
X0113455Y0131175D01*
X0152205Y0131175D02*
X0157205Y0136175D01*
X0157766Y0136721D01*
X0149705Y0108675D02*
X0149393Y0108362D01*
X0149080Y0108675D01*
X0122830Y0108675D01*
X0118455Y0104300D01*
X0128455Y0089300D02*
X0135330Y0096175D01*
X0201580Y0096175D01*
X0205955Y0091800D01*
X0205955Y0091308D01*
X0199080Y0089300D02*
X0158455Y0089300D01*
X0145330Y0082425D02*
X0181580Y0082425D01*
X0183455Y0084300D01*
X0199080Y0089300D02*
X0205955Y0082425D01*
X0205955Y0082292D01*
X0215955Y0086780D02*
X0215955Y0086800D01*
X0220955Y0086800D01*
X0220955Y0098050D01*
X0217830Y0101175D01*
X0214080Y0101175D01*
X0212830Y0099925D01*
X0097205Y0099925D01*
X0095955Y0101175D01*
X0065955Y0101175D01*
X0065955Y0091800D01*
X0070955Y0086800D01*
X0070955Y0086780D01*
X0060955Y0082292D02*
X0060955Y0081800D01*
X0054080Y0074925D01*
X0054080Y0041175D01*
X0103455Y0041175D01*
X0112205Y0032425D01*
X0207205Y0032425D01*
X0217205Y0042425D01*
X0223455Y0042425D01*
X0232830Y0051800D01*
X0232830Y0081800D01*
X0225955Y0081800D01*
X0225955Y0082292D01*
X0225955Y0073276D02*
X0225955Y0073050D01*
X0230955Y0073050D01*
X0230955Y0053050D01*
X0222205Y0044300D01*
X0055955Y0044300D01*
X0055955Y0068050D01*
X0060955Y0073050D01*
X0060955Y0073276D01*
X0060955Y0064261D02*
X0060955Y0063675D01*
X0065955Y0058675D01*
X0065955Y0048050D01*
X0211580Y0048050D01*
X0225955Y0062425D01*
X0225955Y0064261D01*
X0215955Y0059733D02*
X0215955Y0058050D01*
X0207830Y0049925D01*
X0070955Y0049925D01*
X0070955Y0059733D01*
X0060955Y0055245D02*
X0060955Y0046175D01*
X0217205Y0046175D01*
X0225955Y0054925D01*
X0225955Y0055245D01*
X0205955Y0055245D02*
X0205955Y0054925D01*
X0203455Y0052425D01*
X0083455Y0052425D01*
X0080955Y0054925D01*
X0080955Y0055245D01*
X0080955Y0064261D02*
X0080955Y0064300D01*
X0085330Y0068675D01*
X0201580Y0068675D01*
X0205955Y0064300D01*
X0205955Y0064261D01*
X0191580Y0041175D02*
X0164705Y0041175D01*
X0164393Y0040863D01*
X0168455Y0036800D01*
X0164393Y0040863D02*
X0164080Y0041175D01*
X0137205Y0041175D01*
X0136893Y0040863D01*
X0136580Y0041175D01*
X0117830Y0041175D01*
X0113455Y0036800D01*
X0136893Y0040863D02*
X0140955Y0036800D01*
X0115955Y0059300D02*
X0114705Y0058050D01*
X0115955Y0059300D02*
X0128455Y0059300D01*
X0145330Y0082425D02*
X0138455Y0089300D01*
X0153455Y0104300D02*
X0149393Y0108362D01*
X0149705Y0108675D02*
X0184080Y0108675D01*
X0188455Y0104300D01*
X0211580Y0110550D02*
X0225955Y0096175D01*
X0225955Y0091308D01*
X0215955Y0095796D02*
X0215955Y0096175D01*
X0214080Y0098050D01*
X0072830Y0098050D01*
X0070955Y0096175D01*
X0070955Y0095796D01*
X0060955Y0091308D02*
X0060955Y0110550D01*
X0211580Y0110550D01*
X0191580Y0041175D02*
X0195955Y0036800D01*
X0215955Y0025087D02*
X0215955Y0024925D01*
X0070955Y0024925D01*
X0070955Y0025087D01*
D18*
X0114705Y0058050D03*
X0102830Y0114300D03*
X0110955Y0121800D03*
X0113455Y0131175D03*
D19*
X0109898Y0131995D02*
X0079161Y0131995D01*
X0078830Y0132325D02*
X0077794Y0133151D01*
X0076672Y0133856D01*
X0075478Y0134432D01*
X0074227Y0134869D01*
X0072935Y0135164D01*
X0071755Y0135297D01*
X0071755Y0124313D01*
X0070155Y0124313D01*
X0070155Y0135297D01*
X0068975Y0135164D01*
X0067683Y0134869D01*
X0066432Y0134432D01*
X0065238Y0133856D01*
X0064116Y0133151D01*
X0063080Y0132325D01*
X0062143Y0131388D01*
X0061316Y0130352D01*
X0060611Y0129229D01*
X0060036Y0128035D01*
X0059598Y0126784D01*
X0059304Y0125492D01*
X0059171Y0124313D01*
X0070155Y0124313D01*
X0070155Y0122713D01*
X0059171Y0122713D01*
X0059304Y0121533D01*
X0059598Y0120241D01*
X0060036Y0118990D01*
X0060611Y0117796D01*
X0061316Y0116674D01*
X0062143Y0115637D01*
X0063080Y0114700D01*
X0064116Y0113874D01*
X0065238Y0113169D01*
X0066315Y0112650D01*
X0060085Y0112650D01*
X0058855Y0111420D01*
X0058855Y0096175D01*
X0057953Y0095801D01*
X0056462Y0094310D01*
X0055655Y0092362D01*
X0055655Y0090254D01*
X0056462Y0088306D01*
X0057953Y0086815D01*
X0057989Y0086800D01*
X0057953Y0086785D01*
X0056462Y0085294D01*
X0055655Y0083346D01*
X0055655Y0081238D01*
X0056173Y0079988D01*
X0053210Y0077025D01*
X0051980Y0075795D01*
X0051980Y0040305D01*
X0053210Y0039075D01*
X0089790Y0039075D01*
X0089255Y0038540D01*
X0089255Y0035060D01*
X0091715Y0032600D01*
X0095195Y0032600D01*
X0097655Y0035060D01*
X0097655Y0038540D01*
X0097120Y0039075D01*
X0102585Y0039075D01*
X0110105Y0031555D01*
X0111335Y0030325D01*
X0205380Y0030325D01*
X0205036Y0029610D01*
X0204598Y0028359D01*
X0204304Y0027067D01*
X0204171Y0025887D01*
X0215155Y0025887D01*
X0215155Y0024287D01*
X0216755Y0024287D01*
X0216755Y0013303D01*
X0217935Y0013436D01*
X0219227Y0013731D01*
X0220478Y0014168D01*
X0221672Y0014743D01*
X0222794Y0015449D01*
X0223830Y0016275D01*
X0224768Y0017212D01*
X0225594Y0018248D01*
X0226299Y0019371D01*
X0226874Y0020565D01*
X0227312Y0021816D01*
X0227607Y0023108D01*
X0227740Y0024287D01*
X0216755Y0024287D01*
X0216755Y0025887D01*
X0227740Y0025887D01*
X0227607Y0027067D01*
X0227312Y0028359D01*
X0226874Y0029610D01*
X0226299Y0030804D01*
X0225594Y0031926D01*
X0224768Y0032963D01*
X0223830Y0033900D01*
X0222794Y0034726D01*
X0221672Y0035431D01*
X0220478Y0036006D01*
X0219227Y0036444D01*
X0217935Y0036739D01*
X0216755Y0036872D01*
X0216755Y0025887D01*
X0215155Y0025887D01*
X0215155Y0036872D01*
X0214554Y0036804D01*
X0218075Y0040325D01*
X0224325Y0040325D01*
X0233700Y0049700D01*
X0234930Y0050930D01*
X0234930Y0082670D01*
X0233700Y0083900D01*
X0231026Y0083900D01*
X0230448Y0085294D01*
X0228957Y0086785D01*
X0228922Y0086800D01*
X0228957Y0086815D01*
X0230448Y0088306D01*
X0231255Y0090254D01*
X0231255Y0092362D01*
X0230448Y0094310D01*
X0228957Y0095801D01*
X0228055Y0096175D01*
X0228055Y0097045D01*
X0226825Y0098275D01*
X0213021Y0112079D01*
X0213975Y0111861D01*
X0215155Y0111728D01*
X0215155Y0122713D01*
X0204171Y0122713D01*
X0204304Y0121533D01*
X0204598Y0120241D01*
X0205036Y0118990D01*
X0205611Y0117796D01*
X0206316Y0116674D01*
X0207143Y0115637D01*
X0208080Y0114700D01*
X0209116Y0113874D01*
X0210238Y0113169D01*
X0211315Y0112650D01*
X0146025Y0112650D01*
X0146805Y0113430D01*
X0156330Y0122955D01*
X0156936Y0122704D01*
X0158597Y0122704D01*
X0160131Y0123340D01*
X0161305Y0124514D01*
X0161703Y0125474D01*
X0162101Y0124514D01*
X0163275Y0123340D01*
X0164810Y0122704D01*
X0166471Y0122704D01*
X0167123Y0122974D01*
X0166648Y0121829D01*
X0166648Y0119724D01*
X0167454Y0117779D01*
X0168942Y0116291D01*
X0170887Y0115485D01*
X0172992Y0115485D01*
X0174936Y0116291D01*
X0176425Y0117779D01*
X0177230Y0119724D01*
X0177230Y0121829D01*
X0176425Y0123773D01*
X0174936Y0125262D01*
X0172992Y0126067D01*
X0170887Y0126067D01*
X0169602Y0125535D01*
X0169815Y0126048D01*
X0169815Y0127709D01*
X0169179Y0129244D01*
X0168005Y0130418D01*
X0166471Y0131054D01*
X0164810Y0131054D01*
X0163275Y0130418D01*
X0162101Y0129244D01*
X0161703Y0128283D01*
X0161305Y0129244D01*
X0160131Y0130418D01*
X0158597Y0131054D01*
X0156936Y0131054D01*
X0155401Y0130418D01*
X0154227Y0129244D01*
X0153829Y0128283D01*
X0153431Y0129244D01*
X0153337Y0129337D01*
X0154305Y0130305D01*
X0156660Y0132660D01*
X0156936Y0132546D01*
X0158597Y0132546D01*
X0160131Y0133182D01*
X0161305Y0134356D01*
X0161703Y0135317D01*
X0162101Y0134356D01*
X0163275Y0133182D01*
X0164810Y0132546D01*
X0166471Y0132546D01*
X0168005Y0133182D01*
X0169179Y0134356D01*
X0169815Y0135891D01*
X0169815Y0137552D01*
X0169179Y0139086D01*
X0168005Y0140260D01*
X0166471Y0140896D01*
X0164810Y0140896D01*
X0163275Y0140260D01*
X0162101Y0139086D01*
X0161703Y0138126D01*
X0161305Y0139086D01*
X0160131Y0140260D01*
X0158597Y0140896D01*
X0156936Y0140896D01*
X0155401Y0140260D01*
X0154227Y0139086D01*
X0153829Y0138126D01*
X0153431Y0139086D01*
X0152257Y0140260D01*
X0150723Y0140896D01*
X0149062Y0140896D01*
X0147527Y0140260D01*
X0146353Y0139086D01*
X0145955Y0138126D01*
X0145557Y0139086D01*
X0144383Y0140260D01*
X0142849Y0140896D01*
X0141188Y0140896D01*
X0139653Y0140260D01*
X0138479Y0139086D01*
X0138081Y0138126D01*
X0137683Y0139086D01*
X0136509Y0140260D01*
X0134975Y0140896D01*
X0133314Y0140896D01*
X0131779Y0140260D01*
X0130605Y0139086D01*
X0130207Y0138126D01*
X0129809Y0139086D01*
X0128635Y0140260D01*
X0127100Y0140896D01*
X0125440Y0140896D01*
X0124787Y0140626D01*
X0125262Y0141771D01*
X0125262Y0143201D01*
X0248399Y0143201D01*
X0248399Y0140297D01*
X0249550Y0137520D01*
X0251675Y0135394D01*
X0254452Y0134244D01*
X0256076Y0134244D01*
X0256076Y0014356D01*
X0254452Y0014356D01*
X0251675Y0013206D01*
X0249550Y0011080D01*
X0248399Y0008303D01*
X0248399Y0006600D01*
X0038511Y0006600D01*
X0038511Y0008303D01*
X0037361Y0011080D01*
X0035235Y0013206D01*
X0032458Y0014356D01*
X0030755Y0014356D01*
X0030755Y0134244D01*
X0032458Y0134244D01*
X0035235Y0135394D01*
X0037361Y0137520D01*
X0038511Y0140297D01*
X0038511Y0143201D01*
X0114680Y0143201D01*
X0114680Y0141771D01*
X0115485Y0139827D01*
X0116974Y0138338D01*
X0118918Y0137533D01*
X0121023Y0137533D01*
X0122308Y0138065D01*
X0122095Y0137552D01*
X0122095Y0135891D01*
X0122731Y0134356D01*
X0123812Y0133275D01*
X0116446Y0133275D01*
X0115494Y0134227D01*
X0114171Y0134775D01*
X0112739Y0134775D01*
X0111416Y0134227D01*
X0110403Y0133214D01*
X0109855Y0131891D01*
X0109855Y0130459D01*
X0110403Y0129136D01*
X0111416Y0128123D01*
X0112739Y0127575D01*
X0114171Y0127575D01*
X0115494Y0128123D01*
X0116446Y0129075D01*
X0122661Y0129075D01*
X0122095Y0127709D01*
X0122095Y0126048D01*
X0122731Y0124514D01*
X0123345Y0123900D01*
X0113946Y0123900D01*
X0112994Y0124852D01*
X0111671Y0125400D01*
X0110239Y0125400D01*
X0108916Y0124852D01*
X0107903Y0123839D01*
X0107355Y0122516D01*
X0107355Y0121084D01*
X0107903Y0119761D01*
X0108916Y0118748D01*
X0110239Y0118200D01*
X0111671Y0118200D01*
X0112994Y0118748D01*
X0113946Y0119700D01*
X0145575Y0119700D01*
X0146805Y0120930D01*
X0148720Y0122845D01*
X0149062Y0122704D01*
X0150139Y0122704D01*
X0143835Y0116400D01*
X0105821Y0116400D01*
X0104869Y0117352D01*
X0103546Y0117900D01*
X0102114Y0117900D01*
X0100791Y0117352D01*
X0099778Y0116339D01*
X0099230Y0115016D01*
X0099230Y0113584D01*
X0099617Y0112650D01*
X0075595Y0112650D01*
X0076672Y0113169D01*
X0077794Y0113874D01*
X0078830Y0114700D01*
X0079768Y0115637D01*
X0080594Y0116674D01*
X0081299Y0117796D01*
X0081874Y0118990D01*
X0082312Y0120241D01*
X0082607Y0121533D01*
X0082740Y0122713D01*
X0071755Y0122713D01*
X0071755Y0124313D01*
X0082740Y0124313D01*
X0082607Y0125492D01*
X0082312Y0126784D01*
X0081874Y0128035D01*
X0081299Y0129229D01*
X0080594Y0130352D01*
X0079768Y0131388D01*
X0078830Y0132325D01*
X0077091Y0133593D02*
X0110782Y0133593D01*
X0116128Y0133593D02*
X0123494Y0133593D01*
X0122385Y0135192D02*
X0072689Y0135192D01*
X0071755Y0135192D02*
X0070155Y0135192D01*
X0069221Y0135192D02*
X0034746Y0135192D01*
X0036631Y0136790D02*
X0122095Y0136790D01*
X0116923Y0138389D02*
X0037721Y0138389D01*
X0038383Y0139987D02*
X0115419Y0139987D01*
X0114757Y0141586D02*
X0038511Y0141586D01*
X0038511Y0143184D02*
X0114680Y0143184D01*
X0125262Y0143184D02*
X0248399Y0143184D01*
X0248399Y0141586D02*
X0125185Y0141586D01*
X0128908Y0139987D02*
X0131506Y0139987D01*
X0130316Y0138389D02*
X0130098Y0138389D01*
X0136782Y0139987D02*
X0139380Y0139987D01*
X0138190Y0138389D02*
X0137972Y0138389D01*
X0144656Y0139987D02*
X0147254Y0139987D01*
X0146064Y0138389D02*
X0145846Y0138389D01*
X0152530Y0139987D02*
X0155128Y0139987D01*
X0153938Y0138389D02*
X0153720Y0138389D01*
X0160404Y0139987D02*
X0163002Y0139987D01*
X0161812Y0138389D02*
X0161594Y0138389D01*
X0161651Y0135192D02*
X0161755Y0135192D01*
X0162864Y0133593D02*
X0160542Y0133593D01*
X0155995Y0131995D02*
X0207750Y0131995D01*
X0208080Y0132325D02*
X0207143Y0131388D01*
X0206316Y0130352D01*
X0205611Y0129229D01*
X0205036Y0128035D01*
X0204598Y0126784D01*
X0204304Y0125492D01*
X0204171Y0124313D01*
X0215155Y0124313D01*
X0215155Y0135297D01*
X0213975Y0135164D01*
X0212683Y0134869D01*
X0211432Y0134432D01*
X0210238Y0133856D01*
X0209116Y0133151D01*
X0208080Y0132325D01*
X0209819Y0133593D02*
X0168416Y0133593D01*
X0169525Y0135192D02*
X0214221Y0135192D01*
X0215155Y0135192D02*
X0216755Y0135192D01*
X0216755Y0135297D02*
X0216755Y0124313D01*
X0215155Y0124313D01*
X0215155Y0122713D01*
X0216755Y0122713D01*
X0216755Y0124313D01*
X0227740Y0124313D01*
X0227607Y0125492D01*
X0227312Y0126784D01*
X0226874Y0128035D01*
X0226299Y0129229D01*
X0225594Y0130352D01*
X0224768Y0131388D01*
X0223830Y0132325D01*
X0222794Y0133151D01*
X0221672Y0133856D01*
X0220478Y0134432D01*
X0219227Y0134869D01*
X0217935Y0135164D01*
X0216755Y0135297D01*
X0217689Y0135192D02*
X0252164Y0135192D01*
X0250279Y0136790D02*
X0169815Y0136790D01*
X0169468Y0138389D02*
X0249190Y0138389D01*
X0248527Y0139987D02*
X0168278Y0139987D01*
X0168027Y0130396D02*
X0206352Y0130396D01*
X0205403Y0128798D02*
X0169364Y0128798D01*
X0169815Y0127199D02*
X0204744Y0127199D01*
X0204328Y0125601D02*
X0174118Y0125601D01*
X0176196Y0124002D02*
X0215155Y0124002D01*
X0215155Y0122404D02*
X0216755Y0122404D01*
X0216755Y0122713D02*
X0216755Y0111728D01*
X0217935Y0111861D01*
X0219227Y0112156D01*
X0220478Y0112594D01*
X0221672Y0113169D01*
X0222794Y0113874D01*
X0223830Y0114700D01*
X0224768Y0115637D01*
X0225594Y0116674D01*
X0226299Y0117796D01*
X0226874Y0118990D01*
X0227312Y0120241D01*
X0227607Y0121533D01*
X0227740Y0122713D01*
X0216755Y0122713D01*
X0216755Y0124002D02*
X0256076Y0124002D01*
X0256076Y0122404D02*
X0227705Y0122404D01*
X0227441Y0120805D02*
X0256076Y0120805D01*
X0256076Y0119207D02*
X0226950Y0119207D01*
X0226181Y0117608D02*
X0256076Y0117608D01*
X0256076Y0116010D02*
X0225065Y0116010D01*
X0223468Y0114411D02*
X0256076Y0114411D01*
X0256076Y0112813D02*
X0220933Y0112813D01*
X0216755Y0112813D02*
X0215155Y0112813D01*
X0215155Y0114411D02*
X0216755Y0114411D01*
X0216755Y0116010D02*
X0215155Y0116010D01*
X0215155Y0117608D02*
X0216755Y0117608D01*
X0216755Y0119207D02*
X0215155Y0119207D01*
X0215155Y0120805D02*
X0216755Y0120805D01*
X0216755Y0125601D02*
X0215155Y0125601D01*
X0215155Y0127199D02*
X0216755Y0127199D01*
X0216755Y0128798D02*
X0215155Y0128798D01*
X0215155Y0130396D02*
X0216755Y0130396D01*
X0216755Y0131995D02*
X0215155Y0131995D01*
X0215155Y0133593D02*
X0216755Y0133593D01*
X0222091Y0133593D02*
X0256076Y0133593D01*
X0256076Y0131995D02*
X0224161Y0131995D01*
X0225558Y0130396D02*
X0256076Y0130396D01*
X0256076Y0128798D02*
X0226507Y0128798D01*
X0227167Y0127199D02*
X0256076Y0127199D01*
X0256076Y0125601D02*
X0227582Y0125601D01*
X0208442Y0114411D02*
X0147786Y0114411D01*
X0146188Y0112813D02*
X0210977Y0112813D01*
X0213886Y0111214D02*
X0256076Y0111214D01*
X0256076Y0109616D02*
X0215484Y0109616D01*
X0217083Y0108017D02*
X0256076Y0108017D01*
X0256076Y0106419D02*
X0218681Y0106419D01*
X0220280Y0104820D02*
X0256076Y0104820D01*
X0256076Y0103222D02*
X0221878Y0103222D01*
X0223477Y0101623D02*
X0256076Y0101623D01*
X0256076Y0100025D02*
X0225075Y0100025D01*
X0226674Y0098426D02*
X0256076Y0098426D01*
X0256076Y0096828D02*
X0228055Y0096828D01*
X0229529Y0095229D02*
X0256076Y0095229D01*
X0256076Y0093631D02*
X0230730Y0093631D01*
X0231255Y0092032D02*
X0256076Y0092032D01*
X0256076Y0090434D02*
X0231255Y0090434D01*
X0230667Y0088835D02*
X0256076Y0088835D01*
X0256076Y0087237D02*
X0229379Y0087237D01*
X0230105Y0085638D02*
X0256076Y0085638D01*
X0256076Y0084039D02*
X0230968Y0084039D01*
X0234930Y0082441D02*
X0256076Y0082441D01*
X0256076Y0080842D02*
X0234930Y0080842D01*
X0234930Y0079244D02*
X0256076Y0079244D01*
X0256076Y0077645D02*
X0234930Y0077645D01*
X0234930Y0076047D02*
X0256076Y0076047D01*
X0256076Y0074448D02*
X0234930Y0074448D01*
X0234930Y0072850D02*
X0256076Y0072850D01*
X0256076Y0071251D02*
X0234930Y0071251D01*
X0234930Y0069653D02*
X0256076Y0069653D01*
X0256076Y0068054D02*
X0234930Y0068054D01*
X0234930Y0066456D02*
X0256076Y0066456D01*
X0256076Y0064857D02*
X0234930Y0064857D01*
X0234930Y0063259D02*
X0256076Y0063259D01*
X0256076Y0061660D02*
X0234930Y0061660D01*
X0234930Y0060062D02*
X0256076Y0060062D01*
X0256076Y0058463D02*
X0234930Y0058463D01*
X0234930Y0056865D02*
X0256076Y0056865D01*
X0256076Y0055266D02*
X0234930Y0055266D01*
X0234930Y0053668D02*
X0256076Y0053668D01*
X0256076Y0052069D02*
X0234930Y0052069D01*
X0234471Y0050471D02*
X0256076Y0050471D01*
X0256076Y0048872D02*
X0232872Y0048872D01*
X0231274Y0047274D02*
X0256076Y0047274D01*
X0256076Y0045675D02*
X0229675Y0045675D01*
X0228077Y0044077D02*
X0256076Y0044077D01*
X0256076Y0042478D02*
X0226478Y0042478D01*
X0224880Y0040880D02*
X0256076Y0040880D01*
X0256076Y0039281D02*
X0217031Y0039281D01*
X0215433Y0037683D02*
X0256076Y0037683D01*
X0256076Y0036084D02*
X0220256Y0036084D01*
X0223096Y0034486D02*
X0256076Y0034486D01*
X0256076Y0032887D02*
X0224828Y0032887D01*
X0225995Y0031289D02*
X0256076Y0031289D01*
X0256076Y0029690D02*
X0226836Y0029690D01*
X0227373Y0028092D02*
X0256076Y0028092D01*
X0256076Y0026493D02*
X0227671Y0026493D01*
X0227628Y0023296D02*
X0256076Y0023296D01*
X0256076Y0021698D02*
X0227270Y0021698D01*
X0226650Y0020099D02*
X0256076Y0020099D01*
X0256076Y0018501D02*
X0225752Y0018501D01*
X0224457Y0016902D02*
X0256076Y0016902D01*
X0256076Y0015303D02*
X0222563Y0015303D01*
X0219114Y0013705D02*
X0252881Y0013705D01*
X0250576Y0012106D02*
X0036334Y0012106D01*
X0037598Y0010508D02*
X0249313Y0010508D01*
X0248650Y0008909D02*
X0038260Y0008909D01*
X0038511Y0007311D02*
X0248399Y0007311D01*
X0216755Y0013705D02*
X0215155Y0013705D01*
X0215155Y0013303D02*
X0215155Y0024287D01*
X0204171Y0024287D01*
X0204304Y0023108D01*
X0204598Y0021816D01*
X0205036Y0020565D01*
X0205611Y0019371D01*
X0206316Y0018248D01*
X0207143Y0017212D01*
X0208080Y0016275D01*
X0209116Y0015449D01*
X0210238Y0014743D01*
X0211432Y0014168D01*
X0212683Y0013731D01*
X0213975Y0013436D01*
X0215155Y0013303D01*
X0212796Y0013705D02*
X0074114Y0013705D01*
X0074227Y0013731D02*
X0075478Y0014168D01*
X0076672Y0014743D01*
X0077794Y0015449D01*
X0078830Y0016275D01*
X0079768Y0017212D01*
X0080594Y0018248D01*
X0081299Y0019371D01*
X0081874Y0020565D01*
X0082312Y0021816D01*
X0082607Y0023108D01*
X0082740Y0024287D01*
X0071755Y0024287D01*
X0071755Y0013303D01*
X0072935Y0013436D01*
X0074227Y0013731D01*
X0071755Y0013705D02*
X0070155Y0013705D01*
X0070155Y0013303D02*
X0070155Y0024287D01*
X0071755Y0024287D01*
X0071755Y0025887D01*
X0082740Y0025887D01*
X0082607Y0027067D01*
X0082312Y0028359D01*
X0081874Y0029610D01*
X0081299Y0030804D01*
X0080594Y0031926D01*
X0079768Y0032963D01*
X0078830Y0033900D01*
X0077794Y0034726D01*
X0076672Y0035431D01*
X0075478Y0036006D01*
X0074227Y0036444D01*
X0072935Y0036739D01*
X0071755Y0036872D01*
X0071755Y0025887D01*
X0070155Y0025887D01*
X0070155Y0024287D01*
X0059171Y0024287D01*
X0059304Y0023108D01*
X0059598Y0021816D01*
X0060036Y0020565D01*
X0060611Y0019371D01*
X0061316Y0018248D01*
X0062143Y0017212D01*
X0063080Y0016275D01*
X0064116Y0015449D01*
X0065238Y0014743D01*
X0066432Y0014168D01*
X0067683Y0013731D01*
X0068975Y0013436D01*
X0070155Y0013303D01*
X0067796Y0013705D02*
X0034030Y0013705D01*
X0030755Y0015303D02*
X0064347Y0015303D01*
X0062453Y0016902D02*
X0030755Y0016902D01*
X0030755Y0018501D02*
X0061158Y0018501D01*
X0060260Y0020099D02*
X0030755Y0020099D01*
X0030755Y0021698D02*
X0059640Y0021698D01*
X0059282Y0023296D02*
X0030755Y0023296D01*
X0030755Y0024895D02*
X0070155Y0024895D01*
X0070155Y0025887D02*
X0059171Y0025887D01*
X0059304Y0027067D01*
X0059598Y0028359D01*
X0060036Y0029610D01*
X0060611Y0030804D01*
X0061316Y0031926D01*
X0062143Y0032963D01*
X0063080Y0033900D01*
X0064116Y0034726D01*
X0065238Y0035431D01*
X0066432Y0036006D01*
X0067683Y0036444D01*
X0068975Y0036739D01*
X0070155Y0036872D01*
X0070155Y0025887D01*
X0070155Y0026493D02*
X0071755Y0026493D01*
X0071755Y0024895D02*
X0215155Y0024895D01*
X0215155Y0026493D02*
X0216755Y0026493D01*
X0216755Y0024895D02*
X0256076Y0024895D01*
X0216755Y0023296D02*
X0215155Y0023296D01*
X0215155Y0021698D02*
X0216755Y0021698D01*
X0216755Y0020099D02*
X0215155Y0020099D01*
X0215155Y0018501D02*
X0216755Y0018501D01*
X0216755Y0016902D02*
X0215155Y0016902D01*
X0215155Y0015303D02*
X0216755Y0015303D01*
X0209347Y0015303D02*
X0077563Y0015303D01*
X0079457Y0016902D02*
X0207453Y0016902D01*
X0206158Y0018501D02*
X0080752Y0018501D01*
X0081650Y0020099D02*
X0205260Y0020099D01*
X0204640Y0021698D02*
X0082270Y0021698D01*
X0082628Y0023296D02*
X0204282Y0023296D01*
X0204239Y0026493D02*
X0082671Y0026493D01*
X0082373Y0028092D02*
X0204537Y0028092D01*
X0205075Y0029690D02*
X0081836Y0029690D01*
X0080995Y0031289D02*
X0110372Y0031289D01*
X0108773Y0032887D02*
X0095482Y0032887D01*
X0097080Y0034486D02*
X0107175Y0034486D01*
X0105576Y0036084D02*
X0097655Y0036084D01*
X0097655Y0037683D02*
X0103978Y0037683D01*
X0091428Y0032887D02*
X0079828Y0032887D01*
X0078096Y0034486D02*
X0089830Y0034486D01*
X0089255Y0036084D02*
X0075256Y0036084D01*
X0071755Y0036084D02*
X0070155Y0036084D01*
X0070155Y0034486D02*
X0071755Y0034486D01*
X0071755Y0032887D02*
X0070155Y0032887D01*
X0070155Y0031289D02*
X0071755Y0031289D01*
X0071755Y0029690D02*
X0070155Y0029690D01*
X0070155Y0028092D02*
X0071755Y0028092D01*
X0071755Y0023296D02*
X0070155Y0023296D01*
X0070155Y0021698D02*
X0071755Y0021698D01*
X0071755Y0020099D02*
X0070155Y0020099D01*
X0070155Y0018501D02*
X0071755Y0018501D01*
X0071755Y0016902D02*
X0070155Y0016902D01*
X0070155Y0015303D02*
X0071755Y0015303D01*
X0059239Y0026493D02*
X0030755Y0026493D01*
X0030755Y0028092D02*
X0059537Y0028092D01*
X0060075Y0029690D02*
X0030755Y0029690D01*
X0030755Y0031289D02*
X0060916Y0031289D01*
X0062082Y0032887D02*
X0030755Y0032887D01*
X0030755Y0034486D02*
X0063814Y0034486D01*
X0066655Y0036084D02*
X0030755Y0036084D01*
X0030755Y0037683D02*
X0089255Y0037683D01*
X0053004Y0039281D02*
X0030755Y0039281D01*
X0030755Y0040880D02*
X0051980Y0040880D01*
X0051980Y0042478D02*
X0030755Y0042478D01*
X0030755Y0044077D02*
X0051980Y0044077D01*
X0051980Y0045675D02*
X0030755Y0045675D01*
X0030755Y0047274D02*
X0051980Y0047274D01*
X0051980Y0048872D02*
X0030755Y0048872D01*
X0030755Y0050471D02*
X0051980Y0050471D01*
X0051980Y0052069D02*
X0030755Y0052069D01*
X0030755Y0053668D02*
X0051980Y0053668D01*
X0051980Y0055266D02*
X0030755Y0055266D01*
X0030755Y0056865D02*
X0051980Y0056865D01*
X0051980Y0058463D02*
X0030755Y0058463D01*
X0030755Y0060062D02*
X0051980Y0060062D01*
X0051980Y0061660D02*
X0030755Y0061660D01*
X0030755Y0063259D02*
X0051980Y0063259D01*
X0051980Y0064857D02*
X0030755Y0064857D01*
X0030755Y0066456D02*
X0051980Y0066456D01*
X0051980Y0068054D02*
X0030755Y0068054D01*
X0030755Y0069653D02*
X0051980Y0069653D01*
X0051980Y0071251D02*
X0030755Y0071251D01*
X0030755Y0072850D02*
X0051980Y0072850D01*
X0051980Y0074448D02*
X0030755Y0074448D01*
X0030755Y0076047D02*
X0052232Y0076047D01*
X0053831Y0077645D02*
X0030755Y0077645D01*
X0030755Y0079244D02*
X0055429Y0079244D01*
X0055819Y0080842D02*
X0030755Y0080842D01*
X0030755Y0082441D02*
X0055655Y0082441D01*
X0055942Y0084039D02*
X0030755Y0084039D01*
X0030755Y0085638D02*
X0056806Y0085638D01*
X0057531Y0087237D02*
X0030755Y0087237D01*
X0030755Y0088835D02*
X0056243Y0088835D01*
X0055655Y0090434D02*
X0030755Y0090434D01*
X0030755Y0092032D02*
X0055655Y0092032D01*
X0056181Y0093631D02*
X0030755Y0093631D01*
X0030755Y0095229D02*
X0057381Y0095229D01*
X0058855Y0096828D02*
X0030755Y0096828D01*
X0030755Y0098426D02*
X0058855Y0098426D01*
X0058855Y0100025D02*
X0030755Y0100025D01*
X0030755Y0101623D02*
X0058855Y0101623D01*
X0058855Y0103222D02*
X0030755Y0103222D01*
X0030755Y0104820D02*
X0058855Y0104820D01*
X0058855Y0106419D02*
X0030755Y0106419D01*
X0030755Y0108017D02*
X0058855Y0108017D01*
X0058855Y0109616D02*
X0030755Y0109616D01*
X0030755Y0111214D02*
X0058855Y0111214D01*
X0063442Y0114411D02*
X0030755Y0114411D01*
X0030755Y0112813D02*
X0065977Y0112813D01*
X0061846Y0116010D02*
X0030755Y0116010D01*
X0030755Y0117608D02*
X0060729Y0117608D01*
X0059960Y0119207D02*
X0030755Y0119207D01*
X0030755Y0120805D02*
X0059470Y0120805D01*
X0059205Y0122404D02*
X0030755Y0122404D01*
X0030755Y0124002D02*
X0070155Y0124002D01*
X0070155Y0125601D02*
X0071755Y0125601D01*
X0071755Y0127199D02*
X0070155Y0127199D01*
X0070155Y0128798D02*
X0071755Y0128798D01*
X0071755Y0130396D02*
X0070155Y0130396D01*
X0070155Y0131995D02*
X0071755Y0131995D01*
X0071755Y0133593D02*
X0070155Y0133593D01*
X0064819Y0133593D02*
X0030755Y0133593D01*
X0030755Y0131995D02*
X0062750Y0131995D01*
X0061352Y0130396D02*
X0030755Y0130396D01*
X0030755Y0128798D02*
X0060403Y0128798D01*
X0059744Y0127199D02*
X0030755Y0127199D01*
X0030755Y0125601D02*
X0059328Y0125601D01*
X0071755Y0124002D02*
X0108066Y0124002D01*
X0107355Y0122404D02*
X0082705Y0122404D01*
X0082441Y0120805D02*
X0107471Y0120805D01*
X0108457Y0119207D02*
X0081950Y0119207D01*
X0081181Y0117608D02*
X0101410Y0117608D01*
X0099642Y0116010D02*
X0080065Y0116010D01*
X0078468Y0114411D02*
X0099230Y0114411D01*
X0099550Y0112813D02*
X0075933Y0112813D01*
X0082582Y0125601D02*
X0122281Y0125601D01*
X0122095Y0127199D02*
X0082167Y0127199D01*
X0081507Y0128798D02*
X0110741Y0128798D01*
X0109881Y0130396D02*
X0080558Y0130396D01*
X0104251Y0117608D02*
X0145044Y0117608D01*
X0146642Y0119207D02*
X0113453Y0119207D01*
X0113844Y0124002D02*
X0123242Y0124002D01*
X0122546Y0128798D02*
X0116169Y0128798D01*
X0146680Y0120805D02*
X0148241Y0120805D01*
X0148279Y0122404D02*
X0149839Y0122404D01*
X0154180Y0120805D02*
X0166648Y0120805D01*
X0166863Y0119207D02*
X0152582Y0119207D01*
X0150983Y0117608D02*
X0167625Y0117608D01*
X0169621Y0116010D02*
X0149385Y0116010D01*
X0155779Y0122404D02*
X0166887Y0122404D01*
X0169630Y0125601D02*
X0169761Y0125601D01*
X0176992Y0122404D02*
X0204205Y0122404D01*
X0204470Y0120805D02*
X0177230Y0120805D01*
X0177016Y0119207D02*
X0204960Y0119207D01*
X0205729Y0117608D02*
X0176254Y0117608D01*
X0174258Y0116010D02*
X0206846Y0116010D01*
X0162613Y0124002D02*
X0160794Y0124002D01*
X0161490Y0128798D02*
X0161916Y0128798D01*
X0163254Y0130396D02*
X0160153Y0130396D01*
X0155380Y0130396D02*
X0154396Y0130396D01*
X0154042Y0128798D02*
X0153616Y0128798D01*
X0215155Y0036084D02*
X0216755Y0036084D01*
X0216755Y0034486D02*
X0215155Y0034486D01*
X0215155Y0032887D02*
X0216755Y0032887D01*
X0216755Y0031289D02*
X0215155Y0031289D01*
X0215155Y0029690D02*
X0216755Y0029690D01*
X0216755Y0028092D02*
X0215155Y0028092D01*
M02*
