G75*
%MOIN*%
%OFA0B0*%
%FSLAX25Y25*%
%IPPOS*%
%LPD*%
%AMOC8*
5,1,8,0,0,1.08239X$1,22.5*
%
%ADD10C,0.00000*%
%ADD11C,0.00300*%
%ADD12C,0.00600*%
%ADD13C,0.00500*%
%ADD14R,0.04000X0.01500*%
%ADD15C,0.00200*%
%ADD16C,0.00400*%
%ADD17C,0.00394*%
%ADD18C,0.00787*%
%ADD19R,0.02000X0.07000*%
D10*
X0025955Y0001800D02*
X0025955Y0148001D01*
X0260876Y0148001D01*
X0260876Y0001800D01*
X0025955Y0001800D01*
X0028199Y0006800D02*
X0028201Y0006905D01*
X0028207Y0007010D01*
X0028217Y0007114D01*
X0028231Y0007218D01*
X0028249Y0007322D01*
X0028271Y0007424D01*
X0028296Y0007526D01*
X0028326Y0007627D01*
X0028359Y0007726D01*
X0028396Y0007824D01*
X0028437Y0007921D01*
X0028482Y0008016D01*
X0028530Y0008109D01*
X0028581Y0008201D01*
X0028637Y0008290D01*
X0028695Y0008377D01*
X0028757Y0008462D01*
X0028821Y0008545D01*
X0028889Y0008625D01*
X0028960Y0008702D01*
X0029034Y0008776D01*
X0029111Y0008848D01*
X0029190Y0008917D01*
X0029272Y0008982D01*
X0029356Y0009045D01*
X0029443Y0009104D01*
X0029532Y0009160D01*
X0029623Y0009213D01*
X0029716Y0009262D01*
X0029810Y0009307D01*
X0029906Y0009349D01*
X0030004Y0009387D01*
X0030103Y0009421D01*
X0030204Y0009452D01*
X0030305Y0009478D01*
X0030408Y0009501D01*
X0030511Y0009520D01*
X0030615Y0009535D01*
X0030719Y0009546D01*
X0030824Y0009553D01*
X0030929Y0009556D01*
X0031034Y0009555D01*
X0031139Y0009550D01*
X0031243Y0009541D01*
X0031347Y0009528D01*
X0031451Y0009511D01*
X0031554Y0009490D01*
X0031656Y0009465D01*
X0031757Y0009437D01*
X0031856Y0009404D01*
X0031955Y0009368D01*
X0032052Y0009328D01*
X0032147Y0009285D01*
X0032241Y0009237D01*
X0032333Y0009187D01*
X0032423Y0009133D01*
X0032511Y0009075D01*
X0032596Y0009014D01*
X0032679Y0008950D01*
X0032760Y0008883D01*
X0032838Y0008813D01*
X0032913Y0008739D01*
X0032985Y0008664D01*
X0033055Y0008585D01*
X0033121Y0008504D01*
X0033185Y0008420D01*
X0033245Y0008334D01*
X0033301Y0008246D01*
X0033355Y0008155D01*
X0033405Y0008063D01*
X0033451Y0007969D01*
X0033494Y0007873D01*
X0033533Y0007775D01*
X0033568Y0007677D01*
X0033599Y0007576D01*
X0033627Y0007475D01*
X0033651Y0007373D01*
X0033671Y0007270D01*
X0033687Y0007166D01*
X0033699Y0007062D01*
X0033707Y0006957D01*
X0033711Y0006852D01*
X0033711Y0006748D01*
X0033707Y0006643D01*
X0033699Y0006538D01*
X0033687Y0006434D01*
X0033671Y0006330D01*
X0033651Y0006227D01*
X0033627Y0006125D01*
X0033599Y0006024D01*
X0033568Y0005923D01*
X0033533Y0005825D01*
X0033494Y0005727D01*
X0033451Y0005631D01*
X0033405Y0005537D01*
X0033355Y0005445D01*
X0033301Y0005354D01*
X0033245Y0005266D01*
X0033185Y0005180D01*
X0033121Y0005096D01*
X0033055Y0005015D01*
X0032985Y0004936D01*
X0032913Y0004861D01*
X0032838Y0004787D01*
X0032760Y0004717D01*
X0032679Y0004650D01*
X0032596Y0004586D01*
X0032511Y0004525D01*
X0032423Y0004467D01*
X0032333Y0004413D01*
X0032241Y0004363D01*
X0032147Y0004315D01*
X0032052Y0004272D01*
X0031955Y0004232D01*
X0031856Y0004196D01*
X0031757Y0004163D01*
X0031656Y0004135D01*
X0031554Y0004110D01*
X0031451Y0004089D01*
X0031347Y0004072D01*
X0031243Y0004059D01*
X0031139Y0004050D01*
X0031034Y0004045D01*
X0030929Y0004044D01*
X0030824Y0004047D01*
X0030719Y0004054D01*
X0030615Y0004065D01*
X0030511Y0004080D01*
X0030408Y0004099D01*
X0030305Y0004122D01*
X0030204Y0004148D01*
X0030103Y0004179D01*
X0030004Y0004213D01*
X0029906Y0004251D01*
X0029810Y0004293D01*
X0029716Y0004338D01*
X0029623Y0004387D01*
X0029532Y0004440D01*
X0029443Y0004496D01*
X0029356Y0004555D01*
X0029272Y0004618D01*
X0029190Y0004683D01*
X0029111Y0004752D01*
X0029034Y0004824D01*
X0028960Y0004898D01*
X0028889Y0004975D01*
X0028821Y0005055D01*
X0028757Y0005138D01*
X0028695Y0005223D01*
X0028637Y0005310D01*
X0028581Y0005399D01*
X0028530Y0005491D01*
X0028482Y0005584D01*
X0028437Y0005679D01*
X0028396Y0005776D01*
X0028359Y0005874D01*
X0028326Y0005973D01*
X0028296Y0006074D01*
X0028271Y0006176D01*
X0028249Y0006278D01*
X0028231Y0006382D01*
X0028217Y0006486D01*
X0028207Y0006590D01*
X0028201Y0006695D01*
X0028199Y0006800D01*
X0253199Y0006800D02*
X0253201Y0006905D01*
X0253207Y0007010D01*
X0253217Y0007114D01*
X0253231Y0007218D01*
X0253249Y0007322D01*
X0253271Y0007424D01*
X0253296Y0007526D01*
X0253326Y0007627D01*
X0253359Y0007726D01*
X0253396Y0007824D01*
X0253437Y0007921D01*
X0253482Y0008016D01*
X0253530Y0008109D01*
X0253581Y0008201D01*
X0253637Y0008290D01*
X0253695Y0008377D01*
X0253757Y0008462D01*
X0253821Y0008545D01*
X0253889Y0008625D01*
X0253960Y0008702D01*
X0254034Y0008776D01*
X0254111Y0008848D01*
X0254190Y0008917D01*
X0254272Y0008982D01*
X0254356Y0009045D01*
X0254443Y0009104D01*
X0254532Y0009160D01*
X0254623Y0009213D01*
X0254716Y0009262D01*
X0254810Y0009307D01*
X0254906Y0009349D01*
X0255004Y0009387D01*
X0255103Y0009421D01*
X0255204Y0009452D01*
X0255305Y0009478D01*
X0255408Y0009501D01*
X0255511Y0009520D01*
X0255615Y0009535D01*
X0255719Y0009546D01*
X0255824Y0009553D01*
X0255929Y0009556D01*
X0256034Y0009555D01*
X0256139Y0009550D01*
X0256243Y0009541D01*
X0256347Y0009528D01*
X0256451Y0009511D01*
X0256554Y0009490D01*
X0256656Y0009465D01*
X0256757Y0009437D01*
X0256856Y0009404D01*
X0256955Y0009368D01*
X0257052Y0009328D01*
X0257147Y0009285D01*
X0257241Y0009237D01*
X0257333Y0009187D01*
X0257423Y0009133D01*
X0257511Y0009075D01*
X0257596Y0009014D01*
X0257679Y0008950D01*
X0257760Y0008883D01*
X0257838Y0008813D01*
X0257913Y0008739D01*
X0257985Y0008664D01*
X0258055Y0008585D01*
X0258121Y0008504D01*
X0258185Y0008420D01*
X0258245Y0008334D01*
X0258301Y0008246D01*
X0258355Y0008155D01*
X0258405Y0008063D01*
X0258451Y0007969D01*
X0258494Y0007873D01*
X0258533Y0007775D01*
X0258568Y0007677D01*
X0258599Y0007576D01*
X0258627Y0007475D01*
X0258651Y0007373D01*
X0258671Y0007270D01*
X0258687Y0007166D01*
X0258699Y0007062D01*
X0258707Y0006957D01*
X0258711Y0006852D01*
X0258711Y0006748D01*
X0258707Y0006643D01*
X0258699Y0006538D01*
X0258687Y0006434D01*
X0258671Y0006330D01*
X0258651Y0006227D01*
X0258627Y0006125D01*
X0258599Y0006024D01*
X0258568Y0005923D01*
X0258533Y0005825D01*
X0258494Y0005727D01*
X0258451Y0005631D01*
X0258405Y0005537D01*
X0258355Y0005445D01*
X0258301Y0005354D01*
X0258245Y0005266D01*
X0258185Y0005180D01*
X0258121Y0005096D01*
X0258055Y0005015D01*
X0257985Y0004936D01*
X0257913Y0004861D01*
X0257838Y0004787D01*
X0257760Y0004717D01*
X0257679Y0004650D01*
X0257596Y0004586D01*
X0257511Y0004525D01*
X0257423Y0004467D01*
X0257333Y0004413D01*
X0257241Y0004363D01*
X0257147Y0004315D01*
X0257052Y0004272D01*
X0256955Y0004232D01*
X0256856Y0004196D01*
X0256757Y0004163D01*
X0256656Y0004135D01*
X0256554Y0004110D01*
X0256451Y0004089D01*
X0256347Y0004072D01*
X0256243Y0004059D01*
X0256139Y0004050D01*
X0256034Y0004045D01*
X0255929Y0004044D01*
X0255824Y0004047D01*
X0255719Y0004054D01*
X0255615Y0004065D01*
X0255511Y0004080D01*
X0255408Y0004099D01*
X0255305Y0004122D01*
X0255204Y0004148D01*
X0255103Y0004179D01*
X0255004Y0004213D01*
X0254906Y0004251D01*
X0254810Y0004293D01*
X0254716Y0004338D01*
X0254623Y0004387D01*
X0254532Y0004440D01*
X0254443Y0004496D01*
X0254356Y0004555D01*
X0254272Y0004618D01*
X0254190Y0004683D01*
X0254111Y0004752D01*
X0254034Y0004824D01*
X0253960Y0004898D01*
X0253889Y0004975D01*
X0253821Y0005055D01*
X0253757Y0005138D01*
X0253695Y0005223D01*
X0253637Y0005310D01*
X0253581Y0005399D01*
X0253530Y0005491D01*
X0253482Y0005584D01*
X0253437Y0005679D01*
X0253396Y0005776D01*
X0253359Y0005874D01*
X0253326Y0005973D01*
X0253296Y0006074D01*
X0253271Y0006176D01*
X0253249Y0006278D01*
X0253231Y0006382D01*
X0253217Y0006486D01*
X0253207Y0006590D01*
X0253201Y0006695D01*
X0253199Y0006800D01*
X0253199Y0141800D02*
X0253201Y0141905D01*
X0253207Y0142010D01*
X0253217Y0142114D01*
X0253231Y0142218D01*
X0253249Y0142322D01*
X0253271Y0142424D01*
X0253296Y0142526D01*
X0253326Y0142627D01*
X0253359Y0142726D01*
X0253396Y0142824D01*
X0253437Y0142921D01*
X0253482Y0143016D01*
X0253530Y0143109D01*
X0253581Y0143201D01*
X0253637Y0143290D01*
X0253695Y0143377D01*
X0253757Y0143462D01*
X0253821Y0143545D01*
X0253889Y0143625D01*
X0253960Y0143702D01*
X0254034Y0143776D01*
X0254111Y0143848D01*
X0254190Y0143917D01*
X0254272Y0143982D01*
X0254356Y0144045D01*
X0254443Y0144104D01*
X0254532Y0144160D01*
X0254623Y0144213D01*
X0254716Y0144262D01*
X0254810Y0144307D01*
X0254906Y0144349D01*
X0255004Y0144387D01*
X0255103Y0144421D01*
X0255204Y0144452D01*
X0255305Y0144478D01*
X0255408Y0144501D01*
X0255511Y0144520D01*
X0255615Y0144535D01*
X0255719Y0144546D01*
X0255824Y0144553D01*
X0255929Y0144556D01*
X0256034Y0144555D01*
X0256139Y0144550D01*
X0256243Y0144541D01*
X0256347Y0144528D01*
X0256451Y0144511D01*
X0256554Y0144490D01*
X0256656Y0144465D01*
X0256757Y0144437D01*
X0256856Y0144404D01*
X0256955Y0144368D01*
X0257052Y0144328D01*
X0257147Y0144285D01*
X0257241Y0144237D01*
X0257333Y0144187D01*
X0257423Y0144133D01*
X0257511Y0144075D01*
X0257596Y0144014D01*
X0257679Y0143950D01*
X0257760Y0143883D01*
X0257838Y0143813D01*
X0257913Y0143739D01*
X0257985Y0143664D01*
X0258055Y0143585D01*
X0258121Y0143504D01*
X0258185Y0143420D01*
X0258245Y0143334D01*
X0258301Y0143246D01*
X0258355Y0143155D01*
X0258405Y0143063D01*
X0258451Y0142969D01*
X0258494Y0142873D01*
X0258533Y0142775D01*
X0258568Y0142677D01*
X0258599Y0142576D01*
X0258627Y0142475D01*
X0258651Y0142373D01*
X0258671Y0142270D01*
X0258687Y0142166D01*
X0258699Y0142062D01*
X0258707Y0141957D01*
X0258711Y0141852D01*
X0258711Y0141748D01*
X0258707Y0141643D01*
X0258699Y0141538D01*
X0258687Y0141434D01*
X0258671Y0141330D01*
X0258651Y0141227D01*
X0258627Y0141125D01*
X0258599Y0141024D01*
X0258568Y0140923D01*
X0258533Y0140825D01*
X0258494Y0140727D01*
X0258451Y0140631D01*
X0258405Y0140537D01*
X0258355Y0140445D01*
X0258301Y0140354D01*
X0258245Y0140266D01*
X0258185Y0140180D01*
X0258121Y0140096D01*
X0258055Y0140015D01*
X0257985Y0139936D01*
X0257913Y0139861D01*
X0257838Y0139787D01*
X0257760Y0139717D01*
X0257679Y0139650D01*
X0257596Y0139586D01*
X0257511Y0139525D01*
X0257423Y0139467D01*
X0257333Y0139413D01*
X0257241Y0139363D01*
X0257147Y0139315D01*
X0257052Y0139272D01*
X0256955Y0139232D01*
X0256856Y0139196D01*
X0256757Y0139163D01*
X0256656Y0139135D01*
X0256554Y0139110D01*
X0256451Y0139089D01*
X0256347Y0139072D01*
X0256243Y0139059D01*
X0256139Y0139050D01*
X0256034Y0139045D01*
X0255929Y0139044D01*
X0255824Y0139047D01*
X0255719Y0139054D01*
X0255615Y0139065D01*
X0255511Y0139080D01*
X0255408Y0139099D01*
X0255305Y0139122D01*
X0255204Y0139148D01*
X0255103Y0139179D01*
X0255004Y0139213D01*
X0254906Y0139251D01*
X0254810Y0139293D01*
X0254716Y0139338D01*
X0254623Y0139387D01*
X0254532Y0139440D01*
X0254443Y0139496D01*
X0254356Y0139555D01*
X0254272Y0139618D01*
X0254190Y0139683D01*
X0254111Y0139752D01*
X0254034Y0139824D01*
X0253960Y0139898D01*
X0253889Y0139975D01*
X0253821Y0140055D01*
X0253757Y0140138D01*
X0253695Y0140223D01*
X0253637Y0140310D01*
X0253581Y0140399D01*
X0253530Y0140491D01*
X0253482Y0140584D01*
X0253437Y0140679D01*
X0253396Y0140776D01*
X0253359Y0140874D01*
X0253326Y0140973D01*
X0253296Y0141074D01*
X0253271Y0141176D01*
X0253249Y0141278D01*
X0253231Y0141382D01*
X0253217Y0141486D01*
X0253207Y0141590D01*
X0253201Y0141695D01*
X0253199Y0141800D01*
X0028199Y0141800D02*
X0028201Y0141905D01*
X0028207Y0142010D01*
X0028217Y0142114D01*
X0028231Y0142218D01*
X0028249Y0142322D01*
X0028271Y0142424D01*
X0028296Y0142526D01*
X0028326Y0142627D01*
X0028359Y0142726D01*
X0028396Y0142824D01*
X0028437Y0142921D01*
X0028482Y0143016D01*
X0028530Y0143109D01*
X0028581Y0143201D01*
X0028637Y0143290D01*
X0028695Y0143377D01*
X0028757Y0143462D01*
X0028821Y0143545D01*
X0028889Y0143625D01*
X0028960Y0143702D01*
X0029034Y0143776D01*
X0029111Y0143848D01*
X0029190Y0143917D01*
X0029272Y0143982D01*
X0029356Y0144045D01*
X0029443Y0144104D01*
X0029532Y0144160D01*
X0029623Y0144213D01*
X0029716Y0144262D01*
X0029810Y0144307D01*
X0029906Y0144349D01*
X0030004Y0144387D01*
X0030103Y0144421D01*
X0030204Y0144452D01*
X0030305Y0144478D01*
X0030408Y0144501D01*
X0030511Y0144520D01*
X0030615Y0144535D01*
X0030719Y0144546D01*
X0030824Y0144553D01*
X0030929Y0144556D01*
X0031034Y0144555D01*
X0031139Y0144550D01*
X0031243Y0144541D01*
X0031347Y0144528D01*
X0031451Y0144511D01*
X0031554Y0144490D01*
X0031656Y0144465D01*
X0031757Y0144437D01*
X0031856Y0144404D01*
X0031955Y0144368D01*
X0032052Y0144328D01*
X0032147Y0144285D01*
X0032241Y0144237D01*
X0032333Y0144187D01*
X0032423Y0144133D01*
X0032511Y0144075D01*
X0032596Y0144014D01*
X0032679Y0143950D01*
X0032760Y0143883D01*
X0032838Y0143813D01*
X0032913Y0143739D01*
X0032985Y0143664D01*
X0033055Y0143585D01*
X0033121Y0143504D01*
X0033185Y0143420D01*
X0033245Y0143334D01*
X0033301Y0143246D01*
X0033355Y0143155D01*
X0033405Y0143063D01*
X0033451Y0142969D01*
X0033494Y0142873D01*
X0033533Y0142775D01*
X0033568Y0142677D01*
X0033599Y0142576D01*
X0033627Y0142475D01*
X0033651Y0142373D01*
X0033671Y0142270D01*
X0033687Y0142166D01*
X0033699Y0142062D01*
X0033707Y0141957D01*
X0033711Y0141852D01*
X0033711Y0141748D01*
X0033707Y0141643D01*
X0033699Y0141538D01*
X0033687Y0141434D01*
X0033671Y0141330D01*
X0033651Y0141227D01*
X0033627Y0141125D01*
X0033599Y0141024D01*
X0033568Y0140923D01*
X0033533Y0140825D01*
X0033494Y0140727D01*
X0033451Y0140631D01*
X0033405Y0140537D01*
X0033355Y0140445D01*
X0033301Y0140354D01*
X0033245Y0140266D01*
X0033185Y0140180D01*
X0033121Y0140096D01*
X0033055Y0140015D01*
X0032985Y0139936D01*
X0032913Y0139861D01*
X0032838Y0139787D01*
X0032760Y0139717D01*
X0032679Y0139650D01*
X0032596Y0139586D01*
X0032511Y0139525D01*
X0032423Y0139467D01*
X0032333Y0139413D01*
X0032241Y0139363D01*
X0032147Y0139315D01*
X0032052Y0139272D01*
X0031955Y0139232D01*
X0031856Y0139196D01*
X0031757Y0139163D01*
X0031656Y0139135D01*
X0031554Y0139110D01*
X0031451Y0139089D01*
X0031347Y0139072D01*
X0031243Y0139059D01*
X0031139Y0139050D01*
X0031034Y0139045D01*
X0030929Y0139044D01*
X0030824Y0139047D01*
X0030719Y0139054D01*
X0030615Y0139065D01*
X0030511Y0139080D01*
X0030408Y0139099D01*
X0030305Y0139122D01*
X0030204Y0139148D01*
X0030103Y0139179D01*
X0030004Y0139213D01*
X0029906Y0139251D01*
X0029810Y0139293D01*
X0029716Y0139338D01*
X0029623Y0139387D01*
X0029532Y0139440D01*
X0029443Y0139496D01*
X0029356Y0139555D01*
X0029272Y0139618D01*
X0029190Y0139683D01*
X0029111Y0139752D01*
X0029034Y0139824D01*
X0028960Y0139898D01*
X0028889Y0139975D01*
X0028821Y0140055D01*
X0028757Y0140138D01*
X0028695Y0140223D01*
X0028637Y0140310D01*
X0028581Y0140399D01*
X0028530Y0140491D01*
X0028482Y0140584D01*
X0028437Y0140679D01*
X0028396Y0140776D01*
X0028359Y0140874D01*
X0028326Y0140973D01*
X0028296Y0141074D01*
X0028271Y0141176D01*
X0028249Y0141278D01*
X0028231Y0141382D01*
X0028217Y0141486D01*
X0028207Y0141590D01*
X0028201Y0141695D01*
X0028199Y0141800D01*
D11*
X0096589Y0052352D02*
X0096105Y0051869D01*
X0096105Y0051385D01*
X0096589Y0050901D01*
X0097556Y0050901D01*
X0098040Y0050417D01*
X0098040Y0049934D01*
X0097556Y0049450D01*
X0096589Y0049450D01*
X0096105Y0049934D01*
X0099052Y0049450D02*
X0100019Y0050417D01*
X0100987Y0049450D01*
X0100987Y0052352D01*
X0101998Y0051385D02*
X0102966Y0052352D01*
X0102966Y0049450D01*
X0103933Y0049450D02*
X0101998Y0049450D01*
X0099052Y0049450D02*
X0099052Y0052352D01*
X0098040Y0051869D02*
X0097556Y0052352D01*
X0096589Y0052352D01*
X0104945Y0051385D02*
X0104945Y0050901D01*
X0105428Y0050901D01*
X0105428Y0051385D01*
X0104945Y0051385D01*
X0104945Y0049934D02*
X0104945Y0049450D01*
X0105428Y0049450D01*
X0105428Y0049934D01*
X0104945Y0049934D01*
X0110838Y0031552D02*
X0111321Y0031552D01*
X0111321Y0028650D01*
X0110838Y0028650D02*
X0111805Y0028650D01*
X0112802Y0029134D02*
X0112802Y0030101D01*
X0113286Y0030585D01*
X0114253Y0030585D01*
X0114737Y0030101D01*
X0114737Y0029617D01*
X0112802Y0029617D01*
X0112802Y0029134D02*
X0113286Y0028650D01*
X0114253Y0028650D01*
X0115749Y0028650D02*
X0117200Y0028650D01*
X0117684Y0029134D01*
X0117200Y0029617D01*
X0116232Y0029617D01*
X0115749Y0030101D01*
X0116232Y0030585D01*
X0117684Y0030585D01*
X0118695Y0030585D02*
X0118695Y0030101D01*
X0119179Y0030101D01*
X0119179Y0030585D01*
X0118695Y0030585D01*
X0118695Y0029134D02*
X0118695Y0028650D01*
X0119179Y0028650D01*
X0119179Y0029134D01*
X0118695Y0029134D01*
X0109826Y0029134D02*
X0109342Y0028650D01*
X0107891Y0028650D01*
X0107891Y0027683D02*
X0107891Y0030585D01*
X0109342Y0030585D01*
X0109826Y0030101D01*
X0109826Y0029134D01*
X0106880Y0028650D02*
X0106880Y0030101D01*
X0106396Y0030585D01*
X0105912Y0030101D01*
X0105912Y0028650D01*
X0104945Y0028650D02*
X0104945Y0030585D01*
X0105428Y0030585D01*
X0105912Y0030101D01*
X0103933Y0030101D02*
X0103933Y0028650D01*
X0102482Y0028650D01*
X0101998Y0029134D01*
X0102482Y0029617D01*
X0103933Y0029617D01*
X0103933Y0030101D02*
X0103449Y0030585D01*
X0102482Y0030585D01*
X0100987Y0030585D02*
X0099052Y0028650D01*
X0098040Y0028650D02*
X0096105Y0028650D01*
X0096105Y0031552D01*
X0098040Y0031552D01*
X0099052Y0030585D02*
X0100987Y0028650D01*
X0097073Y0030101D02*
X0096105Y0030101D01*
X0096589Y0021952D02*
X0096105Y0021469D01*
X0096105Y0019534D01*
X0096589Y0019050D01*
X0097556Y0019050D01*
X0098040Y0019534D01*
X0098040Y0020501D01*
X0097073Y0020501D01*
X0098040Y0021469D02*
X0097556Y0021952D01*
X0096589Y0021952D01*
X0099052Y0020985D02*
X0099052Y0019050D01*
X0099052Y0020017D02*
X0100019Y0020985D01*
X0100503Y0020985D01*
X0101507Y0020501D02*
X0101991Y0020985D01*
X0102958Y0020985D01*
X0103442Y0020501D01*
X0103442Y0020017D01*
X0101507Y0020017D01*
X0101507Y0019534D02*
X0101507Y0020501D01*
X0101507Y0019534D02*
X0101991Y0019050D01*
X0102958Y0019050D01*
X0104454Y0019534D02*
X0104454Y0020501D01*
X0104937Y0020985D01*
X0105905Y0020985D01*
X0106389Y0020501D01*
X0106389Y0020017D01*
X0104454Y0020017D01*
X0104454Y0019534D02*
X0104937Y0019050D01*
X0105905Y0019050D01*
X0107400Y0019050D02*
X0107400Y0020985D01*
X0108851Y0020985D01*
X0109335Y0020501D01*
X0109335Y0019050D01*
X0110347Y0019050D02*
X0110347Y0019534D01*
X0110830Y0019534D01*
X0110830Y0019050D01*
X0110347Y0019050D01*
X0110347Y0020501D02*
X0110347Y0020985D01*
X0110830Y0020985D01*
X0110830Y0020501D01*
X0110347Y0020501D01*
X0114766Y0020985D02*
X0115734Y0021952D01*
X0115734Y0019050D01*
X0116701Y0019050D02*
X0114766Y0019050D01*
X0115734Y0017152D02*
X0115734Y0014250D01*
X0116701Y0014250D02*
X0114766Y0014250D01*
X0114759Y0012352D02*
X0114275Y0011869D01*
X0114275Y0009934D01*
X0114759Y0009450D01*
X0115727Y0009450D01*
X0116210Y0009934D01*
X0116210Y0011869D01*
X0115727Y0012352D01*
X0114759Y0012352D01*
X0113278Y0012352D02*
X0112311Y0011385D01*
X0112311Y0010417D01*
X0113278Y0009450D01*
X0111299Y0009450D02*
X0109364Y0009450D01*
X0110332Y0009450D02*
X0110332Y0012352D01*
X0109364Y0011385D01*
X0110347Y0014250D02*
X0110347Y0014734D01*
X0110830Y0014734D01*
X0110830Y0014250D01*
X0110347Y0014250D01*
X0110347Y0015701D02*
X0110347Y0016185D01*
X0110830Y0016185D01*
X0110830Y0015701D01*
X0110347Y0015701D01*
X0109342Y0016185D02*
X0108859Y0016185D01*
X0107891Y0015217D01*
X0107891Y0014250D02*
X0107891Y0016185D01*
X0106880Y0015701D02*
X0106880Y0015217D01*
X0104945Y0015217D01*
X0104945Y0014734D02*
X0104945Y0015701D01*
X0105428Y0016185D01*
X0106396Y0016185D01*
X0106880Y0015701D01*
X0106396Y0014250D02*
X0105428Y0014250D01*
X0104945Y0014734D01*
X0103933Y0014734D02*
X0103933Y0015701D01*
X0103449Y0016185D01*
X0101998Y0016185D01*
X0101998Y0017152D02*
X0101998Y0014250D01*
X0103449Y0014250D01*
X0103933Y0014734D01*
X0103933Y0012352D02*
X0103933Y0009450D01*
X0102966Y0010417D01*
X0101998Y0009450D01*
X0101998Y0012352D01*
X0100019Y0011869D02*
X0099535Y0012352D01*
X0099052Y0011869D01*
X0099052Y0011385D01*
X0100987Y0009450D01*
X0100987Y0010417D02*
X0100019Y0009450D01*
X0099535Y0009450D01*
X0099052Y0009934D01*
X0099052Y0010417D01*
X0100019Y0011385D01*
X0100019Y0011869D01*
X0098040Y0011869D02*
X0098040Y0011385D01*
X0097556Y0010901D01*
X0096105Y0010901D01*
X0096105Y0009450D02*
X0097556Y0009450D01*
X0098040Y0009934D01*
X0098040Y0010417D01*
X0097556Y0010901D01*
X0098040Y0011869D02*
X0097556Y0012352D01*
X0096105Y0012352D01*
X0096105Y0009450D01*
X0096105Y0014250D02*
X0096105Y0016185D01*
X0097073Y0017152D01*
X0098040Y0016185D01*
X0098040Y0014250D01*
X0099052Y0014250D02*
X0099052Y0016185D01*
X0099535Y0016185D01*
X0100019Y0015701D01*
X0100503Y0016185D01*
X0100987Y0015701D01*
X0100987Y0014250D01*
X0100019Y0014250D02*
X0100019Y0015701D01*
X0098040Y0015701D02*
X0096105Y0015701D01*
X0104945Y0011385D02*
X0104945Y0010901D01*
X0105428Y0010901D01*
X0105428Y0011385D01*
X0104945Y0011385D01*
X0104945Y0009934D02*
X0104945Y0009450D01*
X0105428Y0009450D01*
X0105428Y0009934D01*
X0104945Y0009934D01*
X0114766Y0016185D02*
X0115734Y0017152D01*
X0117713Y0016185D02*
X0118680Y0017152D01*
X0119677Y0016669D02*
X0120161Y0017152D01*
X0121128Y0017152D01*
X0121612Y0016669D01*
X0121612Y0014734D01*
X0121128Y0014250D01*
X0120161Y0014250D01*
X0119677Y0014734D01*
X0119677Y0016669D01*
X0117713Y0016185D02*
X0117713Y0015217D01*
X0118680Y0014250D01*
X0119157Y0012352D02*
X0119157Y0009450D01*
X0117222Y0012352D01*
X0117222Y0009450D01*
X0120168Y0009450D02*
X0121136Y0010417D01*
X0121136Y0011385D01*
X0120168Y0012352D01*
X0122624Y0014250D02*
X0122624Y0017152D01*
X0124559Y0014250D01*
X0124559Y0017152D01*
X0125570Y0017152D02*
X0126538Y0016185D01*
X0126538Y0015217D01*
X0125570Y0014250D01*
X0126047Y0011869D02*
X0126047Y0009934D01*
X0127014Y0010901D02*
X0125079Y0010901D01*
X0130972Y0011869D02*
X0131456Y0012352D01*
X0132423Y0012352D01*
X0132907Y0011869D01*
X0132907Y0011385D01*
X0130972Y0009450D01*
X0132907Y0009450D01*
X0133919Y0010417D02*
X0133919Y0011385D01*
X0134886Y0012352D01*
X0135883Y0011869D02*
X0136367Y0012352D01*
X0137334Y0012352D01*
X0137818Y0011869D01*
X0137818Y0009934D01*
X0137334Y0009450D01*
X0136367Y0009450D01*
X0135883Y0009934D01*
X0135883Y0011869D01*
X0133919Y0010417D02*
X0134886Y0009450D01*
X0138830Y0009450D02*
X0138830Y0012352D01*
X0140765Y0012352D01*
X0141776Y0012352D02*
X0143711Y0012352D01*
X0144723Y0012352D02*
X0145690Y0011385D01*
X0145690Y0010417D01*
X0144723Y0009450D01*
X0142744Y0010901D02*
X0141776Y0010901D01*
X0141776Y0009450D02*
X0141776Y0012352D01*
X0141769Y0014250D02*
X0142736Y0014250D01*
X0143220Y0014734D01*
X0143220Y0016669D01*
X0142736Y0017152D01*
X0141769Y0017152D01*
X0141285Y0016669D01*
X0141285Y0014734D01*
X0141769Y0014250D01*
X0140288Y0014250D02*
X0139321Y0015217D01*
X0139321Y0016185D01*
X0140288Y0017152D01*
X0138309Y0016669D02*
X0137825Y0017152D01*
X0136858Y0017152D01*
X0136374Y0016669D01*
X0138309Y0016669D02*
X0138309Y0016185D01*
X0136374Y0014250D01*
X0138309Y0014250D01*
X0138830Y0010901D02*
X0139797Y0010901D01*
X0144232Y0014250D02*
X0144232Y0017152D01*
X0146167Y0014250D01*
X0146167Y0017152D01*
X0147178Y0017152D02*
X0148146Y0016185D01*
X0148146Y0015217D01*
X0147178Y0014250D01*
X0149634Y0010901D02*
X0151569Y0010901D01*
X0150601Y0011869D02*
X0150601Y0009934D01*
X0155527Y0009934D02*
X0156010Y0009450D01*
X0156978Y0009450D01*
X0157462Y0009934D01*
X0157462Y0010417D01*
X0156978Y0010901D01*
X0156494Y0010901D01*
X0156978Y0010901D02*
X0157462Y0011385D01*
X0157462Y0011869D01*
X0156978Y0012352D01*
X0156010Y0012352D01*
X0155527Y0011869D01*
X0158473Y0011385D02*
X0158473Y0010417D01*
X0159441Y0009450D01*
X0160437Y0009934D02*
X0160921Y0009450D01*
X0161889Y0009450D01*
X0162372Y0009934D01*
X0162372Y0011869D01*
X0161889Y0012352D01*
X0160921Y0012352D01*
X0160437Y0011869D01*
X0160437Y0009934D01*
X0158473Y0011385D02*
X0159441Y0012352D01*
X0159433Y0014250D02*
X0158466Y0014250D01*
X0157982Y0014734D01*
X0158949Y0015701D02*
X0159433Y0015701D01*
X0159917Y0015217D01*
X0159917Y0014734D01*
X0159433Y0014250D01*
X0159433Y0015701D02*
X0159917Y0016185D01*
X0159917Y0016669D01*
X0159433Y0017152D01*
X0158466Y0017152D01*
X0157982Y0016669D01*
X0160929Y0016185D02*
X0161896Y0017152D01*
X0162893Y0016669D02*
X0163377Y0017152D01*
X0164344Y0017152D01*
X0164828Y0016669D01*
X0164828Y0014734D01*
X0164344Y0014250D01*
X0163377Y0014250D01*
X0162893Y0014734D01*
X0162893Y0016669D01*
X0160929Y0016185D02*
X0160929Y0015217D01*
X0161896Y0014250D01*
X0163384Y0012352D02*
X0165319Y0009450D01*
X0165319Y0012352D01*
X0166330Y0012352D02*
X0167298Y0011385D01*
X0167298Y0010417D01*
X0166330Y0009450D01*
X0163384Y0009450D02*
X0163384Y0012352D01*
X0165839Y0014250D02*
X0165839Y0017152D01*
X0167774Y0017152D01*
X0168786Y0017152D02*
X0170721Y0017152D01*
X0171732Y0017152D02*
X0172700Y0016185D01*
X0172700Y0015217D01*
X0171732Y0014250D01*
X0169753Y0015701D02*
X0168786Y0015701D01*
X0168786Y0014250D02*
X0168786Y0017152D01*
X0169270Y0019050D02*
X0170237Y0019050D01*
X0170721Y0019534D01*
X0170721Y0021469D01*
X0170237Y0021952D01*
X0169270Y0021952D01*
X0168786Y0021469D01*
X0168786Y0019534D01*
X0169270Y0019050D01*
X0167789Y0019050D02*
X0166822Y0020017D01*
X0166822Y0020985D01*
X0167789Y0021952D01*
X0165810Y0021469D02*
X0165810Y0020985D01*
X0165326Y0020501D01*
X0165810Y0020017D01*
X0165810Y0019534D01*
X0165326Y0019050D01*
X0164359Y0019050D01*
X0163875Y0019534D01*
X0164843Y0020501D02*
X0165326Y0020501D01*
X0165810Y0021469D02*
X0165326Y0021952D01*
X0164359Y0021952D01*
X0163875Y0021469D01*
X0159917Y0020501D02*
X0157982Y0020501D01*
X0158949Y0019534D02*
X0158949Y0021469D01*
X0154039Y0020985D02*
X0153071Y0021952D01*
X0152060Y0021952D02*
X0150125Y0021952D01*
X0150125Y0019050D01*
X0150125Y0020501D02*
X0151092Y0020501D01*
X0153071Y0019050D02*
X0154039Y0020017D01*
X0154039Y0020985D01*
X0149113Y0021952D02*
X0147178Y0021952D01*
X0147178Y0019050D01*
X0146167Y0019534D02*
X0146167Y0021469D01*
X0145683Y0021952D01*
X0144715Y0021952D01*
X0144232Y0021469D01*
X0144232Y0019534D01*
X0144715Y0019050D01*
X0145683Y0019050D01*
X0146167Y0019534D01*
X0147178Y0020501D02*
X0148146Y0020501D01*
X0143235Y0019050D02*
X0142267Y0020017D01*
X0142267Y0020985D01*
X0143235Y0021952D01*
X0141256Y0021469D02*
X0140772Y0021952D01*
X0139804Y0021952D01*
X0139321Y0021469D01*
X0141256Y0021469D02*
X0141256Y0020985D01*
X0139321Y0019050D01*
X0141256Y0019050D01*
X0135363Y0020501D02*
X0133428Y0020501D01*
X0134395Y0019534D02*
X0134395Y0021469D01*
X0129484Y0020985D02*
X0128517Y0021952D01*
X0127505Y0021952D02*
X0125570Y0021952D01*
X0125570Y0019050D01*
X0125570Y0020501D02*
X0126538Y0020501D01*
X0128517Y0019050D02*
X0129484Y0020017D01*
X0129484Y0020985D01*
X0124559Y0021952D02*
X0122624Y0021952D01*
X0122624Y0019050D01*
X0121612Y0019534D02*
X0121612Y0021469D01*
X0121128Y0021952D01*
X0120161Y0021952D01*
X0119677Y0021469D01*
X0119677Y0019534D01*
X0120161Y0019050D01*
X0121128Y0019050D01*
X0121612Y0019534D01*
X0122624Y0020501D02*
X0123591Y0020501D01*
X0118680Y0019050D02*
X0117713Y0020017D01*
X0117713Y0020985D01*
X0118680Y0021952D01*
X0130481Y0015701D02*
X0132416Y0015701D01*
X0131449Y0014734D02*
X0131449Y0016669D01*
X0152089Y0015701D02*
X0154024Y0015701D01*
X0153056Y0016669D02*
X0153056Y0014734D01*
X0165839Y0015701D02*
X0166807Y0015701D01*
X0171732Y0019050D02*
X0171732Y0021952D01*
X0173667Y0021952D01*
X0174679Y0021952D02*
X0176614Y0021952D01*
X0177625Y0021952D02*
X0178593Y0020985D01*
X0178593Y0020017D01*
X0177625Y0019050D01*
X0175646Y0020501D02*
X0174679Y0020501D01*
X0174679Y0019050D02*
X0174679Y0021952D01*
X0172700Y0020501D02*
X0171732Y0020501D01*
X0176643Y0015701D02*
X0178578Y0015701D01*
X0177611Y0014734D02*
X0177611Y0016669D01*
X0178586Y0012352D02*
X0177134Y0010901D01*
X0179069Y0010901D01*
X0180081Y0010417D02*
X0180081Y0011385D01*
X0181048Y0012352D01*
X0182045Y0011869D02*
X0182529Y0012352D01*
X0183496Y0012352D01*
X0183980Y0011869D01*
X0183980Y0009934D01*
X0183496Y0009450D01*
X0182529Y0009450D01*
X0182045Y0009934D01*
X0182045Y0011869D01*
X0180081Y0010417D02*
X0181048Y0009450D01*
X0178586Y0009450D02*
X0178586Y0012352D01*
X0182536Y0015701D02*
X0184471Y0015701D01*
X0185483Y0015217D02*
X0185483Y0016185D01*
X0186450Y0017152D01*
X0187447Y0016669D02*
X0187447Y0014734D01*
X0187931Y0014250D01*
X0188898Y0014250D01*
X0189382Y0014734D01*
X0189382Y0016669D01*
X0188898Y0017152D01*
X0187931Y0017152D01*
X0187447Y0016669D01*
X0185483Y0015217D02*
X0186450Y0014250D01*
X0186927Y0012352D02*
X0186927Y0009450D01*
X0184992Y0012352D01*
X0184992Y0009450D01*
X0187938Y0009450D02*
X0188906Y0010417D01*
X0188906Y0011385D01*
X0187938Y0012352D01*
X0190394Y0014250D02*
X0190394Y0017152D01*
X0192329Y0017152D01*
X0193340Y0017152D02*
X0195275Y0017152D01*
X0196287Y0017152D02*
X0197254Y0016185D01*
X0197254Y0015217D01*
X0196287Y0014250D01*
X0194308Y0015701D02*
X0193340Y0015701D01*
X0193340Y0014250D02*
X0193340Y0017152D01*
X0193824Y0019050D02*
X0194791Y0019050D01*
X0195275Y0019534D01*
X0195275Y0021469D01*
X0194791Y0021952D01*
X0193824Y0021952D01*
X0193340Y0021469D01*
X0193340Y0019534D01*
X0193824Y0019050D01*
X0192343Y0019050D02*
X0191376Y0020017D01*
X0191376Y0020985D01*
X0192343Y0021952D01*
X0190364Y0020501D02*
X0188429Y0020501D01*
X0189881Y0021952D01*
X0189881Y0019050D01*
X0190394Y0015701D02*
X0191361Y0015701D01*
X0196287Y0019050D02*
X0196287Y0021952D01*
X0198222Y0019050D01*
X0198222Y0021952D01*
X0199233Y0021952D02*
X0200201Y0020985D01*
X0200201Y0020017D01*
X0199233Y0019050D01*
X0184471Y0020501D02*
X0182536Y0020501D01*
X0183504Y0021469D02*
X0183504Y0019534D01*
X0183988Y0017152D02*
X0182536Y0015701D01*
X0183988Y0014250D02*
X0183988Y0017152D01*
X0173176Y0010901D02*
X0171241Y0010901D01*
X0172209Y0011869D02*
X0172209Y0009934D01*
D12*
X0180455Y0033300D02*
X0180455Y0036800D01*
X0180455Y0040300D01*
X0191455Y0040300D01*
X0191455Y0036800D01*
X0191455Y0033300D01*
X0180455Y0033300D01*
X0180455Y0036800D02*
X0179955Y0036800D01*
X0191455Y0036800D02*
X0191955Y0036800D01*
X0164455Y0036800D02*
X0163955Y0036800D01*
X0163955Y0040300D01*
X0152955Y0040300D01*
X0152955Y0036800D01*
X0152955Y0033300D01*
X0163955Y0033300D01*
X0163955Y0036800D01*
X0152955Y0036800D02*
X0152455Y0036800D01*
X0136955Y0036800D02*
X0136455Y0036800D01*
X0136455Y0040300D01*
X0125455Y0040300D01*
X0125455Y0036800D01*
X0125455Y0033300D01*
X0136455Y0033300D01*
X0136455Y0036800D01*
X0125455Y0036800D02*
X0124955Y0036800D01*
X0109455Y0036800D02*
X0108955Y0036800D01*
X0108955Y0040300D01*
X0097955Y0040300D01*
X0097955Y0036800D01*
X0097955Y0033300D01*
X0108955Y0033300D01*
X0108955Y0036800D01*
X0097955Y0036800D02*
X0097455Y0036800D01*
X0120455Y0054800D02*
X0120455Y0067800D01*
X0120455Y0080800D01*
X0122455Y0080800D01*
X0122455Y0067800D01*
X0120455Y0067800D01*
X0125455Y0066800D02*
X0131455Y0066800D01*
X0131455Y0081800D01*
X0125455Y0081800D01*
X0125455Y0066800D01*
X0135455Y0066800D02*
X0141455Y0066800D01*
X0141455Y0081800D01*
X0135455Y0081800D01*
X0135455Y0066800D01*
X0145455Y0066800D02*
X0151455Y0066800D01*
X0151455Y0081800D01*
X0145455Y0081800D01*
X0145455Y0066800D01*
X0155455Y0066800D02*
X0161455Y0066800D01*
X0161455Y0081800D01*
X0155455Y0081800D01*
X0155455Y0066800D01*
X0164455Y0067800D02*
X0166455Y0067800D01*
X0166455Y0080800D01*
X0166455Y0093800D01*
X0120455Y0093800D01*
X0120455Y0080800D01*
X0114455Y0100800D02*
X0113455Y0100800D01*
X0112955Y0101300D01*
X0103955Y0101300D01*
X0103455Y0100800D01*
X0102455Y0100800D01*
X0102395Y0100802D01*
X0102334Y0100807D01*
X0102275Y0100816D01*
X0102216Y0100829D01*
X0102157Y0100845D01*
X0102100Y0100865D01*
X0102045Y0100888D01*
X0101990Y0100915D01*
X0101938Y0100944D01*
X0101887Y0100977D01*
X0101838Y0101013D01*
X0101792Y0101051D01*
X0101748Y0101093D01*
X0101706Y0101137D01*
X0101668Y0101183D01*
X0101632Y0101232D01*
X0101599Y0101283D01*
X0101570Y0101335D01*
X0101543Y0101390D01*
X0101520Y0101445D01*
X0101500Y0101502D01*
X0101484Y0101561D01*
X0101471Y0101620D01*
X0101462Y0101679D01*
X0101457Y0101740D01*
X0101455Y0101800D01*
X0101455Y0106800D02*
X0101457Y0106860D01*
X0101462Y0106921D01*
X0101471Y0106980D01*
X0101484Y0107039D01*
X0101500Y0107098D01*
X0101520Y0107155D01*
X0101543Y0107210D01*
X0101570Y0107265D01*
X0101599Y0107317D01*
X0101632Y0107368D01*
X0101668Y0107417D01*
X0101706Y0107463D01*
X0101748Y0107507D01*
X0101792Y0107549D01*
X0101838Y0107587D01*
X0101887Y0107623D01*
X0101938Y0107656D01*
X0101990Y0107685D01*
X0102045Y0107712D01*
X0102100Y0107735D01*
X0102157Y0107755D01*
X0102216Y0107771D01*
X0102275Y0107784D01*
X0102334Y0107793D01*
X0102395Y0107798D01*
X0102455Y0107800D01*
X0103455Y0107800D01*
X0103955Y0107300D01*
X0112955Y0107300D01*
X0113455Y0107800D01*
X0114455Y0107800D01*
X0114515Y0107798D01*
X0114576Y0107793D01*
X0114635Y0107784D01*
X0114694Y0107771D01*
X0114753Y0107755D01*
X0114810Y0107735D01*
X0114865Y0107712D01*
X0114920Y0107685D01*
X0114972Y0107656D01*
X0115023Y0107623D01*
X0115072Y0107587D01*
X0115118Y0107549D01*
X0115162Y0107507D01*
X0115204Y0107463D01*
X0115242Y0107417D01*
X0115278Y0107368D01*
X0115311Y0107317D01*
X0115340Y0107265D01*
X0115367Y0107210D01*
X0115390Y0107155D01*
X0115410Y0107098D01*
X0115426Y0107039D01*
X0115439Y0106980D01*
X0115448Y0106921D01*
X0115453Y0106860D01*
X0115455Y0106800D01*
X0115455Y0101800D02*
X0115453Y0101740D01*
X0115448Y0101679D01*
X0115439Y0101620D01*
X0115426Y0101561D01*
X0115410Y0101502D01*
X0115390Y0101445D01*
X0115367Y0101390D01*
X0115340Y0101335D01*
X0115311Y0101283D01*
X0115278Y0101232D01*
X0115242Y0101183D01*
X0115204Y0101137D01*
X0115162Y0101093D01*
X0115118Y0101051D01*
X0115072Y0101013D01*
X0115023Y0100977D01*
X0114972Y0100944D01*
X0114920Y0100915D01*
X0114865Y0100888D01*
X0114810Y0100865D01*
X0114753Y0100845D01*
X0114694Y0100829D01*
X0114635Y0100816D01*
X0114576Y0100807D01*
X0114515Y0100802D01*
X0114455Y0100800D01*
X0137455Y0100800D02*
X0138455Y0100800D01*
X0138955Y0101300D01*
X0147955Y0101300D01*
X0148455Y0100800D01*
X0149455Y0100800D01*
X0149515Y0100802D01*
X0149576Y0100807D01*
X0149635Y0100816D01*
X0149694Y0100829D01*
X0149753Y0100845D01*
X0149810Y0100865D01*
X0149865Y0100888D01*
X0149920Y0100915D01*
X0149972Y0100944D01*
X0150023Y0100977D01*
X0150072Y0101013D01*
X0150118Y0101051D01*
X0150162Y0101093D01*
X0150204Y0101137D01*
X0150242Y0101183D01*
X0150278Y0101232D01*
X0150311Y0101283D01*
X0150340Y0101335D01*
X0150367Y0101390D01*
X0150390Y0101445D01*
X0150410Y0101502D01*
X0150426Y0101561D01*
X0150439Y0101620D01*
X0150448Y0101679D01*
X0150453Y0101740D01*
X0150455Y0101800D01*
X0150455Y0106800D02*
X0150453Y0106860D01*
X0150448Y0106921D01*
X0150439Y0106980D01*
X0150426Y0107039D01*
X0150410Y0107098D01*
X0150390Y0107155D01*
X0150367Y0107210D01*
X0150340Y0107265D01*
X0150311Y0107317D01*
X0150278Y0107368D01*
X0150242Y0107417D01*
X0150204Y0107463D01*
X0150162Y0107507D01*
X0150118Y0107549D01*
X0150072Y0107587D01*
X0150023Y0107623D01*
X0149972Y0107656D01*
X0149920Y0107685D01*
X0149865Y0107712D01*
X0149810Y0107735D01*
X0149753Y0107755D01*
X0149694Y0107771D01*
X0149635Y0107784D01*
X0149576Y0107793D01*
X0149515Y0107798D01*
X0149455Y0107800D01*
X0148455Y0107800D01*
X0147955Y0107300D01*
X0138955Y0107300D01*
X0138455Y0107800D01*
X0137455Y0107800D01*
X0137395Y0107798D01*
X0137334Y0107793D01*
X0137275Y0107784D01*
X0137216Y0107771D01*
X0137157Y0107755D01*
X0137100Y0107735D01*
X0137045Y0107712D01*
X0136990Y0107685D01*
X0136938Y0107656D01*
X0136887Y0107623D01*
X0136838Y0107587D01*
X0136792Y0107549D01*
X0136748Y0107507D01*
X0136706Y0107463D01*
X0136668Y0107417D01*
X0136632Y0107368D01*
X0136599Y0107317D01*
X0136570Y0107265D01*
X0136543Y0107210D01*
X0136520Y0107155D01*
X0136500Y0107098D01*
X0136484Y0107039D01*
X0136471Y0106980D01*
X0136462Y0106921D01*
X0136457Y0106860D01*
X0136455Y0106800D01*
X0136455Y0101800D02*
X0136457Y0101740D01*
X0136462Y0101679D01*
X0136471Y0101620D01*
X0136484Y0101561D01*
X0136500Y0101502D01*
X0136520Y0101445D01*
X0136543Y0101390D01*
X0136570Y0101335D01*
X0136599Y0101283D01*
X0136632Y0101232D01*
X0136668Y0101183D01*
X0136706Y0101137D01*
X0136748Y0101093D01*
X0136792Y0101051D01*
X0136838Y0101013D01*
X0136887Y0100977D01*
X0136938Y0100944D01*
X0136990Y0100915D01*
X0137045Y0100888D01*
X0137100Y0100865D01*
X0137157Y0100845D01*
X0137216Y0100829D01*
X0137275Y0100816D01*
X0137334Y0100807D01*
X0137395Y0100802D01*
X0137455Y0100800D01*
X0164455Y0080800D02*
X0164455Y0067800D01*
X0166455Y0067800D02*
X0166455Y0054800D01*
X0120455Y0054800D01*
X0164455Y0080800D02*
X0166455Y0080800D01*
X0179955Y0080300D02*
X0179955Y0079300D01*
X0180455Y0078800D01*
X0180455Y0069800D01*
X0179955Y0069300D01*
X0179955Y0068300D01*
X0179957Y0068240D01*
X0179962Y0068179D01*
X0179971Y0068120D01*
X0179984Y0068061D01*
X0180000Y0068002D01*
X0180020Y0067945D01*
X0180043Y0067890D01*
X0180070Y0067835D01*
X0180099Y0067783D01*
X0180132Y0067732D01*
X0180168Y0067683D01*
X0180206Y0067637D01*
X0180248Y0067593D01*
X0180292Y0067551D01*
X0180338Y0067513D01*
X0180387Y0067477D01*
X0180438Y0067444D01*
X0180490Y0067415D01*
X0180545Y0067388D01*
X0180600Y0067365D01*
X0180657Y0067345D01*
X0180716Y0067329D01*
X0180775Y0067316D01*
X0180834Y0067307D01*
X0180895Y0067302D01*
X0180955Y0067300D01*
X0185955Y0067300D02*
X0186015Y0067302D01*
X0186076Y0067307D01*
X0186135Y0067316D01*
X0186194Y0067329D01*
X0186253Y0067345D01*
X0186310Y0067365D01*
X0186365Y0067388D01*
X0186420Y0067415D01*
X0186472Y0067444D01*
X0186523Y0067477D01*
X0186572Y0067513D01*
X0186618Y0067551D01*
X0186662Y0067593D01*
X0186704Y0067637D01*
X0186742Y0067683D01*
X0186778Y0067732D01*
X0186811Y0067783D01*
X0186840Y0067835D01*
X0186867Y0067890D01*
X0186890Y0067945D01*
X0186910Y0068002D01*
X0186926Y0068061D01*
X0186939Y0068120D01*
X0186948Y0068179D01*
X0186953Y0068240D01*
X0186955Y0068300D01*
X0186955Y0069300D01*
X0186455Y0069800D01*
X0186455Y0078800D01*
X0186955Y0079300D01*
X0186955Y0080300D01*
X0186953Y0080360D01*
X0186948Y0080421D01*
X0186939Y0080480D01*
X0186926Y0080539D01*
X0186910Y0080598D01*
X0186890Y0080655D01*
X0186867Y0080710D01*
X0186840Y0080765D01*
X0186811Y0080817D01*
X0186778Y0080868D01*
X0186742Y0080917D01*
X0186704Y0080963D01*
X0186662Y0081007D01*
X0186618Y0081049D01*
X0186572Y0081087D01*
X0186523Y0081123D01*
X0186472Y0081156D01*
X0186420Y0081185D01*
X0186365Y0081212D01*
X0186310Y0081235D01*
X0186253Y0081255D01*
X0186194Y0081271D01*
X0186135Y0081284D01*
X0186076Y0081293D01*
X0186015Y0081298D01*
X0185955Y0081300D01*
X0180955Y0081300D02*
X0180895Y0081298D01*
X0180834Y0081293D01*
X0180775Y0081284D01*
X0180716Y0081271D01*
X0180657Y0081255D01*
X0180600Y0081235D01*
X0180545Y0081212D01*
X0180490Y0081185D01*
X0180438Y0081156D01*
X0180387Y0081123D01*
X0180338Y0081087D01*
X0180292Y0081049D01*
X0180248Y0081007D01*
X0180206Y0080963D01*
X0180168Y0080917D01*
X0180132Y0080868D01*
X0180099Y0080817D01*
X0180070Y0080765D01*
X0180043Y0080710D01*
X0180020Y0080655D01*
X0180000Y0080598D01*
X0179984Y0080539D01*
X0179971Y0080480D01*
X0179962Y0080421D01*
X0179957Y0080360D01*
X0179955Y0080300D01*
X0183455Y0100800D02*
X0184455Y0100800D01*
X0183455Y0100800D02*
X0182955Y0101300D01*
X0173955Y0101300D01*
X0173455Y0100800D01*
X0172455Y0100800D01*
X0172395Y0100802D01*
X0172334Y0100807D01*
X0172275Y0100816D01*
X0172216Y0100829D01*
X0172157Y0100845D01*
X0172100Y0100865D01*
X0172045Y0100888D01*
X0171990Y0100915D01*
X0171938Y0100944D01*
X0171887Y0100977D01*
X0171838Y0101013D01*
X0171792Y0101051D01*
X0171748Y0101093D01*
X0171706Y0101137D01*
X0171668Y0101183D01*
X0171632Y0101232D01*
X0171599Y0101283D01*
X0171570Y0101335D01*
X0171543Y0101390D01*
X0171520Y0101445D01*
X0171500Y0101502D01*
X0171484Y0101561D01*
X0171471Y0101620D01*
X0171462Y0101679D01*
X0171457Y0101740D01*
X0171455Y0101800D01*
X0171455Y0106800D02*
X0171457Y0106860D01*
X0171462Y0106921D01*
X0171471Y0106980D01*
X0171484Y0107039D01*
X0171500Y0107098D01*
X0171520Y0107155D01*
X0171543Y0107210D01*
X0171570Y0107265D01*
X0171599Y0107317D01*
X0171632Y0107368D01*
X0171668Y0107417D01*
X0171706Y0107463D01*
X0171748Y0107507D01*
X0171792Y0107549D01*
X0171838Y0107587D01*
X0171887Y0107623D01*
X0171938Y0107656D01*
X0171990Y0107685D01*
X0172045Y0107712D01*
X0172100Y0107735D01*
X0172157Y0107755D01*
X0172216Y0107771D01*
X0172275Y0107784D01*
X0172334Y0107793D01*
X0172395Y0107798D01*
X0172455Y0107800D01*
X0173455Y0107800D01*
X0173955Y0107300D01*
X0182955Y0107300D01*
X0183455Y0107800D01*
X0184455Y0107800D01*
X0184515Y0107798D01*
X0184576Y0107793D01*
X0184635Y0107784D01*
X0184694Y0107771D01*
X0184753Y0107755D01*
X0184810Y0107735D01*
X0184865Y0107712D01*
X0184920Y0107685D01*
X0184972Y0107656D01*
X0185023Y0107623D01*
X0185072Y0107587D01*
X0185118Y0107549D01*
X0185162Y0107507D01*
X0185204Y0107463D01*
X0185242Y0107417D01*
X0185278Y0107368D01*
X0185311Y0107317D01*
X0185340Y0107265D01*
X0185367Y0107210D01*
X0185390Y0107155D01*
X0185410Y0107098D01*
X0185426Y0107039D01*
X0185439Y0106980D01*
X0185448Y0106921D01*
X0185453Y0106860D01*
X0185455Y0106800D01*
X0185455Y0101800D02*
X0185453Y0101740D01*
X0185448Y0101679D01*
X0185439Y0101620D01*
X0185426Y0101561D01*
X0185410Y0101502D01*
X0185390Y0101445D01*
X0185367Y0101390D01*
X0185340Y0101335D01*
X0185311Y0101283D01*
X0185278Y0101232D01*
X0185242Y0101183D01*
X0185204Y0101137D01*
X0185162Y0101093D01*
X0185118Y0101051D01*
X0185072Y0101013D01*
X0185023Y0100977D01*
X0184972Y0100944D01*
X0184920Y0100915D01*
X0184865Y0100888D01*
X0184810Y0100865D01*
X0184753Y0100845D01*
X0184694Y0100829D01*
X0184635Y0100816D01*
X0184576Y0100807D01*
X0184515Y0100802D01*
X0184455Y0100800D01*
X0249250Y0098664D02*
X0255655Y0098664D01*
X0255655Y0102934D01*
X0255655Y0105109D02*
X0255655Y0109380D01*
X0252452Y0107245D02*
X0252452Y0105109D01*
X0249250Y0105109D02*
X0255655Y0105109D01*
X0249250Y0105109D02*
X0249250Y0109380D01*
X0251385Y0096489D02*
X0255655Y0096489D01*
X0252452Y0096489D02*
X0252452Y0092218D01*
X0251385Y0092218D02*
X0249250Y0094354D01*
X0251385Y0096489D01*
X0251385Y0092218D02*
X0255655Y0092218D01*
X0255655Y0090043D02*
X0249250Y0090043D01*
X0251385Y0087908D01*
X0249250Y0085773D01*
X0255655Y0085773D01*
X0255655Y0083598D02*
X0255655Y0079327D01*
X0249250Y0079327D01*
X0249250Y0083598D01*
X0252452Y0081463D02*
X0252452Y0079327D01*
X0249250Y0077152D02*
X0249250Y0072882D01*
X0255655Y0072882D01*
X0252452Y0072882D02*
X0252452Y0075017D01*
X0252452Y0064261D02*
X0252452Y0059991D01*
X0251385Y0059991D02*
X0249250Y0062126D01*
X0251385Y0064261D01*
X0255655Y0064261D01*
X0255655Y0059991D02*
X0251385Y0059991D01*
X0252452Y0057816D02*
X0252452Y0055681D01*
X0250317Y0057816D02*
X0249250Y0056748D01*
X0249250Y0054613D01*
X0250317Y0053545D01*
X0254588Y0053545D01*
X0255655Y0054613D01*
X0255655Y0056748D01*
X0254588Y0057816D01*
X0252452Y0057816D01*
X0253520Y0051370D02*
X0249250Y0051370D01*
X0253520Y0051370D02*
X0255655Y0049235D01*
X0253520Y0047100D01*
X0249250Y0047100D01*
X0037661Y0047111D02*
X0037661Y0051382D01*
X0031255Y0051382D01*
X0031255Y0047111D01*
X0034458Y0049246D02*
X0034458Y0051382D01*
X0031255Y0053557D02*
X0031255Y0057827D01*
X0037661Y0057827D01*
X0035525Y0060002D02*
X0031255Y0060002D01*
X0034458Y0060002D02*
X0034458Y0064273D01*
X0035525Y0064273D02*
X0037661Y0062137D01*
X0035525Y0060002D01*
X0035525Y0064273D02*
X0031255Y0064273D01*
X0031255Y0066448D02*
X0037661Y0066448D01*
X0035525Y0068583D01*
X0037661Y0070718D01*
X0031255Y0070718D01*
X0031255Y0079339D02*
X0035525Y0079339D01*
X0037661Y0081474D01*
X0035525Y0083609D01*
X0031255Y0083609D01*
X0032323Y0085784D02*
X0034458Y0085784D01*
X0034458Y0087919D01*
X0036593Y0085784D02*
X0037661Y0086852D01*
X0037661Y0088987D01*
X0036593Y0090055D01*
X0032323Y0090055D01*
X0031255Y0088987D01*
X0031255Y0086852D01*
X0032323Y0085784D01*
X0034458Y0083609D02*
X0034458Y0079339D01*
X0033390Y0092230D02*
X0037661Y0092230D01*
X0033390Y0092230D02*
X0031255Y0094365D01*
X0033390Y0096500D01*
X0037661Y0096500D01*
D13*
X0120705Y0096301D02*
X0121456Y0095550D01*
X0122957Y0095550D01*
X0123708Y0096301D01*
X0123708Y0097051D01*
X0122957Y0097802D01*
X0121456Y0097802D01*
X0120705Y0098553D01*
X0120705Y0099303D01*
X0121456Y0100054D01*
X0122957Y0100054D01*
X0123708Y0099303D01*
X0125309Y0100054D02*
X0125309Y0095550D01*
X0126810Y0097051D01*
X0128312Y0095550D01*
X0128312Y0100054D01*
X0129913Y0098553D02*
X0131414Y0100054D01*
X0131414Y0095550D01*
X0129913Y0095550D02*
X0132916Y0095550D01*
X0133664Y0047304D02*
X0133664Y0045803D01*
X0132913Y0045053D01*
X0131312Y0045803D02*
X0130561Y0046554D01*
X0129060Y0046554D01*
X0128309Y0045803D01*
X0128309Y0042801D01*
X0129060Y0042050D01*
X0130561Y0042050D01*
X0131312Y0042801D01*
X0131312Y0044302D01*
X0129810Y0044302D01*
X0126708Y0045053D02*
X0126708Y0045803D01*
X0125957Y0046554D01*
X0124456Y0046554D01*
X0123705Y0045803D01*
X0126708Y0045053D02*
X0123705Y0042050D01*
X0126708Y0042050D01*
X0103812Y0042050D02*
X0102310Y0043551D01*
X0103061Y0043551D02*
X0100809Y0043551D01*
X0100809Y0042050D02*
X0100809Y0046554D01*
X0103061Y0046554D01*
X0103812Y0045803D01*
X0103812Y0044302D01*
X0103061Y0043551D01*
X0099208Y0042050D02*
X0096205Y0042050D01*
X0097706Y0042050D02*
X0097706Y0046554D01*
X0096205Y0045053D01*
X0151205Y0045803D02*
X0151956Y0046554D01*
X0153457Y0046554D01*
X0154208Y0045803D01*
X0154208Y0045053D01*
X0153457Y0044302D01*
X0154208Y0043551D01*
X0154208Y0042801D01*
X0153457Y0042050D01*
X0151956Y0042050D01*
X0151205Y0042801D01*
X0152706Y0044302D02*
X0153457Y0044302D01*
X0155809Y0044302D02*
X0158061Y0044302D01*
X0158812Y0043551D01*
X0158812Y0042801D01*
X0158061Y0042050D01*
X0155809Y0042050D01*
X0155809Y0046554D01*
X0158061Y0046554D01*
X0158812Y0045803D01*
X0158812Y0045053D01*
X0158061Y0044302D01*
X0178705Y0044302D02*
X0181708Y0044302D01*
X0183309Y0045803D02*
X0183309Y0042801D01*
X0184060Y0042050D01*
X0185561Y0042050D01*
X0186312Y0042801D01*
X0186312Y0044302D01*
X0184810Y0044302D01*
X0183309Y0045803D02*
X0184060Y0046554D01*
X0185561Y0046554D01*
X0186312Y0045803D01*
X0180957Y0046554D02*
X0178705Y0044302D01*
X0180957Y0042050D02*
X0180957Y0046554D01*
D14*
X0158455Y0068550D03*
X0158455Y0071050D03*
X0158455Y0073550D03*
X0148455Y0073550D03*
X0148455Y0071050D03*
X0148455Y0068550D03*
X0138455Y0068550D03*
X0138455Y0071050D03*
X0138455Y0073550D03*
X0128455Y0073550D03*
X0128455Y0071050D03*
X0128455Y0068550D03*
D15*
X0231135Y0075050D02*
X0233004Y0075050D01*
X0232770Y0074817D02*
X0232770Y0075284D01*
X0232537Y0075518D01*
X0232303Y0075518D01*
X0232069Y0075284D01*
X0232069Y0074817D01*
X0231836Y0074583D01*
X0231602Y0074583D01*
X0231369Y0074817D01*
X0231369Y0075284D01*
X0231602Y0075518D01*
X0231602Y0076057D02*
X0231369Y0076290D01*
X0231369Y0076757D01*
X0231602Y0076991D01*
X0231836Y0076991D01*
X0232770Y0076057D01*
X0232770Y0076991D01*
X0232770Y0074817D02*
X0232537Y0074583D01*
X0232537Y0074044D02*
X0231369Y0074044D01*
X0231369Y0073110D02*
X0232537Y0073110D01*
X0232770Y0073344D01*
X0232770Y0073811D01*
X0232537Y0074044D01*
D16*
X0191755Y0075802D02*
X0191171Y0075218D01*
X0191755Y0075802D02*
X0191755Y0076969D01*
X0191171Y0077553D01*
X0190004Y0077553D01*
X0189420Y0076969D01*
X0189420Y0076386D01*
X0190004Y0075218D01*
X0188252Y0075218D01*
X0188252Y0077553D01*
X0188252Y0078809D02*
X0188252Y0080560D01*
X0188836Y0081144D01*
X0190004Y0081144D01*
X0190587Y0080560D01*
X0190587Y0078809D01*
X0190587Y0079977D02*
X0191755Y0081144D01*
X0191755Y0078809D02*
X0188252Y0078809D01*
X0188252Y0073962D02*
X0188836Y0073962D01*
X0191171Y0071627D01*
X0191755Y0071627D01*
X0188252Y0071627D02*
X0188252Y0073962D01*
X0176682Y0109100D02*
X0174930Y0110851D01*
X0174346Y0110268D02*
X0176682Y0112603D01*
X0174346Y0112603D02*
X0174346Y0109100D01*
X0173090Y0109100D02*
X0170755Y0109100D01*
X0171923Y0109100D02*
X0171923Y0112603D01*
X0170755Y0111435D01*
X0145273Y0110851D02*
X0144689Y0110268D01*
X0142937Y0110268D01*
X0144105Y0110268D02*
X0145273Y0109100D01*
X0142937Y0109100D02*
X0142937Y0112603D01*
X0144689Y0112603D01*
X0145273Y0112019D01*
X0145273Y0110851D01*
X0141682Y0109100D02*
X0139346Y0109100D01*
X0140514Y0109100D02*
X0140514Y0112603D01*
X0139346Y0111435D01*
X0138090Y0110851D02*
X0136339Y0110851D01*
X0135755Y0111435D01*
X0135755Y0112019D01*
X0136339Y0112603D01*
X0137507Y0112603D01*
X0138090Y0112019D01*
X0138090Y0109684D01*
X0137507Y0109100D01*
X0136339Y0109100D01*
X0135755Y0109684D01*
X0113864Y0109100D02*
X0112696Y0110268D01*
X0113280Y0110268D02*
X0111528Y0110268D01*
X0111528Y0109100D02*
X0111528Y0112603D01*
X0113280Y0112603D01*
X0113864Y0112019D01*
X0113864Y0110851D01*
X0113280Y0110268D01*
X0110273Y0109684D02*
X0109689Y0109100D01*
X0108521Y0109100D01*
X0107937Y0109684D01*
X0110273Y0112019D01*
X0110273Y0109684D01*
X0110273Y0112019D02*
X0109689Y0112603D01*
X0108521Y0112603D01*
X0107937Y0112019D01*
X0107937Y0109684D01*
X0106682Y0109684D02*
X0106098Y0109100D01*
X0104930Y0109100D01*
X0104346Y0109684D01*
X0103090Y0109684D02*
X0102507Y0109100D01*
X0101339Y0109100D01*
X0100755Y0109684D01*
X0101923Y0110851D02*
X0102507Y0110851D01*
X0103090Y0110268D01*
X0103090Y0109684D01*
X0102507Y0110851D02*
X0103090Y0111435D01*
X0103090Y0112019D01*
X0102507Y0112603D01*
X0101339Y0112603D01*
X0100755Y0112019D01*
X0104346Y0112019D02*
X0104930Y0112603D01*
X0106098Y0112603D01*
X0106682Y0112019D01*
X0106682Y0111435D01*
X0106098Y0110851D01*
X0106682Y0110268D01*
X0106682Y0109684D01*
X0106098Y0110851D02*
X0105514Y0110851D01*
X0118532Y0129500D02*
X0118532Y0134104D01*
X0120066Y0132569D01*
X0121601Y0134104D01*
X0121601Y0129500D01*
X0121601Y0134104D01*
X0120066Y0132569D01*
X0118532Y0134104D01*
X0118532Y0129500D01*
X0123135Y0130267D02*
X0123903Y0129500D01*
X0125437Y0129500D01*
X0126205Y0130267D01*
X0126205Y0133337D01*
X0125437Y0134104D01*
X0123903Y0134104D01*
X0123135Y0133337D01*
X0123135Y0130267D01*
X0123903Y0129500D01*
X0125437Y0129500D01*
X0126205Y0130267D01*
X0126205Y0133337D01*
X0125437Y0134104D01*
X0123903Y0134104D01*
X0123135Y0133337D01*
X0123135Y0130267D01*
X0127739Y0129500D02*
X0127739Y0134104D01*
X0130809Y0129500D01*
X0130809Y0134104D01*
X0130809Y0129500D01*
X0127739Y0134104D01*
X0127739Y0129500D01*
X0132343Y0130267D02*
X0132343Y0133337D01*
X0133111Y0134104D01*
X0134645Y0134104D01*
X0135413Y0133337D01*
X0135413Y0130267D01*
X0134645Y0129500D01*
X0133111Y0129500D01*
X0132343Y0130267D01*
X0133111Y0129500D01*
X0134645Y0129500D01*
X0135413Y0130267D01*
X0135413Y0133337D01*
X0134645Y0134104D01*
X0133111Y0134104D01*
X0132343Y0133337D01*
X0132343Y0130267D01*
X0136947Y0131802D02*
X0140016Y0129500D01*
X0136947Y0131802D01*
X0140016Y0134104D01*
X0136947Y0131802D01*
X0141551Y0131802D02*
X0144620Y0131802D01*
X0141551Y0131802D01*
X0146155Y0129500D02*
X0149224Y0131802D01*
X0146155Y0134104D01*
X0149224Y0131802D01*
X0146155Y0129500D01*
X0150759Y0130267D02*
X0150759Y0133337D01*
X0151526Y0134104D01*
X0153061Y0134104D01*
X0153828Y0133337D01*
X0153061Y0134104D01*
X0151526Y0134104D01*
X0150759Y0133337D01*
X0150759Y0130267D01*
X0151526Y0129500D01*
X0153061Y0129500D01*
X0153828Y0130267D01*
X0153061Y0129500D01*
X0151526Y0129500D01*
X0150759Y0130267D01*
X0155363Y0130267D02*
X0155363Y0133337D01*
X0156130Y0134104D01*
X0157665Y0134104D01*
X0158432Y0133337D01*
X0158432Y0130267D01*
X0157665Y0129500D01*
X0156130Y0129500D01*
X0155363Y0130267D01*
X0156130Y0129500D01*
X0157665Y0129500D01*
X0158432Y0130267D01*
X0158432Y0133337D01*
X0157665Y0134104D01*
X0156130Y0134104D01*
X0155363Y0133337D01*
X0155363Y0130267D01*
X0159967Y0129500D02*
X0163036Y0129500D01*
X0159967Y0129500D01*
X0159967Y0134104D01*
X0159967Y0129500D01*
X0164571Y0130267D02*
X0164571Y0133337D01*
X0165338Y0134104D01*
X0166873Y0134104D01*
X0167640Y0133337D01*
X0167640Y0130267D01*
X0166873Y0129500D01*
X0165338Y0129500D01*
X0164571Y0130267D01*
X0165338Y0129500D01*
X0166873Y0129500D01*
X0167640Y0130267D01*
X0167640Y0133337D01*
X0166873Y0134104D01*
X0165338Y0134104D01*
X0164571Y0133337D01*
X0164571Y0130267D01*
X0169175Y0129500D02*
X0169175Y0134104D01*
X0171477Y0134104D01*
X0172244Y0133337D01*
X0172244Y0131802D01*
X0171477Y0131035D01*
X0169175Y0131035D01*
X0171477Y0131035D01*
X0172244Y0131802D01*
X0172244Y0133337D01*
X0171477Y0134104D01*
X0169175Y0134104D01*
X0169175Y0129500D01*
X0170709Y0131035D02*
X0172244Y0129500D01*
X0170709Y0131035D01*
D17*
X0175483Y0125894D02*
X0175483Y0143611D01*
X0126270Y0143611D01*
X0116428Y0139674D02*
X0116428Y0119989D01*
X0165640Y0119989D01*
D18*
X0165640Y0118020D02*
X0165640Y0118020D01*
X0165642Y0118059D01*
X0165648Y0118097D01*
X0165657Y0118134D01*
X0165670Y0118171D01*
X0165687Y0118206D01*
X0165706Y0118239D01*
X0165729Y0118270D01*
X0165755Y0118299D01*
X0165784Y0118325D01*
X0165815Y0118348D01*
X0165848Y0118367D01*
X0165883Y0118384D01*
X0165920Y0118397D01*
X0165957Y0118406D01*
X0165995Y0118412D01*
X0166034Y0118414D01*
X0166073Y0118412D01*
X0166111Y0118406D01*
X0166148Y0118397D01*
X0166185Y0118384D01*
X0166220Y0118367D01*
X0166253Y0118348D01*
X0166284Y0118325D01*
X0166313Y0118299D01*
X0166339Y0118270D01*
X0166362Y0118239D01*
X0166381Y0118206D01*
X0166398Y0118171D01*
X0166411Y0118134D01*
X0166420Y0118097D01*
X0166426Y0118059D01*
X0166428Y0118020D01*
X0166428Y0118020D01*
X0166426Y0117981D01*
X0166420Y0117943D01*
X0166411Y0117906D01*
X0166398Y0117869D01*
X0166381Y0117834D01*
X0166362Y0117801D01*
X0166339Y0117770D01*
X0166313Y0117741D01*
X0166284Y0117715D01*
X0166253Y0117692D01*
X0166220Y0117673D01*
X0166185Y0117656D01*
X0166148Y0117643D01*
X0166111Y0117634D01*
X0166073Y0117628D01*
X0166034Y0117626D01*
X0165995Y0117628D01*
X0165957Y0117634D01*
X0165920Y0117643D01*
X0165883Y0117656D01*
X0165848Y0117673D01*
X0165815Y0117692D01*
X0165784Y0117715D01*
X0165755Y0117741D01*
X0165729Y0117770D01*
X0165706Y0117801D01*
X0165687Y0117834D01*
X0165670Y0117869D01*
X0165657Y0117906D01*
X0165648Y0117943D01*
X0165642Y0117981D01*
X0165640Y0118020D01*
D19*
X0155455Y0036800D03*
X0182955Y0036800D03*
X0127955Y0036800D03*
X0100455Y0036800D03*
M02*
