%
M48
M72
T01C0.02400
T02C0.03150
T03C0.03200
T04C0.04000
T05C0.04921
T06C0.05512
T07C0.13000
%
T01
X114705Y58050
X102830Y114300
X110955Y121800
X113455Y131175
T02
X126270Y126879
X134144Y126879
X142018Y126879
X149892Y126879
X157766Y126879
X165640Y126879
X165640Y136721
X157766Y136721
X149892Y136721
X142018Y136721
X134144Y136721
X126270Y136721
T03
X93455Y36800
X113455Y36800
X120955Y36800
X140955Y36800
X148455Y36800
X168455Y36800
X175955Y36800
X195955Y36800
X158455Y59300
X148455Y59300
X138455Y59300
X128455Y59300
X128455Y89300
X138455Y89300
X148455Y89300
X158455Y89300
X183455Y84300
X183455Y64300
X188455Y104300
X168455Y104300
X153455Y104300
X133455Y104300
X118455Y104300
X98455Y104300
T04
X60955Y55245
X70955Y59733
X60955Y64261
X70955Y68749
X60955Y73276
X70955Y77765
X60955Y82292
X70955Y86780
X60955Y91308
X70955Y95796
X80955Y91308
X80955Y82292
X80955Y73276
X80955Y64261
X80955Y55245
X205955Y55245
X215955Y59733
X225955Y55245
X225955Y64261
X215955Y68749
X225955Y73276
X215955Y77765
X225955Y82292
X215955Y86780
X225955Y91308
X215955Y95796
X205955Y91308
X205955Y82292
X205955Y73276
X205955Y64261
T05
X119971Y142824
X171939Y120776
T06
X30955Y6800
X255955Y6800
X255955Y141800
X30955Y141800
T07
X70955Y123513
X215955Y123513
X215955Y25087
X70955Y25087
M30
