G04 #@! TF.GenerationSoftware,KiCad,Pcbnew,(5.1.4)-1*
G04 #@! TF.CreationDate,2019-12-21T06:29:15+01:00*
G04 #@! TF.ProjectId,RTC8088,52544338-3038-4382-9e6b-696361645f70,rev?*
G04 #@! TF.SameCoordinates,Original*
G04 #@! TF.FileFunction,Copper,L2,Bot*
G04 #@! TF.FilePolarity,Positive*
%FSLAX46Y46*%
G04 Gerber Fmt 4.6, Leading zero omitted, Abs format (unit mm)*
G04 Created by KiCad (PCBNEW (5.1.4)-1) date 2019-12-21 06:29:15*
%MOMM*%
%LPD*%
G04 APERTURE LIST*
%ADD10R,1.397000X1.397000*%
%ADD11C,1.397000*%
%ADD12R,1.778000X7.620000*%
%ADD13C,1.524000*%
%ADD14R,1.700000X1.700000*%
%ADD15O,1.700000X1.700000*%
%ADD16C,0.800000*%
%ADD17C,0.250000*%
%ADD18C,0.500000*%
%ADD19C,0.254000*%
G04 APERTURE END LIST*
D10*
X105410000Y-95250000D03*
D11*
X107950000Y-95250000D03*
X110490000Y-95250000D03*
X113030000Y-95250000D03*
X115570000Y-95250000D03*
X118110000Y-95250000D03*
X120650000Y-95250000D03*
X123190000Y-95250000D03*
X125730000Y-95250000D03*
X128270000Y-95250000D03*
X128270000Y-87630000D03*
X125730000Y-87630000D03*
X123190000Y-87630000D03*
X120650000Y-87630000D03*
X118110000Y-87630000D03*
X115570000Y-87630000D03*
X113030000Y-87630000D03*
X110490000Y-87630000D03*
X107950000Y-87630000D03*
X105410000Y-87630000D03*
D12*
X184150000Y-102870000D03*
X179070000Y-102870000D03*
X176530000Y-102870000D03*
X161290000Y-102870000D03*
X153670000Y-102870000D03*
X151130000Y-102870000D03*
X133350000Y-102870000D03*
X130810000Y-102870000D03*
X128270000Y-102870000D03*
X125730000Y-102870000D03*
X123190000Y-102870000D03*
X107950000Y-102870000D03*
D13*
X141484806Y-75280520D03*
X141484806Y-95280480D03*
X116840000Y-73660000D03*
X114300000Y-73660000D03*
D10*
X158750000Y-87630000D03*
D11*
X161290000Y-87630000D03*
X163830000Y-87630000D03*
X166370000Y-87630000D03*
X168910000Y-87630000D03*
X171450000Y-87630000D03*
X173990000Y-87630000D03*
X176530000Y-87630000D03*
X179070000Y-87630000D03*
X181610000Y-87630000D03*
X184150000Y-87630000D03*
X186690000Y-87630000D03*
X186690000Y-72390000D03*
X184150000Y-72390000D03*
X181610000Y-72390000D03*
X179070000Y-72390000D03*
X176530000Y-72390000D03*
X173990000Y-72390000D03*
X171450000Y-72390000D03*
X168910000Y-72390000D03*
X166370000Y-72390000D03*
X163830000Y-72390000D03*
X161290000Y-72390000D03*
X158750000Y-72390000D03*
X158750000Y-95250000D03*
X158750000Y-92710000D03*
D14*
X121920000Y-78740000D03*
D15*
X121920000Y-81280000D03*
X119380000Y-78740000D03*
X119380000Y-81280000D03*
X116840000Y-78740000D03*
X116840000Y-81280000D03*
X114300000Y-78740000D03*
X114300000Y-81280000D03*
X111760000Y-78740000D03*
X111760000Y-81280000D03*
X109220000Y-78740000D03*
X109220000Y-81280000D03*
D16*
X187452000Y-94869000D03*
X155448000Y-98298000D03*
X106680000Y-92202000D03*
D17*
X106680000Y-96393000D02*
X106680000Y-92202000D01*
X107950000Y-102870000D02*
X107950000Y-97663000D01*
X107950000Y-97663000D02*
X106680000Y-96393000D01*
X161290000Y-99949000D02*
X161290000Y-102870000D01*
X159639000Y-98298000D02*
X161290000Y-99949000D01*
X155448000Y-98298000D02*
X159639000Y-98298000D01*
X184658000Y-94869000D02*
X187452000Y-94869000D01*
X184150000Y-102870000D02*
X184150000Y-95377000D01*
X184150000Y-95377000D02*
X184658000Y-94869000D01*
D18*
X106299000Y-70358000D02*
X158242000Y-70358000D01*
X105410000Y-87630000D02*
X105410000Y-71247000D01*
X105410000Y-71247000D02*
X106299000Y-70358000D01*
X188722000Y-70358000D02*
X188214000Y-70358000D01*
X179070000Y-102870000D02*
X179070000Y-97536000D01*
X189230000Y-90000000D02*
X189230000Y-70866000D01*
X189230000Y-70866000D02*
X188722000Y-70358000D01*
X173990000Y-71402172D02*
X173990000Y-70358000D01*
X173990000Y-72390000D02*
X173990000Y-71402172D01*
X188214000Y-70358000D02*
X173990000Y-70358000D01*
X158750000Y-71402172D02*
X158750000Y-70358000D01*
X158750000Y-72390000D02*
X158750000Y-71402172D01*
X173990000Y-70358000D02*
X158750000Y-70358000D01*
X158750000Y-70358000D02*
X158242000Y-70358000D01*
X189230000Y-90000000D02*
X189230000Y-91313000D01*
X189230000Y-91313000D02*
X188468000Y-92075000D01*
X188468000Y-92075000D02*
X179959000Y-92075000D01*
X179070000Y-92964000D02*
X179070000Y-97536000D01*
X179959000Y-92075000D02*
X179070000Y-92964000D01*
D17*
X168275000Y-84963000D02*
X168910000Y-84328000D01*
X155956000Y-84963000D02*
X168275000Y-84963000D01*
X155201501Y-86606499D02*
X155201501Y-85717499D01*
X141484806Y-94100194D02*
X142240000Y-93345000D01*
X155201501Y-85717499D02*
X155956000Y-84963000D01*
X141484806Y-95280480D02*
X141484806Y-94100194D01*
X168910000Y-84328000D02*
X168910000Y-72390000D01*
X154051000Y-93345000D02*
X155194000Y-92202000D01*
X142240000Y-93345000D02*
X154051000Y-93345000D01*
X155194000Y-92202000D02*
X155194000Y-86614000D01*
X155194000Y-86614000D02*
X155201501Y-86606499D01*
X134493000Y-81280000D02*
X121920000Y-81280000D01*
X176530000Y-97536000D02*
X175895000Y-96901000D01*
X176530000Y-102870000D02*
X176530000Y-97536000D01*
X175895000Y-96901000D02*
X136271000Y-96901000D01*
X136271000Y-96901000D02*
X135393018Y-96023018D01*
X135393018Y-96023018D02*
X135393018Y-82180018D01*
X135393018Y-82180018D02*
X134493000Y-81280000D01*
X126422990Y-92640990D02*
X125730000Y-91948000D01*
X133917400Y-92640990D02*
X126422990Y-92640990D01*
X153670000Y-97917000D02*
X153219991Y-97466991D01*
X125730000Y-91948000D02*
X125730000Y-87630000D01*
X153670000Y-102870000D02*
X153670000Y-97917000D01*
X153219991Y-97466991D02*
X135566991Y-97466991D01*
X135566991Y-97466991D02*
X134943010Y-96843010D01*
X134943010Y-96843010D02*
X134943009Y-93666599D01*
X134943009Y-93666599D02*
X133917400Y-92640990D01*
X123190000Y-92456000D02*
X123190000Y-87630000D01*
X123825000Y-93091000D02*
X123190000Y-92456000D01*
X133731000Y-93091000D02*
X123825000Y-93091000D01*
X151130000Y-98552000D02*
X150495000Y-97917000D01*
X150495000Y-97917000D02*
X135128000Y-97917000D01*
X135128000Y-97917000D02*
X134493000Y-97282000D01*
X134493000Y-97282000D02*
X134493000Y-93853000D01*
X134493000Y-93853000D02*
X133731000Y-93091000D01*
X151130000Y-102870000D02*
X151130000Y-98552000D01*
X119380000Y-81280000D02*
X119380000Y-82296000D01*
X119380000Y-81407000D02*
X119380000Y-82296000D01*
X119380000Y-89662000D02*
X119380000Y-82296000D01*
X119380000Y-96000000D02*
X119380000Y-89662000D01*
X119819973Y-96439973D02*
X119380000Y-96000000D01*
X132888973Y-96439973D02*
X119819973Y-96439973D01*
X133350000Y-96901000D02*
X132888973Y-96439973D01*
X133350000Y-102870000D02*
X133350000Y-96901000D01*
X116840000Y-81280000D02*
X116840000Y-82296000D01*
X116840000Y-81407000D02*
X116840000Y-82296000D01*
X116840000Y-89789000D02*
X116840000Y-82296000D01*
X116840000Y-96393000D02*
X116840000Y-89789000D01*
X117336982Y-96889982D02*
X116840000Y-96393000D01*
X130544982Y-96889982D02*
X117336982Y-96889982D01*
X130810000Y-102870000D02*
X130810000Y-97155000D01*
X130810000Y-97155000D02*
X130544982Y-96889982D01*
X114300000Y-81280000D02*
X114300000Y-82423000D01*
X114300000Y-81407000D02*
X114300000Y-82423000D01*
X114300000Y-90551000D02*
X114300000Y-82423000D01*
X114300000Y-97028000D02*
X114300000Y-90551000D01*
X114611991Y-97339991D02*
X114300000Y-97028000D01*
X127565991Y-97339991D02*
X114611991Y-97339991D01*
X128270000Y-102870000D02*
X128270000Y-98044000D01*
X128270000Y-98044000D02*
X127565991Y-97339991D01*
X111760000Y-91059000D02*
X111760000Y-81280000D01*
X111760000Y-97409000D02*
X111760000Y-91059000D01*
X112141000Y-97790000D02*
X111760000Y-97409000D01*
X125222000Y-97790000D02*
X112141000Y-97790000D01*
X125730000Y-102870000D02*
X125730000Y-98298000D01*
X125730000Y-98298000D02*
X125222000Y-97790000D01*
X109220000Y-81280000D02*
X109220000Y-82423000D01*
X109220000Y-82042000D02*
X109220000Y-82423000D01*
X109220000Y-91440000D02*
X109220000Y-82423000D01*
X109220000Y-97917000D02*
X109220000Y-91440000D01*
X109601000Y-98298000D02*
X109220000Y-97917000D01*
X122809000Y-98298000D02*
X109601000Y-98298000D01*
X123190000Y-102870000D02*
X123190000Y-98679000D01*
X123190000Y-98679000D02*
X122809000Y-98298000D01*
D19*
G36*
X105703953Y-69701468D02*
G01*
X105703951Y-69701470D01*
X105670183Y-69729183D01*
X105642470Y-69762951D01*
X104814951Y-70590471D01*
X104781184Y-70618183D01*
X104753471Y-70651951D01*
X104753468Y-70651954D01*
X104670590Y-70752941D01*
X104588412Y-70906687D01*
X104537805Y-71073510D01*
X104520719Y-71247000D01*
X104525001Y-71290479D01*
X104525000Y-86629146D01*
X104374203Y-86779943D01*
X104228268Y-86998351D01*
X104127746Y-87241032D01*
X104076500Y-87498662D01*
X104076500Y-87761338D01*
X104127746Y-88018968D01*
X104228268Y-88261649D01*
X104374203Y-88480057D01*
X104559943Y-88665797D01*
X104778351Y-88811732D01*
X105021032Y-88912254D01*
X105278662Y-88963500D01*
X105541338Y-88963500D01*
X105798968Y-88912254D01*
X106041649Y-88811732D01*
X106260057Y-88665797D01*
X106445797Y-88480057D01*
X106591732Y-88261649D01*
X106680000Y-88048552D01*
X106768268Y-88261649D01*
X106914203Y-88480057D01*
X107099943Y-88665797D01*
X107318351Y-88811732D01*
X107561032Y-88912254D01*
X107818662Y-88963500D01*
X108081338Y-88963500D01*
X108338968Y-88912254D01*
X108460000Y-88862121D01*
X108460000Y-91477332D01*
X108460001Y-91477342D01*
X108460001Y-94017879D01*
X108338968Y-93967746D01*
X108081338Y-93916500D01*
X107818662Y-93916500D01*
X107561032Y-93967746D01*
X107318351Y-94068268D01*
X107099943Y-94214203D01*
X106914203Y-94399943D01*
X106768268Y-94618351D01*
X106746572Y-94670730D01*
X106746572Y-94551500D01*
X106734312Y-94427018D01*
X106698002Y-94307320D01*
X106639037Y-94197006D01*
X106559685Y-94100315D01*
X106462994Y-94020963D01*
X106352680Y-93961998D01*
X106232982Y-93925688D01*
X106108500Y-93913428D01*
X104711500Y-93913428D01*
X104587018Y-93925688D01*
X104467320Y-93961998D01*
X104357006Y-94020963D01*
X104260315Y-94100315D01*
X104180963Y-94197006D01*
X104121998Y-94307320D01*
X104085688Y-94427018D01*
X104073428Y-94551500D01*
X104073428Y-95948500D01*
X104085688Y-96072982D01*
X104121998Y-96192680D01*
X104180963Y-96302994D01*
X104260315Y-96399685D01*
X104357006Y-96479037D01*
X104467320Y-96538002D01*
X104587018Y-96574312D01*
X104711500Y-96586572D01*
X106108500Y-96586572D01*
X106232982Y-96574312D01*
X106352680Y-96538002D01*
X106462994Y-96479037D01*
X106559685Y-96399685D01*
X106639037Y-96302994D01*
X106698002Y-96192680D01*
X106734312Y-96072982D01*
X106746572Y-95948500D01*
X106746572Y-95829270D01*
X106768268Y-95881649D01*
X106914203Y-96100057D01*
X107099943Y-96285797D01*
X107318351Y-96431732D01*
X107561032Y-96532254D01*
X107818662Y-96583500D01*
X108081338Y-96583500D01*
X108338968Y-96532254D01*
X108460000Y-96482121D01*
X108460000Y-97879677D01*
X108456324Y-97917000D01*
X108460000Y-97954322D01*
X108460000Y-97954332D01*
X108470997Y-98065985D01*
X108503319Y-98172537D01*
X108514454Y-98209246D01*
X108585026Y-98341276D01*
X108622348Y-98386753D01*
X108651997Y-98422880D01*
X108235750Y-98425000D01*
X108077000Y-98583750D01*
X108077000Y-99060000D01*
X107823000Y-99060000D01*
X107823000Y-98583750D01*
X107664250Y-98425000D01*
X107061000Y-98421928D01*
X106936518Y-98434188D01*
X106816820Y-98470498D01*
X106706506Y-98529463D01*
X106609815Y-98608815D01*
X106530463Y-98705506D01*
X106471498Y-98815820D01*
X106435188Y-98935518D01*
X106422928Y-99060000D01*
X106070000Y-99060000D01*
X106070000Y-98032419D01*
X106073193Y-98000000D01*
X106060450Y-97870617D01*
X106022710Y-97746207D01*
X105961425Y-97631550D01*
X105878948Y-97531052D01*
X105778450Y-97448575D01*
X105663793Y-97387290D01*
X105539383Y-97349550D01*
X105442419Y-97340000D01*
X105410000Y-97336807D01*
X105377581Y-97340000D01*
X102660000Y-97340000D01*
X102660000Y-69660000D01*
X105754482Y-69660000D01*
X105703953Y-69701468D01*
X105703953Y-69701468D01*
G37*
X105703953Y-69701468D02*
X105703951Y-69701470D01*
X105670183Y-69729183D01*
X105642470Y-69762951D01*
X104814951Y-70590471D01*
X104781184Y-70618183D01*
X104753471Y-70651951D01*
X104753468Y-70651954D01*
X104670590Y-70752941D01*
X104588412Y-70906687D01*
X104537805Y-71073510D01*
X104520719Y-71247000D01*
X104525001Y-71290479D01*
X104525000Y-86629146D01*
X104374203Y-86779943D01*
X104228268Y-86998351D01*
X104127746Y-87241032D01*
X104076500Y-87498662D01*
X104076500Y-87761338D01*
X104127746Y-88018968D01*
X104228268Y-88261649D01*
X104374203Y-88480057D01*
X104559943Y-88665797D01*
X104778351Y-88811732D01*
X105021032Y-88912254D01*
X105278662Y-88963500D01*
X105541338Y-88963500D01*
X105798968Y-88912254D01*
X106041649Y-88811732D01*
X106260057Y-88665797D01*
X106445797Y-88480057D01*
X106591732Y-88261649D01*
X106680000Y-88048552D01*
X106768268Y-88261649D01*
X106914203Y-88480057D01*
X107099943Y-88665797D01*
X107318351Y-88811732D01*
X107561032Y-88912254D01*
X107818662Y-88963500D01*
X108081338Y-88963500D01*
X108338968Y-88912254D01*
X108460000Y-88862121D01*
X108460000Y-91477332D01*
X108460001Y-91477342D01*
X108460001Y-94017879D01*
X108338968Y-93967746D01*
X108081338Y-93916500D01*
X107818662Y-93916500D01*
X107561032Y-93967746D01*
X107318351Y-94068268D01*
X107099943Y-94214203D01*
X106914203Y-94399943D01*
X106768268Y-94618351D01*
X106746572Y-94670730D01*
X106746572Y-94551500D01*
X106734312Y-94427018D01*
X106698002Y-94307320D01*
X106639037Y-94197006D01*
X106559685Y-94100315D01*
X106462994Y-94020963D01*
X106352680Y-93961998D01*
X106232982Y-93925688D01*
X106108500Y-93913428D01*
X104711500Y-93913428D01*
X104587018Y-93925688D01*
X104467320Y-93961998D01*
X104357006Y-94020963D01*
X104260315Y-94100315D01*
X104180963Y-94197006D01*
X104121998Y-94307320D01*
X104085688Y-94427018D01*
X104073428Y-94551500D01*
X104073428Y-95948500D01*
X104085688Y-96072982D01*
X104121998Y-96192680D01*
X104180963Y-96302994D01*
X104260315Y-96399685D01*
X104357006Y-96479037D01*
X104467320Y-96538002D01*
X104587018Y-96574312D01*
X104711500Y-96586572D01*
X106108500Y-96586572D01*
X106232982Y-96574312D01*
X106352680Y-96538002D01*
X106462994Y-96479037D01*
X106559685Y-96399685D01*
X106639037Y-96302994D01*
X106698002Y-96192680D01*
X106734312Y-96072982D01*
X106746572Y-95948500D01*
X106746572Y-95829270D01*
X106768268Y-95881649D01*
X106914203Y-96100057D01*
X107099943Y-96285797D01*
X107318351Y-96431732D01*
X107561032Y-96532254D01*
X107818662Y-96583500D01*
X108081338Y-96583500D01*
X108338968Y-96532254D01*
X108460000Y-96482121D01*
X108460000Y-97879677D01*
X108456324Y-97917000D01*
X108460000Y-97954322D01*
X108460000Y-97954332D01*
X108470997Y-98065985D01*
X108503319Y-98172537D01*
X108514454Y-98209246D01*
X108585026Y-98341276D01*
X108622348Y-98386753D01*
X108651997Y-98422880D01*
X108235750Y-98425000D01*
X108077000Y-98583750D01*
X108077000Y-99060000D01*
X107823000Y-99060000D01*
X107823000Y-98583750D01*
X107664250Y-98425000D01*
X107061000Y-98421928D01*
X106936518Y-98434188D01*
X106816820Y-98470498D01*
X106706506Y-98529463D01*
X106609815Y-98608815D01*
X106530463Y-98705506D01*
X106471498Y-98815820D01*
X106435188Y-98935518D01*
X106422928Y-99060000D01*
X106070000Y-99060000D01*
X106070000Y-98032419D01*
X106073193Y-98000000D01*
X106060450Y-97870617D01*
X106022710Y-97746207D01*
X105961425Y-97631550D01*
X105878948Y-97531052D01*
X105778450Y-97448575D01*
X105663793Y-97387290D01*
X105539383Y-97349550D01*
X105442419Y-97340000D01*
X105410000Y-97336807D01*
X105377581Y-97340000D01*
X102660000Y-97340000D01*
X102660000Y-69660000D01*
X105754482Y-69660000D01*
X105703953Y-69701468D01*
G36*
X175770001Y-97850803D02*
G01*
X175770001Y-98421928D01*
X175641000Y-98421928D01*
X175516518Y-98434188D01*
X175396820Y-98470498D01*
X175286506Y-98529463D01*
X175189815Y-98608815D01*
X175110463Y-98705506D01*
X175051498Y-98815820D01*
X175015188Y-98935518D01*
X175002928Y-99060000D01*
X162817072Y-99060000D01*
X162804812Y-98935518D01*
X162768502Y-98815820D01*
X162709537Y-98705506D01*
X162630185Y-98608815D01*
X162533494Y-98529463D01*
X162423180Y-98470498D01*
X162303482Y-98434188D01*
X162179000Y-98421928D01*
X161575750Y-98425000D01*
X161417000Y-98583750D01*
X161417000Y-99060000D01*
X161163000Y-99060000D01*
X161163000Y-98583750D01*
X161004250Y-98425000D01*
X160401000Y-98421928D01*
X160276518Y-98434188D01*
X160156820Y-98470498D01*
X160046506Y-98529463D01*
X159949815Y-98608815D01*
X159870463Y-98705506D01*
X159811498Y-98815820D01*
X159775188Y-98935518D01*
X159762928Y-99060000D01*
X155197072Y-99060000D01*
X155184812Y-98935518D01*
X155148502Y-98815820D01*
X155089537Y-98705506D01*
X155010185Y-98608815D01*
X154913494Y-98529463D01*
X154803180Y-98470498D01*
X154683482Y-98434188D01*
X154559000Y-98421928D01*
X154430000Y-98421928D01*
X154430000Y-97954323D01*
X154433676Y-97917000D01*
X154430000Y-97879677D01*
X154430000Y-97879667D01*
X154419003Y-97768014D01*
X154386541Y-97661000D01*
X175580199Y-97661000D01*
X175770001Y-97850803D01*
X175770001Y-97850803D01*
G37*
X175770001Y-97850803D02*
X175770001Y-98421928D01*
X175641000Y-98421928D01*
X175516518Y-98434188D01*
X175396820Y-98470498D01*
X175286506Y-98529463D01*
X175189815Y-98608815D01*
X175110463Y-98705506D01*
X175051498Y-98815820D01*
X175015188Y-98935518D01*
X175002928Y-99060000D01*
X162817072Y-99060000D01*
X162804812Y-98935518D01*
X162768502Y-98815820D01*
X162709537Y-98705506D01*
X162630185Y-98608815D01*
X162533494Y-98529463D01*
X162423180Y-98470498D01*
X162303482Y-98434188D01*
X162179000Y-98421928D01*
X161575750Y-98425000D01*
X161417000Y-98583750D01*
X161417000Y-99060000D01*
X161163000Y-99060000D01*
X161163000Y-98583750D01*
X161004250Y-98425000D01*
X160401000Y-98421928D01*
X160276518Y-98434188D01*
X160156820Y-98470498D01*
X160046506Y-98529463D01*
X159949815Y-98608815D01*
X159870463Y-98705506D01*
X159811498Y-98815820D01*
X159775188Y-98935518D01*
X159762928Y-99060000D01*
X155197072Y-99060000D01*
X155184812Y-98935518D01*
X155148502Y-98815820D01*
X155089537Y-98705506D01*
X155010185Y-98608815D01*
X154913494Y-98529463D01*
X154803180Y-98470498D01*
X154683482Y-98434188D01*
X154559000Y-98421928D01*
X154430000Y-98421928D01*
X154430000Y-97954323D01*
X154433676Y-97917000D01*
X154430000Y-97879677D01*
X154430000Y-97879667D01*
X154419003Y-97768014D01*
X154386541Y-97661000D01*
X175580199Y-97661000D01*
X175770001Y-97850803D01*
G36*
X189340001Y-97340000D02*
G01*
X186722419Y-97340000D01*
X186690000Y-97336807D01*
X186657581Y-97340000D01*
X186560617Y-97349550D01*
X186436207Y-97387290D01*
X186321550Y-97448575D01*
X186221052Y-97531052D01*
X186138575Y-97631550D01*
X186077290Y-97746207D01*
X186039550Y-97870617D01*
X186026807Y-98000000D01*
X186030000Y-98032419D01*
X186030000Y-98203419D01*
X186030001Y-98203429D01*
X186030001Y-99060000D01*
X185677072Y-99060000D01*
X185664812Y-98935518D01*
X185628502Y-98815820D01*
X185569537Y-98705506D01*
X185490185Y-98608815D01*
X185393494Y-98529463D01*
X185283180Y-98470498D01*
X185163482Y-98434188D01*
X185039000Y-98421928D01*
X184435750Y-98425000D01*
X184277000Y-98583750D01*
X184277000Y-99060000D01*
X184023000Y-99060000D01*
X184023000Y-98583750D01*
X183864250Y-98425000D01*
X183261000Y-98421928D01*
X183136518Y-98434188D01*
X183016820Y-98470498D01*
X182906506Y-98529463D01*
X182809815Y-98608815D01*
X182730463Y-98705506D01*
X182671498Y-98815820D01*
X182635188Y-98935518D01*
X182622928Y-99060000D01*
X180597072Y-99060000D01*
X180584812Y-98935518D01*
X180548502Y-98815820D01*
X180489537Y-98705506D01*
X180410185Y-98608815D01*
X180313494Y-98529463D01*
X180203180Y-98470498D01*
X180083482Y-98434188D01*
X179959000Y-98421928D01*
X179955000Y-98421928D01*
X179955000Y-93330578D01*
X180325579Y-92960000D01*
X188424531Y-92960000D01*
X188468000Y-92964281D01*
X188511469Y-92960000D01*
X188511477Y-92960000D01*
X188641490Y-92947195D01*
X188808313Y-92896589D01*
X188962059Y-92814411D01*
X189096817Y-92703817D01*
X189124534Y-92670044D01*
X189340001Y-92454578D01*
X189340001Y-97340000D01*
X189340001Y-97340000D01*
G37*
X189340001Y-97340000D02*
X186722419Y-97340000D01*
X186690000Y-97336807D01*
X186657581Y-97340000D01*
X186560617Y-97349550D01*
X186436207Y-97387290D01*
X186321550Y-97448575D01*
X186221052Y-97531052D01*
X186138575Y-97631550D01*
X186077290Y-97746207D01*
X186039550Y-97870617D01*
X186026807Y-98000000D01*
X186030000Y-98032419D01*
X186030000Y-98203419D01*
X186030001Y-98203429D01*
X186030001Y-99060000D01*
X185677072Y-99060000D01*
X185664812Y-98935518D01*
X185628502Y-98815820D01*
X185569537Y-98705506D01*
X185490185Y-98608815D01*
X185393494Y-98529463D01*
X185283180Y-98470498D01*
X185163482Y-98434188D01*
X185039000Y-98421928D01*
X184435750Y-98425000D01*
X184277000Y-98583750D01*
X184277000Y-99060000D01*
X184023000Y-99060000D01*
X184023000Y-98583750D01*
X183864250Y-98425000D01*
X183261000Y-98421928D01*
X183136518Y-98434188D01*
X183016820Y-98470498D01*
X182906506Y-98529463D01*
X182809815Y-98608815D01*
X182730463Y-98705506D01*
X182671498Y-98815820D01*
X182635188Y-98935518D01*
X182622928Y-99060000D01*
X180597072Y-99060000D01*
X180584812Y-98935518D01*
X180548502Y-98815820D01*
X180489537Y-98705506D01*
X180410185Y-98608815D01*
X180313494Y-98529463D01*
X180203180Y-98470498D01*
X180083482Y-98434188D01*
X179959000Y-98421928D01*
X179955000Y-98421928D01*
X179955000Y-93330578D01*
X180325579Y-92960000D01*
X188424531Y-92960000D01*
X188468000Y-92964281D01*
X188511469Y-92960000D01*
X188511477Y-92960000D01*
X188641490Y-92947195D01*
X188808313Y-92896589D01*
X188962059Y-92814411D01*
X189096817Y-92703817D01*
X189124534Y-92670044D01*
X189340001Y-92454578D01*
X189340001Y-97340000D01*
G36*
X178329408Y-71469803D02*
G01*
X179070000Y-72210395D01*
X179810592Y-71469803D01*
X179753042Y-71243000D01*
X180926371Y-71243000D01*
X180759943Y-71354203D01*
X180574203Y-71539943D01*
X180428268Y-71758351D01*
X180338293Y-71975570D01*
X180277514Y-71809158D01*
X180223812Y-71708686D01*
X179990197Y-71649408D01*
X179249605Y-72390000D01*
X179990197Y-73130592D01*
X180223812Y-73071314D01*
X180334559Y-72833125D01*
X180340342Y-72809378D01*
X180428268Y-73021649D01*
X180574203Y-73240057D01*
X180759943Y-73425797D01*
X180978351Y-73571732D01*
X181221032Y-73672254D01*
X181478662Y-73723500D01*
X181741338Y-73723500D01*
X181998968Y-73672254D01*
X182241649Y-73571732D01*
X182460057Y-73425797D01*
X182645797Y-73240057D01*
X182791732Y-73021649D01*
X182880000Y-72808552D01*
X182968268Y-73021649D01*
X183114203Y-73240057D01*
X183299943Y-73425797D01*
X183518351Y-73571732D01*
X183761032Y-73672254D01*
X184018662Y-73723500D01*
X184281338Y-73723500D01*
X184538968Y-73672254D01*
X184781649Y-73571732D01*
X185000057Y-73425797D01*
X185115657Y-73310197D01*
X185949408Y-73310197D01*
X186008686Y-73543812D01*
X186246875Y-73654559D01*
X186502093Y-73716711D01*
X186764533Y-73727876D01*
X187024107Y-73687629D01*
X187270842Y-73597514D01*
X187371314Y-73543812D01*
X187430592Y-73310197D01*
X186690000Y-72569605D01*
X185949408Y-73310197D01*
X185115657Y-73310197D01*
X185185797Y-73240057D01*
X185331732Y-73021649D01*
X185421707Y-72804430D01*
X185482486Y-72970842D01*
X185536188Y-73071314D01*
X185769803Y-73130592D01*
X186510395Y-72390000D01*
X186869605Y-72390000D01*
X187610197Y-73130592D01*
X187843812Y-73071314D01*
X187954559Y-72833125D01*
X188016711Y-72577907D01*
X188027876Y-72315467D01*
X187987629Y-72055893D01*
X187897514Y-71809158D01*
X187843812Y-71708686D01*
X187610197Y-71649408D01*
X186869605Y-72390000D01*
X186510395Y-72390000D01*
X185769803Y-71649408D01*
X185536188Y-71708686D01*
X185425441Y-71946875D01*
X185419658Y-71970622D01*
X185331732Y-71758351D01*
X185185797Y-71539943D01*
X185000057Y-71354203D01*
X184833629Y-71243000D01*
X186006958Y-71243000D01*
X185949408Y-71469803D01*
X186690000Y-72210395D01*
X187430592Y-71469803D01*
X187373042Y-71243000D01*
X188345001Y-71243000D01*
X188345000Y-89956523D01*
X188345000Y-89956524D01*
X188345001Y-90946421D01*
X188101422Y-91190000D01*
X180002469Y-91190000D01*
X179959000Y-91185719D01*
X179915531Y-91190000D01*
X179915523Y-91190000D01*
X179785510Y-91202805D01*
X179618687Y-91253411D01*
X179507203Y-91313000D01*
X179464941Y-91335589D01*
X179363953Y-91418468D01*
X179363951Y-91418470D01*
X179330183Y-91446183D01*
X179302470Y-91479951D01*
X178474956Y-92307466D01*
X178441183Y-92335183D01*
X178330589Y-92469942D01*
X178248411Y-92623688D01*
X178221317Y-92713003D01*
X178197968Y-92789975D01*
X178197805Y-92790511D01*
X178185000Y-92920524D01*
X178185000Y-92920531D01*
X178180719Y-92964000D01*
X178185000Y-93007469D01*
X178185001Y-97492523D01*
X178185001Y-98421928D01*
X178181000Y-98421928D01*
X178056518Y-98434188D01*
X177936820Y-98470498D01*
X177826506Y-98529463D01*
X177800000Y-98551216D01*
X177773494Y-98529463D01*
X177663180Y-98470498D01*
X177543482Y-98434188D01*
X177419000Y-98421928D01*
X177290000Y-98421928D01*
X177290000Y-97573333D01*
X177293677Y-97536000D01*
X177289046Y-97488976D01*
X177279003Y-97387014D01*
X177235546Y-97243753D01*
X177164974Y-97111724D01*
X177070001Y-96995999D01*
X177041002Y-96972200D01*
X176458803Y-96390002D01*
X176435001Y-96360999D01*
X176319276Y-96266026D01*
X176187247Y-96195454D01*
X176043986Y-96151997D01*
X175932333Y-96141000D01*
X175932322Y-96141000D01*
X175895000Y-96137324D01*
X175857678Y-96141000D01*
X159744854Y-96141000D01*
X159785797Y-96100057D01*
X159931732Y-95881649D01*
X160032254Y-95638968D01*
X160083500Y-95381338D01*
X160083500Y-95118662D01*
X160032254Y-94861032D01*
X159931732Y-94618351D01*
X159785797Y-94399943D01*
X159600057Y-94214203D01*
X159381649Y-94068268D01*
X159168552Y-93980000D01*
X159381649Y-93891732D01*
X159600057Y-93745797D01*
X159785797Y-93560057D01*
X159931732Y-93341649D01*
X160032254Y-93098968D01*
X160083500Y-92841338D01*
X160083500Y-92578662D01*
X160032254Y-92321032D01*
X159931732Y-92078351D01*
X159785797Y-91859943D01*
X159600057Y-91674203D01*
X159381649Y-91528268D01*
X159138968Y-91427746D01*
X158881338Y-91376500D01*
X158618662Y-91376500D01*
X158361032Y-91427746D01*
X158118351Y-91528268D01*
X157899943Y-91674203D01*
X157714203Y-91859943D01*
X157568268Y-92078351D01*
X157467746Y-92321032D01*
X157416500Y-92578662D01*
X157416500Y-92841338D01*
X157467746Y-93098968D01*
X157568268Y-93341649D01*
X157714203Y-93560057D01*
X157899943Y-93745797D01*
X158118351Y-93891732D01*
X158331448Y-93980000D01*
X158118351Y-94068268D01*
X157899943Y-94214203D01*
X157714203Y-94399943D01*
X157568268Y-94618351D01*
X157467746Y-94861032D01*
X157416500Y-95118662D01*
X157416500Y-95381338D01*
X157467746Y-95638968D01*
X157568268Y-95881649D01*
X157714203Y-96100057D01*
X157755146Y-96141000D01*
X142589981Y-96141000D01*
X142722811Y-95942207D01*
X142828120Y-95687970D01*
X142881806Y-95418072D01*
X142881806Y-95142888D01*
X142828120Y-94872990D01*
X142722811Y-94618753D01*
X142569926Y-94389945D01*
X142419891Y-94239910D01*
X142554802Y-94105000D01*
X154013678Y-94105000D01*
X154051000Y-94108676D01*
X154088322Y-94105000D01*
X154088333Y-94105000D01*
X154199986Y-94094003D01*
X154343247Y-94050546D01*
X154475276Y-93979974D01*
X154591001Y-93885001D01*
X154614804Y-93855998D01*
X155705004Y-92765798D01*
X155734001Y-92742001D01*
X155793052Y-92670047D01*
X155828974Y-92626277D01*
X155899546Y-92494247D01*
X155911148Y-92456000D01*
X155943003Y-92350986D01*
X155954000Y-92239333D01*
X155954000Y-92239324D01*
X155957676Y-92202001D01*
X155954000Y-92164678D01*
X155954000Y-86931500D01*
X157413428Y-86931500D01*
X157413428Y-88328500D01*
X157425688Y-88452982D01*
X157461998Y-88572680D01*
X157520963Y-88682994D01*
X157600315Y-88779685D01*
X157697006Y-88859037D01*
X157807320Y-88918002D01*
X157927018Y-88954312D01*
X158051500Y-88966572D01*
X159448500Y-88966572D01*
X159572982Y-88954312D01*
X159692680Y-88918002D01*
X159802994Y-88859037D01*
X159899685Y-88779685D01*
X159979037Y-88682994D01*
X160038002Y-88572680D01*
X160074312Y-88452982D01*
X160086572Y-88328500D01*
X160086572Y-88209270D01*
X160108268Y-88261649D01*
X160254203Y-88480057D01*
X160439943Y-88665797D01*
X160658351Y-88811732D01*
X160901032Y-88912254D01*
X161158662Y-88963500D01*
X161421338Y-88963500D01*
X161678968Y-88912254D01*
X161921649Y-88811732D01*
X162140057Y-88665797D01*
X162325797Y-88480057D01*
X162471732Y-88261649D01*
X162560000Y-88048552D01*
X162648268Y-88261649D01*
X162794203Y-88480057D01*
X162979943Y-88665797D01*
X163198351Y-88811732D01*
X163441032Y-88912254D01*
X163698662Y-88963500D01*
X163961338Y-88963500D01*
X164218968Y-88912254D01*
X164461649Y-88811732D01*
X164680057Y-88665797D01*
X164865797Y-88480057D01*
X165011732Y-88261649D01*
X165100000Y-88048552D01*
X165188268Y-88261649D01*
X165334203Y-88480057D01*
X165519943Y-88665797D01*
X165738351Y-88811732D01*
X165981032Y-88912254D01*
X166238662Y-88963500D01*
X166501338Y-88963500D01*
X166758968Y-88912254D01*
X167001649Y-88811732D01*
X167220057Y-88665797D01*
X167405797Y-88480057D01*
X167551732Y-88261649D01*
X167640000Y-88048552D01*
X167728268Y-88261649D01*
X167874203Y-88480057D01*
X168059943Y-88665797D01*
X168278351Y-88811732D01*
X168521032Y-88912254D01*
X168778662Y-88963500D01*
X169041338Y-88963500D01*
X169298968Y-88912254D01*
X169541649Y-88811732D01*
X169760057Y-88665797D01*
X169945797Y-88480057D01*
X170091732Y-88261649D01*
X170180000Y-88048552D01*
X170268268Y-88261649D01*
X170414203Y-88480057D01*
X170599943Y-88665797D01*
X170818351Y-88811732D01*
X171061032Y-88912254D01*
X171318662Y-88963500D01*
X171581338Y-88963500D01*
X171838968Y-88912254D01*
X172081649Y-88811732D01*
X172300057Y-88665797D01*
X172485797Y-88480057D01*
X172631732Y-88261649D01*
X172720000Y-88048552D01*
X172808268Y-88261649D01*
X172954203Y-88480057D01*
X173139943Y-88665797D01*
X173358351Y-88811732D01*
X173601032Y-88912254D01*
X173858662Y-88963500D01*
X174121338Y-88963500D01*
X174378968Y-88912254D01*
X174621649Y-88811732D01*
X174840057Y-88665797D01*
X175025797Y-88480057D01*
X175171732Y-88261649D01*
X175260000Y-88048552D01*
X175348268Y-88261649D01*
X175494203Y-88480057D01*
X175679943Y-88665797D01*
X175898351Y-88811732D01*
X176141032Y-88912254D01*
X176398662Y-88963500D01*
X176661338Y-88963500D01*
X176918968Y-88912254D01*
X177161649Y-88811732D01*
X177380057Y-88665797D01*
X177565797Y-88480057D01*
X177711732Y-88261649D01*
X177800000Y-88048552D01*
X177888268Y-88261649D01*
X178034203Y-88480057D01*
X178219943Y-88665797D01*
X178438351Y-88811732D01*
X178681032Y-88912254D01*
X178938662Y-88963500D01*
X179201338Y-88963500D01*
X179458968Y-88912254D01*
X179701649Y-88811732D01*
X179920057Y-88665797D01*
X180105797Y-88480057D01*
X180251732Y-88261649D01*
X180340000Y-88048552D01*
X180428268Y-88261649D01*
X180574203Y-88480057D01*
X180759943Y-88665797D01*
X180978351Y-88811732D01*
X181221032Y-88912254D01*
X181478662Y-88963500D01*
X181741338Y-88963500D01*
X181998968Y-88912254D01*
X182241649Y-88811732D01*
X182460057Y-88665797D01*
X182645797Y-88480057D01*
X182791732Y-88261649D01*
X182880000Y-88048552D01*
X182968268Y-88261649D01*
X183114203Y-88480057D01*
X183299943Y-88665797D01*
X183518351Y-88811732D01*
X183761032Y-88912254D01*
X184018662Y-88963500D01*
X184281338Y-88963500D01*
X184538968Y-88912254D01*
X184781649Y-88811732D01*
X185000057Y-88665797D01*
X185115657Y-88550197D01*
X185949408Y-88550197D01*
X186008686Y-88783812D01*
X186246875Y-88894559D01*
X186502093Y-88956711D01*
X186764533Y-88967876D01*
X187024107Y-88927629D01*
X187270842Y-88837514D01*
X187371314Y-88783812D01*
X187430592Y-88550197D01*
X186690000Y-87809605D01*
X185949408Y-88550197D01*
X185115657Y-88550197D01*
X185185797Y-88480057D01*
X185331732Y-88261649D01*
X185421707Y-88044430D01*
X185482486Y-88210842D01*
X185536188Y-88311314D01*
X185769803Y-88370592D01*
X186510395Y-87630000D01*
X186869605Y-87630000D01*
X187610197Y-88370592D01*
X187843812Y-88311314D01*
X187954559Y-88073125D01*
X188016711Y-87817907D01*
X188027876Y-87555467D01*
X187987629Y-87295893D01*
X187897514Y-87049158D01*
X187843812Y-86948686D01*
X187610197Y-86889408D01*
X186869605Y-87630000D01*
X186510395Y-87630000D01*
X185769803Y-86889408D01*
X185536188Y-86948686D01*
X185425441Y-87186875D01*
X185419658Y-87210622D01*
X185331732Y-86998351D01*
X185185797Y-86779943D01*
X185115657Y-86709803D01*
X185949408Y-86709803D01*
X186690000Y-87450395D01*
X187430592Y-86709803D01*
X187371314Y-86476188D01*
X187133125Y-86365441D01*
X186877907Y-86303289D01*
X186615467Y-86292124D01*
X186355893Y-86332371D01*
X186109158Y-86422486D01*
X186008686Y-86476188D01*
X185949408Y-86709803D01*
X185115657Y-86709803D01*
X185000057Y-86594203D01*
X184781649Y-86448268D01*
X184538968Y-86347746D01*
X184281338Y-86296500D01*
X184018662Y-86296500D01*
X183761032Y-86347746D01*
X183518351Y-86448268D01*
X183299943Y-86594203D01*
X183114203Y-86779943D01*
X182968268Y-86998351D01*
X182880000Y-87211448D01*
X182791732Y-86998351D01*
X182645797Y-86779943D01*
X182460057Y-86594203D01*
X182241649Y-86448268D01*
X181998968Y-86347746D01*
X181741338Y-86296500D01*
X181478662Y-86296500D01*
X181221032Y-86347746D01*
X180978351Y-86448268D01*
X180759943Y-86594203D01*
X180574203Y-86779943D01*
X180428268Y-86998351D01*
X180340000Y-87211448D01*
X180251732Y-86998351D01*
X180105797Y-86779943D01*
X179920057Y-86594203D01*
X179701649Y-86448268D01*
X179458968Y-86347746D01*
X179201338Y-86296500D01*
X178938662Y-86296500D01*
X178681032Y-86347746D01*
X178438351Y-86448268D01*
X178219943Y-86594203D01*
X178034203Y-86779943D01*
X177888268Y-86998351D01*
X177800000Y-87211448D01*
X177711732Y-86998351D01*
X177565797Y-86779943D01*
X177380057Y-86594203D01*
X177161649Y-86448268D01*
X176918968Y-86347746D01*
X176661338Y-86296500D01*
X176398662Y-86296500D01*
X176141032Y-86347746D01*
X175898351Y-86448268D01*
X175679943Y-86594203D01*
X175494203Y-86779943D01*
X175348268Y-86998351D01*
X175260000Y-87211448D01*
X175171732Y-86998351D01*
X175025797Y-86779943D01*
X174840057Y-86594203D01*
X174621649Y-86448268D01*
X174378968Y-86347746D01*
X174121338Y-86296500D01*
X173858662Y-86296500D01*
X173601032Y-86347746D01*
X173358351Y-86448268D01*
X173139943Y-86594203D01*
X172954203Y-86779943D01*
X172808268Y-86998351D01*
X172720000Y-87211448D01*
X172631732Y-86998351D01*
X172485797Y-86779943D01*
X172300057Y-86594203D01*
X172081649Y-86448268D01*
X171838968Y-86347746D01*
X171581338Y-86296500D01*
X171318662Y-86296500D01*
X171061032Y-86347746D01*
X170818351Y-86448268D01*
X170599943Y-86594203D01*
X170414203Y-86779943D01*
X170268268Y-86998351D01*
X170180000Y-87211448D01*
X170091732Y-86998351D01*
X169945797Y-86779943D01*
X169760057Y-86594203D01*
X169541649Y-86448268D01*
X169298968Y-86347746D01*
X169041338Y-86296500D01*
X168778662Y-86296500D01*
X168521032Y-86347746D01*
X168278351Y-86448268D01*
X168059943Y-86594203D01*
X167874203Y-86779943D01*
X167728268Y-86998351D01*
X167640000Y-87211448D01*
X167551732Y-86998351D01*
X167405797Y-86779943D01*
X167220057Y-86594203D01*
X167001649Y-86448268D01*
X166758968Y-86347746D01*
X166501338Y-86296500D01*
X166238662Y-86296500D01*
X165981032Y-86347746D01*
X165738351Y-86448268D01*
X165519943Y-86594203D01*
X165334203Y-86779943D01*
X165188268Y-86998351D01*
X165100000Y-87211448D01*
X165011732Y-86998351D01*
X164865797Y-86779943D01*
X164680057Y-86594203D01*
X164461649Y-86448268D01*
X164218968Y-86347746D01*
X163961338Y-86296500D01*
X163698662Y-86296500D01*
X163441032Y-86347746D01*
X163198351Y-86448268D01*
X162979943Y-86594203D01*
X162794203Y-86779943D01*
X162648268Y-86998351D01*
X162560000Y-87211448D01*
X162471732Y-86998351D01*
X162325797Y-86779943D01*
X162140057Y-86594203D01*
X161921649Y-86448268D01*
X161678968Y-86347746D01*
X161421338Y-86296500D01*
X161158662Y-86296500D01*
X160901032Y-86347746D01*
X160658351Y-86448268D01*
X160439943Y-86594203D01*
X160254203Y-86779943D01*
X160108268Y-86998351D01*
X160086572Y-87050730D01*
X160086572Y-86931500D01*
X160074312Y-86807018D01*
X160038002Y-86687320D01*
X159979037Y-86577006D01*
X159899685Y-86480315D01*
X159802994Y-86400963D01*
X159692680Y-86341998D01*
X159572982Y-86305688D01*
X159448500Y-86293428D01*
X158051500Y-86293428D01*
X157927018Y-86305688D01*
X157807320Y-86341998D01*
X157697006Y-86400963D01*
X157600315Y-86480315D01*
X157520963Y-86577006D01*
X157461998Y-86687320D01*
X157425688Y-86807018D01*
X157413428Y-86931500D01*
X155954000Y-86931500D01*
X155954000Y-86719990D01*
X155961501Y-86643832D01*
X155961501Y-86643822D01*
X155965177Y-86606500D01*
X155961501Y-86569177D01*
X155961501Y-86032300D01*
X156270802Y-85723000D01*
X168237678Y-85723000D01*
X168275000Y-85726676D01*
X168312322Y-85723000D01*
X168312333Y-85723000D01*
X168423986Y-85712003D01*
X168567247Y-85668546D01*
X168699276Y-85597974D01*
X168815001Y-85503001D01*
X168838803Y-85473998D01*
X169421004Y-84891798D01*
X169450001Y-84868001D01*
X169544974Y-84752276D01*
X169615546Y-84620247D01*
X169659003Y-84476986D01*
X169670000Y-84365333D01*
X169670000Y-84365332D01*
X169673677Y-84328000D01*
X169670000Y-84290667D01*
X169670000Y-73485971D01*
X169760057Y-73425797D01*
X169945797Y-73240057D01*
X170091732Y-73021649D01*
X170180000Y-72808552D01*
X170268268Y-73021649D01*
X170414203Y-73240057D01*
X170599943Y-73425797D01*
X170818351Y-73571732D01*
X171061032Y-73672254D01*
X171318662Y-73723500D01*
X171581338Y-73723500D01*
X171838968Y-73672254D01*
X172081649Y-73571732D01*
X172300057Y-73425797D01*
X172485797Y-73240057D01*
X172631732Y-73021649D01*
X172720000Y-72808552D01*
X172808268Y-73021649D01*
X172954203Y-73240057D01*
X173139943Y-73425797D01*
X173358351Y-73571732D01*
X173601032Y-73672254D01*
X173858662Y-73723500D01*
X174121338Y-73723500D01*
X174378968Y-73672254D01*
X174621649Y-73571732D01*
X174840057Y-73425797D01*
X175025797Y-73240057D01*
X175171732Y-73021649D01*
X175260000Y-72808552D01*
X175348268Y-73021649D01*
X175494203Y-73240057D01*
X175679943Y-73425797D01*
X175898351Y-73571732D01*
X176141032Y-73672254D01*
X176398662Y-73723500D01*
X176661338Y-73723500D01*
X176918968Y-73672254D01*
X177161649Y-73571732D01*
X177380057Y-73425797D01*
X177495657Y-73310197D01*
X178329408Y-73310197D01*
X178388686Y-73543812D01*
X178626875Y-73654559D01*
X178882093Y-73716711D01*
X179144533Y-73727876D01*
X179404107Y-73687629D01*
X179650842Y-73597514D01*
X179751314Y-73543812D01*
X179810592Y-73310197D01*
X179070000Y-72569605D01*
X178329408Y-73310197D01*
X177495657Y-73310197D01*
X177565797Y-73240057D01*
X177711732Y-73021649D01*
X177801707Y-72804430D01*
X177862486Y-72970842D01*
X177916188Y-73071314D01*
X178149803Y-73130592D01*
X178890395Y-72390000D01*
X178149803Y-71649408D01*
X177916188Y-71708686D01*
X177805441Y-71946875D01*
X177799658Y-71970622D01*
X177711732Y-71758351D01*
X177565797Y-71539943D01*
X177380057Y-71354203D01*
X177213629Y-71243000D01*
X178386958Y-71243000D01*
X178329408Y-71469803D01*
X178329408Y-71469803D01*
G37*
X178329408Y-71469803D02*
X179070000Y-72210395D01*
X179810592Y-71469803D01*
X179753042Y-71243000D01*
X180926371Y-71243000D01*
X180759943Y-71354203D01*
X180574203Y-71539943D01*
X180428268Y-71758351D01*
X180338293Y-71975570D01*
X180277514Y-71809158D01*
X180223812Y-71708686D01*
X179990197Y-71649408D01*
X179249605Y-72390000D01*
X179990197Y-73130592D01*
X180223812Y-73071314D01*
X180334559Y-72833125D01*
X180340342Y-72809378D01*
X180428268Y-73021649D01*
X180574203Y-73240057D01*
X180759943Y-73425797D01*
X180978351Y-73571732D01*
X181221032Y-73672254D01*
X181478662Y-73723500D01*
X181741338Y-73723500D01*
X181998968Y-73672254D01*
X182241649Y-73571732D01*
X182460057Y-73425797D01*
X182645797Y-73240057D01*
X182791732Y-73021649D01*
X182880000Y-72808552D01*
X182968268Y-73021649D01*
X183114203Y-73240057D01*
X183299943Y-73425797D01*
X183518351Y-73571732D01*
X183761032Y-73672254D01*
X184018662Y-73723500D01*
X184281338Y-73723500D01*
X184538968Y-73672254D01*
X184781649Y-73571732D01*
X185000057Y-73425797D01*
X185115657Y-73310197D01*
X185949408Y-73310197D01*
X186008686Y-73543812D01*
X186246875Y-73654559D01*
X186502093Y-73716711D01*
X186764533Y-73727876D01*
X187024107Y-73687629D01*
X187270842Y-73597514D01*
X187371314Y-73543812D01*
X187430592Y-73310197D01*
X186690000Y-72569605D01*
X185949408Y-73310197D01*
X185115657Y-73310197D01*
X185185797Y-73240057D01*
X185331732Y-73021649D01*
X185421707Y-72804430D01*
X185482486Y-72970842D01*
X185536188Y-73071314D01*
X185769803Y-73130592D01*
X186510395Y-72390000D01*
X186869605Y-72390000D01*
X187610197Y-73130592D01*
X187843812Y-73071314D01*
X187954559Y-72833125D01*
X188016711Y-72577907D01*
X188027876Y-72315467D01*
X187987629Y-72055893D01*
X187897514Y-71809158D01*
X187843812Y-71708686D01*
X187610197Y-71649408D01*
X186869605Y-72390000D01*
X186510395Y-72390000D01*
X185769803Y-71649408D01*
X185536188Y-71708686D01*
X185425441Y-71946875D01*
X185419658Y-71970622D01*
X185331732Y-71758351D01*
X185185797Y-71539943D01*
X185000057Y-71354203D01*
X184833629Y-71243000D01*
X186006958Y-71243000D01*
X185949408Y-71469803D01*
X186690000Y-72210395D01*
X187430592Y-71469803D01*
X187373042Y-71243000D01*
X188345001Y-71243000D01*
X188345000Y-89956523D01*
X188345000Y-89956524D01*
X188345001Y-90946421D01*
X188101422Y-91190000D01*
X180002469Y-91190000D01*
X179959000Y-91185719D01*
X179915531Y-91190000D01*
X179915523Y-91190000D01*
X179785510Y-91202805D01*
X179618687Y-91253411D01*
X179507203Y-91313000D01*
X179464941Y-91335589D01*
X179363953Y-91418468D01*
X179363951Y-91418470D01*
X179330183Y-91446183D01*
X179302470Y-91479951D01*
X178474956Y-92307466D01*
X178441183Y-92335183D01*
X178330589Y-92469942D01*
X178248411Y-92623688D01*
X178221317Y-92713003D01*
X178197968Y-92789975D01*
X178197805Y-92790511D01*
X178185000Y-92920524D01*
X178185000Y-92920531D01*
X178180719Y-92964000D01*
X178185000Y-93007469D01*
X178185001Y-97492523D01*
X178185001Y-98421928D01*
X178181000Y-98421928D01*
X178056518Y-98434188D01*
X177936820Y-98470498D01*
X177826506Y-98529463D01*
X177800000Y-98551216D01*
X177773494Y-98529463D01*
X177663180Y-98470498D01*
X177543482Y-98434188D01*
X177419000Y-98421928D01*
X177290000Y-98421928D01*
X177290000Y-97573333D01*
X177293677Y-97536000D01*
X177289046Y-97488976D01*
X177279003Y-97387014D01*
X177235546Y-97243753D01*
X177164974Y-97111724D01*
X177070001Y-96995999D01*
X177041002Y-96972200D01*
X176458803Y-96390002D01*
X176435001Y-96360999D01*
X176319276Y-96266026D01*
X176187247Y-96195454D01*
X176043986Y-96151997D01*
X175932333Y-96141000D01*
X175932322Y-96141000D01*
X175895000Y-96137324D01*
X175857678Y-96141000D01*
X159744854Y-96141000D01*
X159785797Y-96100057D01*
X159931732Y-95881649D01*
X160032254Y-95638968D01*
X160083500Y-95381338D01*
X160083500Y-95118662D01*
X160032254Y-94861032D01*
X159931732Y-94618351D01*
X159785797Y-94399943D01*
X159600057Y-94214203D01*
X159381649Y-94068268D01*
X159168552Y-93980000D01*
X159381649Y-93891732D01*
X159600057Y-93745797D01*
X159785797Y-93560057D01*
X159931732Y-93341649D01*
X160032254Y-93098968D01*
X160083500Y-92841338D01*
X160083500Y-92578662D01*
X160032254Y-92321032D01*
X159931732Y-92078351D01*
X159785797Y-91859943D01*
X159600057Y-91674203D01*
X159381649Y-91528268D01*
X159138968Y-91427746D01*
X158881338Y-91376500D01*
X158618662Y-91376500D01*
X158361032Y-91427746D01*
X158118351Y-91528268D01*
X157899943Y-91674203D01*
X157714203Y-91859943D01*
X157568268Y-92078351D01*
X157467746Y-92321032D01*
X157416500Y-92578662D01*
X157416500Y-92841338D01*
X157467746Y-93098968D01*
X157568268Y-93341649D01*
X157714203Y-93560057D01*
X157899943Y-93745797D01*
X158118351Y-93891732D01*
X158331448Y-93980000D01*
X158118351Y-94068268D01*
X157899943Y-94214203D01*
X157714203Y-94399943D01*
X157568268Y-94618351D01*
X157467746Y-94861032D01*
X157416500Y-95118662D01*
X157416500Y-95381338D01*
X157467746Y-95638968D01*
X157568268Y-95881649D01*
X157714203Y-96100057D01*
X157755146Y-96141000D01*
X142589981Y-96141000D01*
X142722811Y-95942207D01*
X142828120Y-95687970D01*
X142881806Y-95418072D01*
X142881806Y-95142888D01*
X142828120Y-94872990D01*
X142722811Y-94618753D01*
X142569926Y-94389945D01*
X142419891Y-94239910D01*
X142554802Y-94105000D01*
X154013678Y-94105000D01*
X154051000Y-94108676D01*
X154088322Y-94105000D01*
X154088333Y-94105000D01*
X154199986Y-94094003D01*
X154343247Y-94050546D01*
X154475276Y-93979974D01*
X154591001Y-93885001D01*
X154614804Y-93855998D01*
X155705004Y-92765798D01*
X155734001Y-92742001D01*
X155793052Y-92670047D01*
X155828974Y-92626277D01*
X155899546Y-92494247D01*
X155911148Y-92456000D01*
X155943003Y-92350986D01*
X155954000Y-92239333D01*
X155954000Y-92239324D01*
X155957676Y-92202001D01*
X155954000Y-92164678D01*
X155954000Y-86931500D01*
X157413428Y-86931500D01*
X157413428Y-88328500D01*
X157425688Y-88452982D01*
X157461998Y-88572680D01*
X157520963Y-88682994D01*
X157600315Y-88779685D01*
X157697006Y-88859037D01*
X157807320Y-88918002D01*
X157927018Y-88954312D01*
X158051500Y-88966572D01*
X159448500Y-88966572D01*
X159572982Y-88954312D01*
X159692680Y-88918002D01*
X159802994Y-88859037D01*
X159899685Y-88779685D01*
X159979037Y-88682994D01*
X160038002Y-88572680D01*
X160074312Y-88452982D01*
X160086572Y-88328500D01*
X160086572Y-88209270D01*
X160108268Y-88261649D01*
X160254203Y-88480057D01*
X160439943Y-88665797D01*
X160658351Y-88811732D01*
X160901032Y-88912254D01*
X161158662Y-88963500D01*
X161421338Y-88963500D01*
X161678968Y-88912254D01*
X161921649Y-88811732D01*
X162140057Y-88665797D01*
X162325797Y-88480057D01*
X162471732Y-88261649D01*
X162560000Y-88048552D01*
X162648268Y-88261649D01*
X162794203Y-88480057D01*
X162979943Y-88665797D01*
X163198351Y-88811732D01*
X163441032Y-88912254D01*
X163698662Y-88963500D01*
X163961338Y-88963500D01*
X164218968Y-88912254D01*
X164461649Y-88811732D01*
X164680057Y-88665797D01*
X164865797Y-88480057D01*
X165011732Y-88261649D01*
X165100000Y-88048552D01*
X165188268Y-88261649D01*
X165334203Y-88480057D01*
X165519943Y-88665797D01*
X165738351Y-88811732D01*
X165981032Y-88912254D01*
X166238662Y-88963500D01*
X166501338Y-88963500D01*
X166758968Y-88912254D01*
X167001649Y-88811732D01*
X167220057Y-88665797D01*
X167405797Y-88480057D01*
X167551732Y-88261649D01*
X167640000Y-88048552D01*
X167728268Y-88261649D01*
X167874203Y-88480057D01*
X168059943Y-88665797D01*
X168278351Y-88811732D01*
X168521032Y-88912254D01*
X168778662Y-88963500D01*
X169041338Y-88963500D01*
X169298968Y-88912254D01*
X169541649Y-88811732D01*
X169760057Y-88665797D01*
X169945797Y-88480057D01*
X170091732Y-88261649D01*
X170180000Y-88048552D01*
X170268268Y-88261649D01*
X170414203Y-88480057D01*
X170599943Y-88665797D01*
X170818351Y-88811732D01*
X171061032Y-88912254D01*
X171318662Y-88963500D01*
X171581338Y-88963500D01*
X171838968Y-88912254D01*
X172081649Y-88811732D01*
X172300057Y-88665797D01*
X172485797Y-88480057D01*
X172631732Y-88261649D01*
X172720000Y-88048552D01*
X172808268Y-88261649D01*
X172954203Y-88480057D01*
X173139943Y-88665797D01*
X173358351Y-88811732D01*
X173601032Y-88912254D01*
X173858662Y-88963500D01*
X174121338Y-88963500D01*
X174378968Y-88912254D01*
X174621649Y-88811732D01*
X174840057Y-88665797D01*
X175025797Y-88480057D01*
X175171732Y-88261649D01*
X175260000Y-88048552D01*
X175348268Y-88261649D01*
X175494203Y-88480057D01*
X175679943Y-88665797D01*
X175898351Y-88811732D01*
X176141032Y-88912254D01*
X176398662Y-88963500D01*
X176661338Y-88963500D01*
X176918968Y-88912254D01*
X177161649Y-88811732D01*
X177380057Y-88665797D01*
X177565797Y-88480057D01*
X177711732Y-88261649D01*
X177800000Y-88048552D01*
X177888268Y-88261649D01*
X178034203Y-88480057D01*
X178219943Y-88665797D01*
X178438351Y-88811732D01*
X178681032Y-88912254D01*
X178938662Y-88963500D01*
X179201338Y-88963500D01*
X179458968Y-88912254D01*
X179701649Y-88811732D01*
X179920057Y-88665797D01*
X180105797Y-88480057D01*
X180251732Y-88261649D01*
X180340000Y-88048552D01*
X180428268Y-88261649D01*
X180574203Y-88480057D01*
X180759943Y-88665797D01*
X180978351Y-88811732D01*
X181221032Y-88912254D01*
X181478662Y-88963500D01*
X181741338Y-88963500D01*
X181998968Y-88912254D01*
X182241649Y-88811732D01*
X182460057Y-88665797D01*
X182645797Y-88480057D01*
X182791732Y-88261649D01*
X182880000Y-88048552D01*
X182968268Y-88261649D01*
X183114203Y-88480057D01*
X183299943Y-88665797D01*
X183518351Y-88811732D01*
X183761032Y-88912254D01*
X184018662Y-88963500D01*
X184281338Y-88963500D01*
X184538968Y-88912254D01*
X184781649Y-88811732D01*
X185000057Y-88665797D01*
X185115657Y-88550197D01*
X185949408Y-88550197D01*
X186008686Y-88783812D01*
X186246875Y-88894559D01*
X186502093Y-88956711D01*
X186764533Y-88967876D01*
X187024107Y-88927629D01*
X187270842Y-88837514D01*
X187371314Y-88783812D01*
X187430592Y-88550197D01*
X186690000Y-87809605D01*
X185949408Y-88550197D01*
X185115657Y-88550197D01*
X185185797Y-88480057D01*
X185331732Y-88261649D01*
X185421707Y-88044430D01*
X185482486Y-88210842D01*
X185536188Y-88311314D01*
X185769803Y-88370592D01*
X186510395Y-87630000D01*
X186869605Y-87630000D01*
X187610197Y-88370592D01*
X187843812Y-88311314D01*
X187954559Y-88073125D01*
X188016711Y-87817907D01*
X188027876Y-87555467D01*
X187987629Y-87295893D01*
X187897514Y-87049158D01*
X187843812Y-86948686D01*
X187610197Y-86889408D01*
X186869605Y-87630000D01*
X186510395Y-87630000D01*
X185769803Y-86889408D01*
X185536188Y-86948686D01*
X185425441Y-87186875D01*
X185419658Y-87210622D01*
X185331732Y-86998351D01*
X185185797Y-86779943D01*
X185115657Y-86709803D01*
X185949408Y-86709803D01*
X186690000Y-87450395D01*
X187430592Y-86709803D01*
X187371314Y-86476188D01*
X187133125Y-86365441D01*
X186877907Y-86303289D01*
X186615467Y-86292124D01*
X186355893Y-86332371D01*
X186109158Y-86422486D01*
X186008686Y-86476188D01*
X185949408Y-86709803D01*
X185115657Y-86709803D01*
X185000057Y-86594203D01*
X184781649Y-86448268D01*
X184538968Y-86347746D01*
X184281338Y-86296500D01*
X184018662Y-86296500D01*
X183761032Y-86347746D01*
X183518351Y-86448268D01*
X183299943Y-86594203D01*
X183114203Y-86779943D01*
X182968268Y-86998351D01*
X182880000Y-87211448D01*
X182791732Y-86998351D01*
X182645797Y-86779943D01*
X182460057Y-86594203D01*
X182241649Y-86448268D01*
X181998968Y-86347746D01*
X181741338Y-86296500D01*
X181478662Y-86296500D01*
X181221032Y-86347746D01*
X180978351Y-86448268D01*
X180759943Y-86594203D01*
X180574203Y-86779943D01*
X180428268Y-86998351D01*
X180340000Y-87211448D01*
X180251732Y-86998351D01*
X180105797Y-86779943D01*
X179920057Y-86594203D01*
X179701649Y-86448268D01*
X179458968Y-86347746D01*
X179201338Y-86296500D01*
X178938662Y-86296500D01*
X178681032Y-86347746D01*
X178438351Y-86448268D01*
X178219943Y-86594203D01*
X178034203Y-86779943D01*
X177888268Y-86998351D01*
X177800000Y-87211448D01*
X177711732Y-86998351D01*
X177565797Y-86779943D01*
X177380057Y-86594203D01*
X177161649Y-86448268D01*
X176918968Y-86347746D01*
X176661338Y-86296500D01*
X176398662Y-86296500D01*
X176141032Y-86347746D01*
X175898351Y-86448268D01*
X175679943Y-86594203D01*
X175494203Y-86779943D01*
X175348268Y-86998351D01*
X175260000Y-87211448D01*
X175171732Y-86998351D01*
X175025797Y-86779943D01*
X174840057Y-86594203D01*
X174621649Y-86448268D01*
X174378968Y-86347746D01*
X174121338Y-86296500D01*
X173858662Y-86296500D01*
X173601032Y-86347746D01*
X173358351Y-86448268D01*
X173139943Y-86594203D01*
X172954203Y-86779943D01*
X172808268Y-86998351D01*
X172720000Y-87211448D01*
X172631732Y-86998351D01*
X172485797Y-86779943D01*
X172300057Y-86594203D01*
X172081649Y-86448268D01*
X171838968Y-86347746D01*
X171581338Y-86296500D01*
X171318662Y-86296500D01*
X171061032Y-86347746D01*
X170818351Y-86448268D01*
X170599943Y-86594203D01*
X170414203Y-86779943D01*
X170268268Y-86998351D01*
X170180000Y-87211448D01*
X170091732Y-86998351D01*
X169945797Y-86779943D01*
X169760057Y-86594203D01*
X169541649Y-86448268D01*
X169298968Y-86347746D01*
X169041338Y-86296500D01*
X168778662Y-86296500D01*
X168521032Y-86347746D01*
X168278351Y-86448268D01*
X168059943Y-86594203D01*
X167874203Y-86779943D01*
X167728268Y-86998351D01*
X167640000Y-87211448D01*
X167551732Y-86998351D01*
X167405797Y-86779943D01*
X167220057Y-86594203D01*
X167001649Y-86448268D01*
X166758968Y-86347746D01*
X166501338Y-86296500D01*
X166238662Y-86296500D01*
X165981032Y-86347746D01*
X165738351Y-86448268D01*
X165519943Y-86594203D01*
X165334203Y-86779943D01*
X165188268Y-86998351D01*
X165100000Y-87211448D01*
X165011732Y-86998351D01*
X164865797Y-86779943D01*
X164680057Y-86594203D01*
X164461649Y-86448268D01*
X164218968Y-86347746D01*
X163961338Y-86296500D01*
X163698662Y-86296500D01*
X163441032Y-86347746D01*
X163198351Y-86448268D01*
X162979943Y-86594203D01*
X162794203Y-86779943D01*
X162648268Y-86998351D01*
X162560000Y-87211448D01*
X162471732Y-86998351D01*
X162325797Y-86779943D01*
X162140057Y-86594203D01*
X161921649Y-86448268D01*
X161678968Y-86347746D01*
X161421338Y-86296500D01*
X161158662Y-86296500D01*
X160901032Y-86347746D01*
X160658351Y-86448268D01*
X160439943Y-86594203D01*
X160254203Y-86779943D01*
X160108268Y-86998351D01*
X160086572Y-87050730D01*
X160086572Y-86931500D01*
X160074312Y-86807018D01*
X160038002Y-86687320D01*
X159979037Y-86577006D01*
X159899685Y-86480315D01*
X159802994Y-86400963D01*
X159692680Y-86341998D01*
X159572982Y-86305688D01*
X159448500Y-86293428D01*
X158051500Y-86293428D01*
X157927018Y-86305688D01*
X157807320Y-86341998D01*
X157697006Y-86400963D01*
X157600315Y-86480315D01*
X157520963Y-86577006D01*
X157461998Y-86687320D01*
X157425688Y-86807018D01*
X157413428Y-86931500D01*
X155954000Y-86931500D01*
X155954000Y-86719990D01*
X155961501Y-86643832D01*
X155961501Y-86643822D01*
X155965177Y-86606500D01*
X155961501Y-86569177D01*
X155961501Y-86032300D01*
X156270802Y-85723000D01*
X168237678Y-85723000D01*
X168275000Y-85726676D01*
X168312322Y-85723000D01*
X168312333Y-85723000D01*
X168423986Y-85712003D01*
X168567247Y-85668546D01*
X168699276Y-85597974D01*
X168815001Y-85503001D01*
X168838803Y-85473998D01*
X169421004Y-84891798D01*
X169450001Y-84868001D01*
X169544974Y-84752276D01*
X169615546Y-84620247D01*
X169659003Y-84476986D01*
X169670000Y-84365333D01*
X169670000Y-84365332D01*
X169673677Y-84328000D01*
X169670000Y-84290667D01*
X169670000Y-73485971D01*
X169760057Y-73425797D01*
X169945797Y-73240057D01*
X170091732Y-73021649D01*
X170180000Y-72808552D01*
X170268268Y-73021649D01*
X170414203Y-73240057D01*
X170599943Y-73425797D01*
X170818351Y-73571732D01*
X171061032Y-73672254D01*
X171318662Y-73723500D01*
X171581338Y-73723500D01*
X171838968Y-73672254D01*
X172081649Y-73571732D01*
X172300057Y-73425797D01*
X172485797Y-73240057D01*
X172631732Y-73021649D01*
X172720000Y-72808552D01*
X172808268Y-73021649D01*
X172954203Y-73240057D01*
X173139943Y-73425797D01*
X173358351Y-73571732D01*
X173601032Y-73672254D01*
X173858662Y-73723500D01*
X174121338Y-73723500D01*
X174378968Y-73672254D01*
X174621649Y-73571732D01*
X174840057Y-73425797D01*
X175025797Y-73240057D01*
X175171732Y-73021649D01*
X175260000Y-72808552D01*
X175348268Y-73021649D01*
X175494203Y-73240057D01*
X175679943Y-73425797D01*
X175898351Y-73571732D01*
X176141032Y-73672254D01*
X176398662Y-73723500D01*
X176661338Y-73723500D01*
X176918968Y-73672254D01*
X177161649Y-73571732D01*
X177380057Y-73425797D01*
X177495657Y-73310197D01*
X178329408Y-73310197D01*
X178388686Y-73543812D01*
X178626875Y-73654559D01*
X178882093Y-73716711D01*
X179144533Y-73727876D01*
X179404107Y-73687629D01*
X179650842Y-73597514D01*
X179751314Y-73543812D01*
X179810592Y-73310197D01*
X179070000Y-72569605D01*
X178329408Y-73310197D01*
X177495657Y-73310197D01*
X177565797Y-73240057D01*
X177711732Y-73021649D01*
X177801707Y-72804430D01*
X177862486Y-72970842D01*
X177916188Y-73071314D01*
X178149803Y-73130592D01*
X178890395Y-72390000D01*
X178149803Y-71649408D01*
X177916188Y-71708686D01*
X177805441Y-71946875D01*
X177799658Y-71970622D01*
X177711732Y-71758351D01*
X177565797Y-71539943D01*
X177380057Y-71354203D01*
X177213629Y-71243000D01*
X178386958Y-71243000D01*
X178329408Y-71469803D01*
G36*
X122008268Y-88261649D02*
G01*
X122154203Y-88480057D01*
X122339943Y-88665797D01*
X122430001Y-88725971D01*
X122430000Y-92418677D01*
X122426324Y-92456000D01*
X122430000Y-92493322D01*
X122430000Y-92493332D01*
X122440997Y-92604985D01*
X122479384Y-92731532D01*
X122484454Y-92748246D01*
X122555026Y-92880276D01*
X122585654Y-92917596D01*
X122649999Y-92996001D01*
X122679002Y-93019803D01*
X123261200Y-93602002D01*
X123284999Y-93631001D01*
X123313997Y-93654799D01*
X123400724Y-93725974D01*
X123532753Y-93796546D01*
X123676014Y-93840003D01*
X123825000Y-93854677D01*
X123862333Y-93851000D01*
X133416199Y-93851000D01*
X133733001Y-94167803D01*
X133733000Y-96209199D01*
X133452777Y-95928976D01*
X133428974Y-95899972D01*
X133313249Y-95804999D01*
X133181220Y-95734427D01*
X133037959Y-95690970D01*
X132926306Y-95679973D01*
X132926295Y-95679973D01*
X132888973Y-95676297D01*
X132851651Y-95679973D01*
X129537762Y-95679973D01*
X129596711Y-95437907D01*
X129607876Y-95175467D01*
X129567629Y-94915893D01*
X129477514Y-94669158D01*
X129423812Y-94568686D01*
X129190197Y-94509408D01*
X128449605Y-95250000D01*
X128463748Y-95264143D01*
X128284143Y-95443748D01*
X128270000Y-95429605D01*
X128255858Y-95443748D01*
X128076253Y-95264143D01*
X128090395Y-95250000D01*
X127349803Y-94509408D01*
X127116188Y-94568686D01*
X127005441Y-94806875D01*
X126999658Y-94830622D01*
X126911732Y-94618351D01*
X126765797Y-94399943D01*
X126695657Y-94329803D01*
X127529408Y-94329803D01*
X128270000Y-95070395D01*
X129010592Y-94329803D01*
X128951314Y-94096188D01*
X128713125Y-93985441D01*
X128457907Y-93923289D01*
X128195467Y-93912124D01*
X127935893Y-93952371D01*
X127689158Y-94042486D01*
X127588686Y-94096188D01*
X127529408Y-94329803D01*
X126695657Y-94329803D01*
X126580057Y-94214203D01*
X126361649Y-94068268D01*
X126118968Y-93967746D01*
X125861338Y-93916500D01*
X125598662Y-93916500D01*
X125341032Y-93967746D01*
X125098351Y-94068268D01*
X124879943Y-94214203D01*
X124694203Y-94399943D01*
X124548268Y-94618351D01*
X124460000Y-94831448D01*
X124371732Y-94618351D01*
X124225797Y-94399943D01*
X124040057Y-94214203D01*
X123821649Y-94068268D01*
X123578968Y-93967746D01*
X123321338Y-93916500D01*
X123058662Y-93916500D01*
X122801032Y-93967746D01*
X122558351Y-94068268D01*
X122339943Y-94214203D01*
X122154203Y-94399943D01*
X122008268Y-94618351D01*
X121920000Y-94831448D01*
X121831732Y-94618351D01*
X121685797Y-94399943D01*
X121500057Y-94214203D01*
X121281649Y-94068268D01*
X121038968Y-93967746D01*
X120781338Y-93916500D01*
X120518662Y-93916500D01*
X120261032Y-93967746D01*
X120140000Y-94017879D01*
X120140000Y-88862121D01*
X120261032Y-88912254D01*
X120518662Y-88963500D01*
X120781338Y-88963500D01*
X121038968Y-88912254D01*
X121281649Y-88811732D01*
X121500057Y-88665797D01*
X121685797Y-88480057D01*
X121831732Y-88261649D01*
X121920000Y-88048552D01*
X122008268Y-88261649D01*
X122008268Y-88261649D01*
G37*
X122008268Y-88261649D02*
X122154203Y-88480057D01*
X122339943Y-88665797D01*
X122430001Y-88725971D01*
X122430000Y-92418677D01*
X122426324Y-92456000D01*
X122430000Y-92493322D01*
X122430000Y-92493332D01*
X122440997Y-92604985D01*
X122479384Y-92731532D01*
X122484454Y-92748246D01*
X122555026Y-92880276D01*
X122585654Y-92917596D01*
X122649999Y-92996001D01*
X122679002Y-93019803D01*
X123261200Y-93602002D01*
X123284999Y-93631001D01*
X123313997Y-93654799D01*
X123400724Y-93725974D01*
X123532753Y-93796546D01*
X123676014Y-93840003D01*
X123825000Y-93854677D01*
X123862333Y-93851000D01*
X133416199Y-93851000D01*
X133733001Y-94167803D01*
X133733000Y-96209199D01*
X133452777Y-95928976D01*
X133428974Y-95899972D01*
X133313249Y-95804999D01*
X133181220Y-95734427D01*
X133037959Y-95690970D01*
X132926306Y-95679973D01*
X132926295Y-95679973D01*
X132888973Y-95676297D01*
X132851651Y-95679973D01*
X129537762Y-95679973D01*
X129596711Y-95437907D01*
X129607876Y-95175467D01*
X129567629Y-94915893D01*
X129477514Y-94669158D01*
X129423812Y-94568686D01*
X129190197Y-94509408D01*
X128449605Y-95250000D01*
X128463748Y-95264143D01*
X128284143Y-95443748D01*
X128270000Y-95429605D01*
X128255858Y-95443748D01*
X128076253Y-95264143D01*
X128090395Y-95250000D01*
X127349803Y-94509408D01*
X127116188Y-94568686D01*
X127005441Y-94806875D01*
X126999658Y-94830622D01*
X126911732Y-94618351D01*
X126765797Y-94399943D01*
X126695657Y-94329803D01*
X127529408Y-94329803D01*
X128270000Y-95070395D01*
X129010592Y-94329803D01*
X128951314Y-94096188D01*
X128713125Y-93985441D01*
X128457907Y-93923289D01*
X128195467Y-93912124D01*
X127935893Y-93952371D01*
X127689158Y-94042486D01*
X127588686Y-94096188D01*
X127529408Y-94329803D01*
X126695657Y-94329803D01*
X126580057Y-94214203D01*
X126361649Y-94068268D01*
X126118968Y-93967746D01*
X125861338Y-93916500D01*
X125598662Y-93916500D01*
X125341032Y-93967746D01*
X125098351Y-94068268D01*
X124879943Y-94214203D01*
X124694203Y-94399943D01*
X124548268Y-94618351D01*
X124460000Y-94831448D01*
X124371732Y-94618351D01*
X124225797Y-94399943D01*
X124040057Y-94214203D01*
X123821649Y-94068268D01*
X123578968Y-93967746D01*
X123321338Y-93916500D01*
X123058662Y-93916500D01*
X122801032Y-93967746D01*
X122558351Y-94068268D01*
X122339943Y-94214203D01*
X122154203Y-94399943D01*
X122008268Y-94618351D01*
X121920000Y-94831448D01*
X121831732Y-94618351D01*
X121685797Y-94399943D01*
X121500057Y-94214203D01*
X121281649Y-94068268D01*
X121038968Y-93967746D01*
X120781338Y-93916500D01*
X120518662Y-93916500D01*
X120261032Y-93967746D01*
X120140000Y-94017879D01*
X120140000Y-88862121D01*
X120261032Y-88912254D01*
X120518662Y-88963500D01*
X120781338Y-88963500D01*
X121038968Y-88912254D01*
X121281649Y-88811732D01*
X121500057Y-88665797D01*
X121685797Y-88480057D01*
X121831732Y-88261649D01*
X121920000Y-88048552D01*
X122008268Y-88261649D01*
G36*
X157865000Y-71389146D02*
G01*
X157714203Y-71539943D01*
X157568268Y-71758351D01*
X157467746Y-72001032D01*
X157416500Y-72258662D01*
X157416500Y-72521338D01*
X157467746Y-72778968D01*
X157568268Y-73021649D01*
X157714203Y-73240057D01*
X157899943Y-73425797D01*
X158118351Y-73571732D01*
X158361032Y-73672254D01*
X158618662Y-73723500D01*
X158881338Y-73723500D01*
X159138968Y-73672254D01*
X159381649Y-73571732D01*
X159600057Y-73425797D01*
X159785797Y-73240057D01*
X159931732Y-73021649D01*
X160020000Y-72808552D01*
X160108268Y-73021649D01*
X160254203Y-73240057D01*
X160439943Y-73425797D01*
X160658351Y-73571732D01*
X160901032Y-73672254D01*
X161158662Y-73723500D01*
X161421338Y-73723500D01*
X161678968Y-73672254D01*
X161921649Y-73571732D01*
X162140057Y-73425797D01*
X162325797Y-73240057D01*
X162471732Y-73021649D01*
X162560000Y-72808552D01*
X162648268Y-73021649D01*
X162794203Y-73240057D01*
X162979943Y-73425797D01*
X163198351Y-73571732D01*
X163441032Y-73672254D01*
X163698662Y-73723500D01*
X163961338Y-73723500D01*
X164218968Y-73672254D01*
X164461649Y-73571732D01*
X164680057Y-73425797D01*
X164865797Y-73240057D01*
X165011732Y-73021649D01*
X165100000Y-72808552D01*
X165188268Y-73021649D01*
X165334203Y-73240057D01*
X165519943Y-73425797D01*
X165738351Y-73571732D01*
X165981032Y-73672254D01*
X166238662Y-73723500D01*
X166501338Y-73723500D01*
X166758968Y-73672254D01*
X167001649Y-73571732D01*
X167220057Y-73425797D01*
X167405797Y-73240057D01*
X167551732Y-73021649D01*
X167640000Y-72808552D01*
X167728268Y-73021649D01*
X167874203Y-73240057D01*
X168059943Y-73425797D01*
X168150001Y-73485972D01*
X168150000Y-84013198D01*
X167960199Y-84203000D01*
X155993325Y-84203000D01*
X155956000Y-84199324D01*
X155918675Y-84203000D01*
X155918667Y-84203000D01*
X155807014Y-84213997D01*
X155663753Y-84257454D01*
X155531724Y-84328026D01*
X155415999Y-84422999D01*
X155392201Y-84451998D01*
X154690499Y-85153700D01*
X154661501Y-85177498D01*
X154637703Y-85206496D01*
X154637702Y-85206497D01*
X154566527Y-85293223D01*
X154495955Y-85425253D01*
X154465681Y-85525057D01*
X154452499Y-85568513D01*
X154441501Y-85680166D01*
X154441501Y-85680177D01*
X154437825Y-85717499D01*
X154441501Y-85754821D01*
X154441501Y-86500520D01*
X154430324Y-86614000D01*
X154434001Y-86651332D01*
X154434000Y-91887198D01*
X153736199Y-92585000D01*
X142277333Y-92585000D01*
X142240000Y-92581323D01*
X142202667Y-92585000D01*
X142091014Y-92595997D01*
X141947753Y-92639454D01*
X141815724Y-92710026D01*
X141699999Y-92804999D01*
X141676201Y-92833998D01*
X140973804Y-93536395D01*
X140944806Y-93560193D01*
X140921008Y-93589191D01*
X140921007Y-93589192D01*
X140849832Y-93675918D01*
X140779260Y-93807948D01*
X140748986Y-93907752D01*
X140735804Y-93951208D01*
X140735052Y-93958845D01*
X140721130Y-94100194D01*
X140722091Y-94109953D01*
X140594271Y-94195360D01*
X140399686Y-94389945D01*
X140246801Y-94618753D01*
X140141492Y-94872990D01*
X140087806Y-95142888D01*
X140087806Y-95418072D01*
X140141492Y-95687970D01*
X140246801Y-95942207D01*
X140379631Y-96141000D01*
X136585802Y-96141000D01*
X136153018Y-95708217D01*
X136153018Y-82217343D01*
X136156694Y-82180018D01*
X136153018Y-82142693D01*
X136153018Y-82142685D01*
X136142021Y-82031032D01*
X136098564Y-81887771D01*
X136027992Y-81755742D01*
X135933019Y-81640017D01*
X135904021Y-81616219D01*
X135056803Y-80769002D01*
X135033001Y-80739999D01*
X134917276Y-80645026D01*
X134785247Y-80574454D01*
X134641986Y-80530997D01*
X134530333Y-80520000D01*
X134530322Y-80520000D01*
X134493000Y-80516324D01*
X134455678Y-80520000D01*
X123197595Y-80520000D01*
X123160706Y-80450986D01*
X122975134Y-80224866D01*
X122945313Y-80200393D01*
X123014180Y-80179502D01*
X123124494Y-80120537D01*
X123221185Y-80041185D01*
X123300537Y-79944494D01*
X123359502Y-79834180D01*
X123395812Y-79714482D01*
X123408072Y-79590000D01*
X123408072Y-77890000D01*
X123395812Y-77765518D01*
X123359502Y-77645820D01*
X123300537Y-77535506D01*
X123221185Y-77438815D01*
X123124494Y-77359463D01*
X123014180Y-77300498D01*
X122894482Y-77264188D01*
X122770000Y-77251928D01*
X121070000Y-77251928D01*
X120945518Y-77264188D01*
X120825820Y-77300498D01*
X120715506Y-77359463D01*
X120618815Y-77438815D01*
X120539463Y-77535506D01*
X120480498Y-77645820D01*
X120459607Y-77714687D01*
X120435134Y-77684866D01*
X120209014Y-77499294D01*
X119951034Y-77361401D01*
X119671111Y-77276487D01*
X119452950Y-77255000D01*
X119307050Y-77255000D01*
X119088889Y-77276487D01*
X118808966Y-77361401D01*
X118550986Y-77499294D01*
X118324866Y-77684866D01*
X118139294Y-77910986D01*
X118110000Y-77965791D01*
X118080706Y-77910986D01*
X117895134Y-77684866D01*
X117669014Y-77499294D01*
X117411034Y-77361401D01*
X117131111Y-77276487D01*
X116912950Y-77255000D01*
X116767050Y-77255000D01*
X116548889Y-77276487D01*
X116268966Y-77361401D01*
X116010986Y-77499294D01*
X115784866Y-77684866D01*
X115599294Y-77910986D01*
X115570000Y-77965791D01*
X115540706Y-77910986D01*
X115355134Y-77684866D01*
X115129014Y-77499294D01*
X114871034Y-77361401D01*
X114591111Y-77276487D01*
X114372950Y-77255000D01*
X114227050Y-77255000D01*
X114008889Y-77276487D01*
X113728966Y-77361401D01*
X113470986Y-77499294D01*
X113244866Y-77684866D01*
X113059294Y-77910986D01*
X113030000Y-77965791D01*
X113000706Y-77910986D01*
X112815134Y-77684866D01*
X112589014Y-77499294D01*
X112331034Y-77361401D01*
X112051111Y-77276487D01*
X111832950Y-77255000D01*
X111687050Y-77255000D01*
X111468889Y-77276487D01*
X111188966Y-77361401D01*
X110930986Y-77499294D01*
X110704866Y-77684866D01*
X110519294Y-77910986D01*
X110490000Y-77965791D01*
X110460706Y-77910986D01*
X110275134Y-77684866D01*
X110049014Y-77499294D01*
X109791034Y-77361401D01*
X109511111Y-77276487D01*
X109292950Y-77255000D01*
X109147050Y-77255000D01*
X108928889Y-77276487D01*
X108648966Y-77361401D01*
X108390986Y-77499294D01*
X108164866Y-77684866D01*
X107979294Y-77910986D01*
X107841401Y-78168966D01*
X107756487Y-78448889D01*
X107727815Y-78740000D01*
X107756487Y-79031111D01*
X107841401Y-79311034D01*
X107979294Y-79569014D01*
X108164866Y-79795134D01*
X108390986Y-79980706D01*
X108445791Y-80010000D01*
X108390986Y-80039294D01*
X108164866Y-80224866D01*
X107979294Y-80450986D01*
X107841401Y-80708966D01*
X107756487Y-80988889D01*
X107727815Y-81280000D01*
X107756487Y-81571111D01*
X107841401Y-81851034D01*
X107979294Y-82109014D01*
X108164866Y-82335134D01*
X108390986Y-82520706D01*
X108460001Y-82557595D01*
X108460001Y-86397879D01*
X108338968Y-86347746D01*
X108081338Y-86296500D01*
X107818662Y-86296500D01*
X107561032Y-86347746D01*
X107318351Y-86448268D01*
X107099943Y-86594203D01*
X106914203Y-86779943D01*
X106768268Y-86998351D01*
X106680000Y-87211448D01*
X106591732Y-86998351D01*
X106445797Y-86779943D01*
X106295000Y-86629146D01*
X106295000Y-76246085D01*
X140698846Y-76246085D01*
X140765826Y-76486176D01*
X141014854Y-76603276D01*
X141281941Y-76669543D01*
X141556823Y-76682430D01*
X141828939Y-76641442D01*
X142087829Y-76548156D01*
X142203786Y-76486176D01*
X142270766Y-76246085D01*
X141484806Y-75460125D01*
X140698846Y-76246085D01*
X106295000Y-76246085D01*
X106295000Y-75352537D01*
X140082896Y-75352537D01*
X140123884Y-75624653D01*
X140217170Y-75883543D01*
X140279150Y-75999500D01*
X140519241Y-76066480D01*
X141305201Y-75280520D01*
X141664411Y-75280520D01*
X142450371Y-76066480D01*
X142690462Y-75999500D01*
X142807562Y-75750472D01*
X142873829Y-75483385D01*
X142886716Y-75208503D01*
X142845728Y-74936387D01*
X142752442Y-74677497D01*
X142690462Y-74561540D01*
X142450371Y-74494560D01*
X141664411Y-75280520D01*
X141305201Y-75280520D01*
X140519241Y-74494560D01*
X140279150Y-74561540D01*
X140162050Y-74810568D01*
X140095783Y-75077655D01*
X140082896Y-75352537D01*
X106295000Y-75352537D01*
X106295000Y-74625565D01*
X113514040Y-74625565D01*
X113581020Y-74865656D01*
X113830048Y-74982756D01*
X114097135Y-75049023D01*
X114372017Y-75061910D01*
X114644133Y-75020922D01*
X114903023Y-74927636D01*
X115018980Y-74865656D01*
X115085960Y-74625565D01*
X114300000Y-73839605D01*
X113514040Y-74625565D01*
X106295000Y-74625565D01*
X106295000Y-73732017D01*
X112898090Y-73732017D01*
X112939078Y-74004133D01*
X113032364Y-74263023D01*
X113094344Y-74378980D01*
X113334435Y-74445960D01*
X114120395Y-73660000D01*
X114479605Y-73660000D01*
X115265565Y-74445960D01*
X115505656Y-74378980D01*
X115569485Y-74243240D01*
X115601995Y-74321727D01*
X115754880Y-74550535D01*
X115949465Y-74745120D01*
X116178273Y-74898005D01*
X116432510Y-75003314D01*
X116702408Y-75057000D01*
X116977592Y-75057000D01*
X117247490Y-75003314D01*
X117501727Y-74898005D01*
X117730535Y-74745120D01*
X117925120Y-74550535D01*
X118078005Y-74321727D01*
X118080810Y-74314955D01*
X140698846Y-74314955D01*
X141484806Y-75100915D01*
X142270766Y-74314955D01*
X142203786Y-74074864D01*
X141954758Y-73957764D01*
X141687671Y-73891497D01*
X141412789Y-73878610D01*
X141140673Y-73919598D01*
X140881783Y-74012884D01*
X140765826Y-74074864D01*
X140698846Y-74314955D01*
X118080810Y-74314955D01*
X118183314Y-74067490D01*
X118237000Y-73797592D01*
X118237000Y-73522408D01*
X118183314Y-73252510D01*
X118078005Y-72998273D01*
X117925120Y-72769465D01*
X117730535Y-72574880D01*
X117501727Y-72421995D01*
X117247490Y-72316686D01*
X116977592Y-72263000D01*
X116702408Y-72263000D01*
X116432510Y-72316686D01*
X116178273Y-72421995D01*
X115949465Y-72574880D01*
X115754880Y-72769465D01*
X115601995Y-72998273D01*
X115572308Y-73069943D01*
X115567636Y-73056977D01*
X115505656Y-72941020D01*
X115265565Y-72874040D01*
X114479605Y-73660000D01*
X114120395Y-73660000D01*
X113334435Y-72874040D01*
X113094344Y-72941020D01*
X112977244Y-73190048D01*
X112910977Y-73457135D01*
X112898090Y-73732017D01*
X106295000Y-73732017D01*
X106295000Y-72694435D01*
X113514040Y-72694435D01*
X114300000Y-73480395D01*
X115085960Y-72694435D01*
X115018980Y-72454344D01*
X114769952Y-72337244D01*
X114502865Y-72270977D01*
X114227983Y-72258090D01*
X113955867Y-72299078D01*
X113696977Y-72392364D01*
X113581020Y-72454344D01*
X113514040Y-72694435D01*
X106295000Y-72694435D01*
X106295000Y-71613578D01*
X106665579Y-71243000D01*
X157865000Y-71243000D01*
X157865000Y-71389146D01*
X157865000Y-71389146D01*
G37*
X157865000Y-71389146D02*
X157714203Y-71539943D01*
X157568268Y-71758351D01*
X157467746Y-72001032D01*
X157416500Y-72258662D01*
X157416500Y-72521338D01*
X157467746Y-72778968D01*
X157568268Y-73021649D01*
X157714203Y-73240057D01*
X157899943Y-73425797D01*
X158118351Y-73571732D01*
X158361032Y-73672254D01*
X158618662Y-73723500D01*
X158881338Y-73723500D01*
X159138968Y-73672254D01*
X159381649Y-73571732D01*
X159600057Y-73425797D01*
X159785797Y-73240057D01*
X159931732Y-73021649D01*
X160020000Y-72808552D01*
X160108268Y-73021649D01*
X160254203Y-73240057D01*
X160439943Y-73425797D01*
X160658351Y-73571732D01*
X160901032Y-73672254D01*
X161158662Y-73723500D01*
X161421338Y-73723500D01*
X161678968Y-73672254D01*
X161921649Y-73571732D01*
X162140057Y-73425797D01*
X162325797Y-73240057D01*
X162471732Y-73021649D01*
X162560000Y-72808552D01*
X162648268Y-73021649D01*
X162794203Y-73240057D01*
X162979943Y-73425797D01*
X163198351Y-73571732D01*
X163441032Y-73672254D01*
X163698662Y-73723500D01*
X163961338Y-73723500D01*
X164218968Y-73672254D01*
X164461649Y-73571732D01*
X164680057Y-73425797D01*
X164865797Y-73240057D01*
X165011732Y-73021649D01*
X165100000Y-72808552D01*
X165188268Y-73021649D01*
X165334203Y-73240057D01*
X165519943Y-73425797D01*
X165738351Y-73571732D01*
X165981032Y-73672254D01*
X166238662Y-73723500D01*
X166501338Y-73723500D01*
X166758968Y-73672254D01*
X167001649Y-73571732D01*
X167220057Y-73425797D01*
X167405797Y-73240057D01*
X167551732Y-73021649D01*
X167640000Y-72808552D01*
X167728268Y-73021649D01*
X167874203Y-73240057D01*
X168059943Y-73425797D01*
X168150001Y-73485972D01*
X168150000Y-84013198D01*
X167960199Y-84203000D01*
X155993325Y-84203000D01*
X155956000Y-84199324D01*
X155918675Y-84203000D01*
X155918667Y-84203000D01*
X155807014Y-84213997D01*
X155663753Y-84257454D01*
X155531724Y-84328026D01*
X155415999Y-84422999D01*
X155392201Y-84451998D01*
X154690499Y-85153700D01*
X154661501Y-85177498D01*
X154637703Y-85206496D01*
X154637702Y-85206497D01*
X154566527Y-85293223D01*
X154495955Y-85425253D01*
X154465681Y-85525057D01*
X154452499Y-85568513D01*
X154441501Y-85680166D01*
X154441501Y-85680177D01*
X154437825Y-85717499D01*
X154441501Y-85754821D01*
X154441501Y-86500520D01*
X154430324Y-86614000D01*
X154434001Y-86651332D01*
X154434000Y-91887198D01*
X153736199Y-92585000D01*
X142277333Y-92585000D01*
X142240000Y-92581323D01*
X142202667Y-92585000D01*
X142091014Y-92595997D01*
X141947753Y-92639454D01*
X141815724Y-92710026D01*
X141699999Y-92804999D01*
X141676201Y-92833998D01*
X140973804Y-93536395D01*
X140944806Y-93560193D01*
X140921008Y-93589191D01*
X140921007Y-93589192D01*
X140849832Y-93675918D01*
X140779260Y-93807948D01*
X140748986Y-93907752D01*
X140735804Y-93951208D01*
X140735052Y-93958845D01*
X140721130Y-94100194D01*
X140722091Y-94109953D01*
X140594271Y-94195360D01*
X140399686Y-94389945D01*
X140246801Y-94618753D01*
X140141492Y-94872990D01*
X140087806Y-95142888D01*
X140087806Y-95418072D01*
X140141492Y-95687970D01*
X140246801Y-95942207D01*
X140379631Y-96141000D01*
X136585802Y-96141000D01*
X136153018Y-95708217D01*
X136153018Y-82217343D01*
X136156694Y-82180018D01*
X136153018Y-82142693D01*
X136153018Y-82142685D01*
X136142021Y-82031032D01*
X136098564Y-81887771D01*
X136027992Y-81755742D01*
X135933019Y-81640017D01*
X135904021Y-81616219D01*
X135056803Y-80769002D01*
X135033001Y-80739999D01*
X134917276Y-80645026D01*
X134785247Y-80574454D01*
X134641986Y-80530997D01*
X134530333Y-80520000D01*
X134530322Y-80520000D01*
X134493000Y-80516324D01*
X134455678Y-80520000D01*
X123197595Y-80520000D01*
X123160706Y-80450986D01*
X122975134Y-80224866D01*
X122945313Y-80200393D01*
X123014180Y-80179502D01*
X123124494Y-80120537D01*
X123221185Y-80041185D01*
X123300537Y-79944494D01*
X123359502Y-79834180D01*
X123395812Y-79714482D01*
X123408072Y-79590000D01*
X123408072Y-77890000D01*
X123395812Y-77765518D01*
X123359502Y-77645820D01*
X123300537Y-77535506D01*
X123221185Y-77438815D01*
X123124494Y-77359463D01*
X123014180Y-77300498D01*
X122894482Y-77264188D01*
X122770000Y-77251928D01*
X121070000Y-77251928D01*
X120945518Y-77264188D01*
X120825820Y-77300498D01*
X120715506Y-77359463D01*
X120618815Y-77438815D01*
X120539463Y-77535506D01*
X120480498Y-77645820D01*
X120459607Y-77714687D01*
X120435134Y-77684866D01*
X120209014Y-77499294D01*
X119951034Y-77361401D01*
X119671111Y-77276487D01*
X119452950Y-77255000D01*
X119307050Y-77255000D01*
X119088889Y-77276487D01*
X118808966Y-77361401D01*
X118550986Y-77499294D01*
X118324866Y-77684866D01*
X118139294Y-77910986D01*
X118110000Y-77965791D01*
X118080706Y-77910986D01*
X117895134Y-77684866D01*
X117669014Y-77499294D01*
X117411034Y-77361401D01*
X117131111Y-77276487D01*
X116912950Y-77255000D01*
X116767050Y-77255000D01*
X116548889Y-77276487D01*
X116268966Y-77361401D01*
X116010986Y-77499294D01*
X115784866Y-77684866D01*
X115599294Y-77910986D01*
X115570000Y-77965791D01*
X115540706Y-77910986D01*
X115355134Y-77684866D01*
X115129014Y-77499294D01*
X114871034Y-77361401D01*
X114591111Y-77276487D01*
X114372950Y-77255000D01*
X114227050Y-77255000D01*
X114008889Y-77276487D01*
X113728966Y-77361401D01*
X113470986Y-77499294D01*
X113244866Y-77684866D01*
X113059294Y-77910986D01*
X113030000Y-77965791D01*
X113000706Y-77910986D01*
X112815134Y-77684866D01*
X112589014Y-77499294D01*
X112331034Y-77361401D01*
X112051111Y-77276487D01*
X111832950Y-77255000D01*
X111687050Y-77255000D01*
X111468889Y-77276487D01*
X111188966Y-77361401D01*
X110930986Y-77499294D01*
X110704866Y-77684866D01*
X110519294Y-77910986D01*
X110490000Y-77965791D01*
X110460706Y-77910986D01*
X110275134Y-77684866D01*
X110049014Y-77499294D01*
X109791034Y-77361401D01*
X109511111Y-77276487D01*
X109292950Y-77255000D01*
X109147050Y-77255000D01*
X108928889Y-77276487D01*
X108648966Y-77361401D01*
X108390986Y-77499294D01*
X108164866Y-77684866D01*
X107979294Y-77910986D01*
X107841401Y-78168966D01*
X107756487Y-78448889D01*
X107727815Y-78740000D01*
X107756487Y-79031111D01*
X107841401Y-79311034D01*
X107979294Y-79569014D01*
X108164866Y-79795134D01*
X108390986Y-79980706D01*
X108445791Y-80010000D01*
X108390986Y-80039294D01*
X108164866Y-80224866D01*
X107979294Y-80450986D01*
X107841401Y-80708966D01*
X107756487Y-80988889D01*
X107727815Y-81280000D01*
X107756487Y-81571111D01*
X107841401Y-81851034D01*
X107979294Y-82109014D01*
X108164866Y-82335134D01*
X108390986Y-82520706D01*
X108460001Y-82557595D01*
X108460001Y-86397879D01*
X108338968Y-86347746D01*
X108081338Y-86296500D01*
X107818662Y-86296500D01*
X107561032Y-86347746D01*
X107318351Y-86448268D01*
X107099943Y-86594203D01*
X106914203Y-86779943D01*
X106768268Y-86998351D01*
X106680000Y-87211448D01*
X106591732Y-86998351D01*
X106445797Y-86779943D01*
X106295000Y-86629146D01*
X106295000Y-76246085D01*
X140698846Y-76246085D01*
X140765826Y-76486176D01*
X141014854Y-76603276D01*
X141281941Y-76669543D01*
X141556823Y-76682430D01*
X141828939Y-76641442D01*
X142087829Y-76548156D01*
X142203786Y-76486176D01*
X142270766Y-76246085D01*
X141484806Y-75460125D01*
X140698846Y-76246085D01*
X106295000Y-76246085D01*
X106295000Y-75352537D01*
X140082896Y-75352537D01*
X140123884Y-75624653D01*
X140217170Y-75883543D01*
X140279150Y-75999500D01*
X140519241Y-76066480D01*
X141305201Y-75280520D01*
X141664411Y-75280520D01*
X142450371Y-76066480D01*
X142690462Y-75999500D01*
X142807562Y-75750472D01*
X142873829Y-75483385D01*
X142886716Y-75208503D01*
X142845728Y-74936387D01*
X142752442Y-74677497D01*
X142690462Y-74561540D01*
X142450371Y-74494560D01*
X141664411Y-75280520D01*
X141305201Y-75280520D01*
X140519241Y-74494560D01*
X140279150Y-74561540D01*
X140162050Y-74810568D01*
X140095783Y-75077655D01*
X140082896Y-75352537D01*
X106295000Y-75352537D01*
X106295000Y-74625565D01*
X113514040Y-74625565D01*
X113581020Y-74865656D01*
X113830048Y-74982756D01*
X114097135Y-75049023D01*
X114372017Y-75061910D01*
X114644133Y-75020922D01*
X114903023Y-74927636D01*
X115018980Y-74865656D01*
X115085960Y-74625565D01*
X114300000Y-73839605D01*
X113514040Y-74625565D01*
X106295000Y-74625565D01*
X106295000Y-73732017D01*
X112898090Y-73732017D01*
X112939078Y-74004133D01*
X113032364Y-74263023D01*
X113094344Y-74378980D01*
X113334435Y-74445960D01*
X114120395Y-73660000D01*
X114479605Y-73660000D01*
X115265565Y-74445960D01*
X115505656Y-74378980D01*
X115569485Y-74243240D01*
X115601995Y-74321727D01*
X115754880Y-74550535D01*
X115949465Y-74745120D01*
X116178273Y-74898005D01*
X116432510Y-75003314D01*
X116702408Y-75057000D01*
X116977592Y-75057000D01*
X117247490Y-75003314D01*
X117501727Y-74898005D01*
X117730535Y-74745120D01*
X117925120Y-74550535D01*
X118078005Y-74321727D01*
X118080810Y-74314955D01*
X140698846Y-74314955D01*
X141484806Y-75100915D01*
X142270766Y-74314955D01*
X142203786Y-74074864D01*
X141954758Y-73957764D01*
X141687671Y-73891497D01*
X141412789Y-73878610D01*
X141140673Y-73919598D01*
X140881783Y-74012884D01*
X140765826Y-74074864D01*
X140698846Y-74314955D01*
X118080810Y-74314955D01*
X118183314Y-74067490D01*
X118237000Y-73797592D01*
X118237000Y-73522408D01*
X118183314Y-73252510D01*
X118078005Y-72998273D01*
X117925120Y-72769465D01*
X117730535Y-72574880D01*
X117501727Y-72421995D01*
X117247490Y-72316686D01*
X116977592Y-72263000D01*
X116702408Y-72263000D01*
X116432510Y-72316686D01*
X116178273Y-72421995D01*
X115949465Y-72574880D01*
X115754880Y-72769465D01*
X115601995Y-72998273D01*
X115572308Y-73069943D01*
X115567636Y-73056977D01*
X115505656Y-72941020D01*
X115265565Y-72874040D01*
X114479605Y-73660000D01*
X114120395Y-73660000D01*
X113334435Y-72874040D01*
X113094344Y-72941020D01*
X112977244Y-73190048D01*
X112910977Y-73457135D01*
X112898090Y-73732017D01*
X106295000Y-73732017D01*
X106295000Y-72694435D01*
X113514040Y-72694435D01*
X114300000Y-73480395D01*
X115085960Y-72694435D01*
X115018980Y-72454344D01*
X114769952Y-72337244D01*
X114502865Y-72270977D01*
X114227983Y-72258090D01*
X113955867Y-72299078D01*
X113696977Y-72392364D01*
X113581020Y-72454344D01*
X113514040Y-72694435D01*
X106295000Y-72694435D01*
X106295000Y-71613578D01*
X106665579Y-71243000D01*
X157865000Y-71243000D01*
X157865000Y-71389146D01*
M02*
